<svg width="24" height="24" viewBox="0 0 24 24" fill="none" xmlns="http://www.w3.org/2000/svg">
    <path
        d="M12 7.538C12.1747 7.538 12.321 7.597 12.439 7.715C12.5563 7.833 12.615 7.97933 12.615 8.154C12.615 8.328 12.556 8.474 12.438 8.592C12.32 8.71 12.174 8.76933 12 8.77C11.826 8.77067 11.68 8.71167 11.562 8.593C11.444 8.47433 11.385 8.32833 11.385 8.155C11.385 7.98167 11.444 7.83533 11.562 7.716C11.68 7.59667 11.826 7.53667 12 7.538ZM11.5 10.847H12.5V16.847H11.5V10.847ZM12.003 3C10.759 3 9.589 3.236 8.493 3.708C7.39767 4.18067 6.44467 4.822 5.634 5.632C4.82333 6.442 4.18167 7.394 3.709 8.488C3.23633 9.582 3 10.7517 3 11.997C3 13.2423 3.23633 14.4123 3.709 15.507C4.181 16.6023 4.82133 17.5553 5.63 18.366C6.43867 19.1767 7.391 19.8183 8.487 20.291C9.583 20.7637 10.753 21 11.997 21C13.241 21 14.411 20.7637 15.507 20.291C16.6023 19.819 17.5553 19.1783 18.366 18.369C19.1767 17.5597 19.8183 16.6073 20.291 15.512C20.7637 14.4167 21 13.247 21 12.003C21 10.759 20.764 9.589 20.292 8.493C19.82 7.397 19.1787 6.444 18.368 5.634C17.5573 4.824 16.6053 4.18233 15.512 3.709C14.4187 3.23567 13.249 2.99933 12.003 3Z"
        fill="white" />
</svg>