<svg width="41" height="28" viewBox="0 0 41 28" fill="none" xmlns="http://www.w3.org/2000/svg">
    <path d="M27.7311 4.32712H10.3972V21.6791H27.7311V4.32712Z" fill="#015590" />
    <path fill-rule="evenodd" clip-rule="evenodd"
        d="M24.3831 16.082L23.99 15.143L23.5751 16.082H22.6326L23.9609 13.1596L25.2929 16.082H24.3831Z"
        fill="white" />
    <path fill-rule="evenodd" clip-rule="evenodd"
        d="M23.2259 16.7188L22.7383 17.8288L23.9247 17.2211L24.5797 17.7378L22.2688 18.8624H21.3553L22.5745 16.1256L23.2259 16.7188Z"
        fill="white" />
    <path fill-rule="evenodd" clip-rule="evenodd"
        d="M26.4939 18.8623H25.5077L24.6088 16.737L25.2529 16.1111L26.4939 18.8623Z" fill="white" />
    <path fill-rule="evenodd" clip-rule="evenodd"
        d="M20.6491 13.338C20.6491 13.338 20.5144 14.1604 20.5253 14.2005C20.0122 13.9457 19.2843 13.7892 18.7967 14.0585C18.5528 14.1932 18.4655 14.568 18.5783 14.8519C19.3717 15.7217 20.7801 15.5106 20.8565 17.1956C20.8601 17.6541 20.6673 18.0908 20.3324 18.4002C19.5937 18.9788 18.5201 18.9388 17.6576 18.6295L17.7449 17.7196C18.2399 17.9889 19.1642 18.2328 19.7029 17.7342C19.8885 17.5704 19.9321 17.272 19.9067 16.9809C19.5973 16.0856 17.1663 16.122 17.6139 14.266C17.7449 13.8001 18.0943 13.4289 18.5492 13.2688C19.1824 12.974 20.0377 13.1451 20.6491 13.338Z"
        fill="white" />
    <path fill-rule="evenodd" clip-rule="evenodd"
        d="M16.1802 13.4544L16.1474 14.3679C15.4705 13.9312 14.2732 13.7747 13.4944 14.2296C12.8029 14.6372 12.581 15.234 12.5664 15.9655C12.5482 16.7443 12.8685 17.4758 13.6363 17.8798C14.1422 18.1418 15.314 18.0181 15.314 18.0181V16.6279H14.295L14.3023 15.769H16.2603V18.6913C15.1794 19.0225 13.7637 19.0334 12.8175 18.3893C11.8094 17.6978 11.6311 16.8498 11.6311 15.9655C11.6311 14.7791 12.3408 13.509 13.7492 13.2397C14.568 13.0868 15.4087 13.1596 16.1802 13.4544Z"
        fill="white" />
</svg>