<svg width="26" height="26" viewBox="0 0 26 26" fill="none" xmlns="http://www.w3.org/2000/svg">
<path d="M6.06699 17.0083L5.84846 17.2997L6.03585 17.612C6.8815 19.0214 7.83841 20.0466 8.99708 20.7141C10.1571 21.3824 11.4752 21.6666 13.0003 21.6666C16.1531 21.6666 18.3131 19.931 19.9413 17.6478L20.1181 17.3999L19.9982 17.12C19.4545 15.8505 18.6784 15.0617 17.6405 14.6125C16.6366 14.1781 15.4343 14.0833 14.0836 14.0833H11.3753C10.4994 14.0833 9.59983 14.23 8.69557 14.6822C7.79313 15.1334 6.91903 15.8723 6.06699 17.0083ZM13.0003 2.70833C14.3518 2.70833 15.6901 2.97452 16.9388 3.49173C18.1874 4.00893 19.3219 4.767 20.2776 5.72267C21.2333 6.67834 21.9914 7.81289 22.5086 9.06153C23.0258 10.3102 23.292 11.6485 23.292 13C23.292 18.6839 18.6842 23.2917 13.0003 23.2917C7.3164 23.2917 2.70864 18.6839 2.70864 13C2.70864 7.31609 7.3164 2.70833 13.0003 2.70833ZM13.0003 4.875C10.9062 4.875 9.20862 6.5726 9.20862 8.66667C9.20862 10.7607 10.9062 12.4583 13.0003 12.4583C15.0944 12.4583 16.792 10.7607 16.792 8.66667C16.792 6.57261 15.0944 4.875 13.0003 4.875Z" fill="#00497C" stroke="white" stroke-width="1.08333"/>
<circle cx="13" cy="8.66667" r="3.25" fill="white"/>
<path d="M19.5 17.2141C19.5 19.3658 16.6402 21.6667 12.4429 21.6667C8.24552 21.6667 6.5 19.5744 6.5 17.4227C6.5 15.271 8.27414 14.0833 12.4715 14.0833C16.6689 14.0833 19.5 15.0625 19.5 17.2141Z" fill="white"/>
</svg>
