<svg width="20" height="20" viewBox="0 0 20 20" fill="none" xmlns="http://www.w3.org/2000/svg">
    <path
        d="M4.68016 16.6667C4.29627 16.6667 3.976 16.5383 3.71933 16.2817C3.46266 16.025 3.33405 15.7045 3.3335 15.32V4.68001C3.3335 4.29612 3.46211 3.97584 3.71933 3.71918C3.97655 3.46251 4.29683 3.3339 4.68016 3.33334H10.016V4.16668H4.68016C4.55183 4.16668 4.43405 4.22001 4.32683 4.32668C4.21961 4.43334 4.16627 4.55112 4.16683 4.68001V15.3208C4.16683 15.4486 4.22016 15.5661 4.32683 15.6733C4.4335 15.7806 4.551 15.8339 4.67933 15.8333H10.016V16.6667H4.68016ZM13.7185 12.9492L13.1335 12.3492L15.066 10.4167H7.66016V9.58334H15.066L13.1327 7.65001L13.7177 7.05168L16.6668 10L13.7185 12.9492Z"
        fill="#00497C" />
</svg>