<svg width="31" height="27" viewBox="0 0 31 27" fill="none" xmlns="http://www.w3.org/2000/svg">
<path d="M17.2339 1.30096H18.5428L18.748 1.34142L18.8491 1.42233L18.8896 1.52346L18.9098 1.66794L18.9503 2.81222V3.0376H19.1554L20.0974 2.97692L20.528 2.9567H20.814L21.2851 2.99715L21.47 3.05783L21.6954 3.30345L21.8399 3.46815L22.1461 3.79468L22.3715 4.02006L22.516 4.18477L22.8425 4.51129L22.987 4.676L23.2933 4.98229L23.5389 5.12677L23.6603 5.147H23.721V5.18745L23.8423 5.16723L24.2093 4.96207L24.4954 4.75691L24.8624 4.49106L25.3536 4.16454L25.7437 3.8987L26.05 3.69354L26.9515 3.10117L27.3185 2.85556L27.7288 2.56949L28.1189 2.3441L28.3848 2.22274L28.6708 2.16206H29.0811L29.4481 2.20251L29.7342 2.28342L29.8353 2.3441L29.9162 2.44524L29.9365 2.52615V4.75691L29.9162 5.43307L29.8758 5.86362L29.8151 6.14968L29.7342 6.33462L29.4886 6.80562L29.1823 7.37776L28.9164 7.84876L28.6506 8.33999L28.4859 8.64628L28.2807 9.01326L28.0958 9.40336L28.0553 9.56806L28.0351 9.753L28.0149 10.4292V11.3712L27.9947 12.0473L27.934 12.1918L27.7895 12.3132L27.5641 12.4981L27.3994 12.6628L27.2549 12.8275L27.07 13.0327L26.8648 13.2783L26.6597 13.6453L26.6395 13.7059V13.8707L26.7839 14.1365L27.0498 14.5266L27.2954 14.8936L27.5208 15.2403L27.8068 15.6911L27.9918 15.9974L28.0727 16.2025L28.0525 16.3037L27.9513 16.4048L27.83 16.5493L27.6653 16.6938L27.2752 17.0839L27.1105 17.2283L26.8244 17.5144L26.6597 17.6589L26.495 17.8236L26.2696 18.0085L25.9835 18.2137L25.9228 18.2744L25.8622 18.2339L25.7812 18.2946L25.6599 18.2744L25.4749 18.1299L25.2698 17.9652L25.0646 17.7803L24.8999 17.6358L24.3682 17.1041L24.2035 16.9596L23.9984 16.7545L23.8337 16.61L23.5678 16.3644L23.4031 16.2199V16.1794L23.3222 16.139L23.117 15.954L22.8917 15.7691L22.6865 15.668H20.6407L19.9241 15.6882L19.6582 15.7489L19.5369 15.8934L19.4357 16.1794L19.375 16.3644L19.2941 16.4857L19.2132 16.5464H17.884L17.8031 16.7111L17.3119 18.1848L17.1905 18.5315L17.0258 18.8581L16.9044 19.0228L16.6588 19.1037L16.4537 19.1239H15.1851L14.6737 19.0835L14.4483 18.939L14.2229 18.6934L13.9975 18.3871L13.7519 18.0403L13.4658 17.6502L13.2405 17.3237L12.9948 16.977L12.7897 16.7516L12.5845 16.6071L12.3996 16.5464L12.0528 16.506L11.8274 16.425L11.8072 16.3846V16.0581L11.8679 15.668L11.969 15.5033L12.1135 15.3819L12.3591 15.2808L12.5441 15.2201L12.729 15.1796L12.9544 15.0149L13.0353 14.9138L13.0757 14.7924L12.8908 14.5266L12.7059 14.3214L12.5614 14.1567L12.2349 13.81L11.6223 13.1974L11.4576 13.0529L11.1917 12.8073L10.8652 12.4808L10.7005 12.3363L10.3538 12.0098L10.0272 11.7844L9.86253 11.6832H9.64292L9.37708 11.8479L9.09101 12.0936L8.86562 12.2987L8.70092 12.4432L8.37439 12.7697L8.20969 12.9142L8.00453 13.1194L7.83982 13.2638L7.5942 13.4892L6.87759 14.2058L6.73311 14.3706L6.49327 14.6219L6.37191 14.8069L6.39214 14.9282L6.57707 15.0496L6.82269 15.171L7.08853 15.2114L7.49885 15.3559L7.62021 15.4368L7.64044 15.457V15.6217L7.57976 15.7229L7.51908 15.7431L7.19255 15.6824L6.92671 15.642L6.8458 15.7229H6.66087L6.45571 15.642L6.00493 15.3964L5.65818 15.171L5.33166 14.9456L4.6555 14.4948L4.2654 14.229L3.34363 13.6164L3.11824 13.4517L2.91308 13.287L2.70792 13.102L2.56344 12.9836L2.48253 12.7986L2.44208 12.6975L2.25714 11.7353L2.05198 10.3656L1.8266 9.07683L1.64166 7.88922L1.56075 7.3373L1.54053 7.11192V6.74494L1.62144 6.39819L1.88728 5.66135L2.15312 4.96496L2.49987 4.02295L2.88996 2.91913L3.11535 2.30654L3.38119 1.6506L3.50255 1.40499L3.60369 1.32408H15.6533L17.2339 1.30096Z" fill="#FFFEFE"/>
<path d="M12.7116 0.567017H16.2514L18.9531 0.587244L19.219 0.75195L19.4241 0.957111L19.5889 1.24318L19.6698 1.44834L19.7304 1.73441L19.7507 2.30655H19.9963L20.2419 2.26609L20.7938 2.24586H21.3659L21.5913 2.28632L21.8774 2.4308L22.0623 2.61573L22.2068 2.78044L22.4524 3.06651L22.6778 3.31212L22.9841 3.61842L23.1488 3.7629L23.4753 4.06919L23.7614 4.35526L23.9059 4.31481L24.0273 4.21367L24.5792 3.84669L24.9461 3.58085L25.3362 3.31501L25.7466 3.02894L26.2378 2.70242L26.5643 2.4568L26.8504 2.25164L27.3214 1.92512L27.6884 1.69973L27.9744 1.55525L28.3212 1.45412L28.5668 1.41366L28.7922 1.39344H29.3036L29.6504 1.43389L29.896 1.49457L30.1416 1.61594L30.3468 1.80087L30.4913 2.00603L30.5924 2.23142L30.6328 2.3759L30.6531 2.5406L30.6733 2.97115V5.8145L30.6328 6.14102L30.4884 6.55134L30.367 6.83741L30.1618 7.22751L29.9162 7.65805L29.6504 8.14928L29.4048 8.60006L29.1592 9.09129L28.9944 9.39758L28.8933 9.62297L28.8326 9.74433V9.98995L28.8933 10.1951L28.9338 10.3165L28.9135 10.643L28.8933 11.9924L28.7488 12.3594L28.6275 12.5443L28.4223 12.8102L28.012 13.2205L27.8068 13.3852L27.6017 13.5904L27.4803 13.651L27.4601 13.6915L27.5208 13.836L27.6652 14.0411L27.7866 14.2463L27.9715 14.5324L28.1362 14.7578L28.3414 15.0641L28.6275 15.5553L28.7922 15.8818L28.8326 16.087V16.2517L28.6881 16.5984L28.5437 16.8238L28.3587 17.0492L28.1333 17.2948L27.7433 17.6849L27.5786 17.8294L27.3734 18.0143L27.2087 18.1588L26.6365 18.65L26.3505 18.8552L26.1453 18.9766L25.9806 18.9968L25.9199 19.0575L25.6339 19.0777L25.6136 19.017L25.3073 18.9563L25.0617 18.7916L24.7757 18.5662L24.4694 18.2802L24.3047 18.1357L24.1602 17.9912L24.0995 17.9508V17.9103L24.0186 17.8698L23.6718 17.5231L23.5071 17.3786L23.2211 17.1128L22.7703 16.7458L22.6258 16.5811L22.4611 16.48L22.3166 16.4395H22.1721L22.071 16.48H21.3544L20.8632 16.5002H20.1668L20.0223 16.6215L19.8576 16.8874L19.7362 17.0319L19.4906 17.1532L19.1843 17.2544L19.0196 17.2948L18.4879 17.3353L18.4475 17.3555L18.3463 17.6011L18.1412 18.1126L17.936 18.7252L17.7511 19.1557L17.6297 19.3811L17.4043 19.6267L17.1183 19.7712L16.8929 19.8319L16.7282 19.8521L16.3381 19.8723H14.9684L14.3356 19.8319L14.1507 19.7712L13.9455 19.5863L13.7606 19.3811L13.4947 19.0141L13.2289 18.624L13.0237 18.3582L12.7781 18.0317L12.6134 17.8265L12.388 17.5607L12.1626 17.315L12.0817 17.2544L11.9604 17.2746L11.8794 17.315L11.839 17.4595L11.7783 18.3177L11.7581 18.7887L11.6974 19.1557L11.6367 19.3609L11.5356 19.4418L11.4344 19.4822L11.2495 19.5025L10.6167 19.5227H7.91494L7.8138 19.4418L7.71267 19.095L7.69244 18.9101L7.67221 16.5782L7.63176 16.558H7.07985L6.56839 16.5175L6.24187 16.4568L5.97603 16.3557L5.75064 16.2343L5.42411 16.009L5.05714 15.7431L4.67282 15.4397L4.46766 15.2952L4.14114 15.0698L3.73082 14.7838L3.21936 14.437L2.82927 14.1712L2.46229 13.9053L2.27736 13.7609L2.0722 13.5759L1.92772 13.4112L1.82658 13.2465L1.66188 12.6744L1.49717 11.7959L1.2111 10.016L1.0464 9.0335L0.861462 7.72452L0.821008 7.35754L0.800781 6.82585L0.861462 6.39531L0.962598 6.06878L1.18799 5.41285L1.41337 4.80026L1.65899 4.10387L2.02597 3.10118L2.33226 2.28343L2.61833 1.52636L2.84372 1.03513L2.9882 0.789515L3.08933 0.668153L3.23381 0.627699L3.51988 0.607471L4.29718 0.587244L12.7116 0.567017ZM17.2338 1.30097L15.659 1.3212H3.60946L3.50832 1.40211L3.36384 1.68818L3.05755 2.46547L2.73102 3.38725L2.46518 4.14432L2.13866 5.02275L1.81214 5.88096L1.60698 6.4531L1.54629 6.73917V7.10614L1.6272 7.78231L1.81214 8.9497L1.99707 10.0131L2.14155 10.8915L2.26291 11.7295L2.44784 12.6917L2.54898 12.9373L2.67034 13.0818L2.89573 13.2667L3.06044 13.4112L3.2656 13.5557L3.55166 13.7609L3.89842 13.9862L4.26539 14.2319L4.59191 14.4572L5.32876 14.9485L5.65528 15.1739L6.04538 15.4195L6.33144 15.5842L6.59729 15.7055L6.65797 15.7258H6.8429L6.92381 15.6449L7.18965 15.6853L7.5364 15.746L7.61731 15.6651L7.63754 15.6246V15.4599L7.5364 15.379L7.16942 15.2345L7.00472 15.1941L6.81978 15.1739L6.42969 14.9687L6.36901 14.8878L6.38924 14.7664L6.55394 14.5613L6.84001 14.255L7.02494 14.0498L7.76179 13.313L7.92649 13.1685L8.17211 12.9431L8.33681 12.7784L8.50152 12.6339L8.82804 12.3074L9.05343 12.1225L9.27882 11.9173L9.44353 11.7959L9.64869 11.6746H9.87407L10.0388 11.7757L10.3653 12.0011L10.5502 12.186L10.7149 12.3305L11.0617 12.657L11.368 12.9633L11.5327 13.1078L11.7985 13.3534L12.4314 13.9862L12.5758 14.1509L12.8417 14.437L13.0671 14.7433L13.0873 14.8242L12.9862 14.9889L12.781 15.1536L12.7001 15.1941L12.4747 15.2345L12.1684 15.3559L12.0037 15.4773L11.9228 15.5784L11.8823 15.6593L11.8217 16.0494V16.3759L11.8419 16.4164L12.0673 16.4973L12.4978 16.558L12.703 16.6591L12.9486 16.8845L13.2144 17.2515L13.541 17.7225L13.827 18.1126L14.1131 18.5229L14.298 18.7483L14.483 18.9534L14.6881 19.0748L15.1996 19.1153H16.4681L16.7339 19.0748L16.9391 18.9939L17.0836 18.7887L17.2483 18.4218L17.4939 17.6849L17.78 16.8065L17.8811 16.5609L17.9013 16.5406H19.2305L19.3519 16.4395L19.4328 16.2748L19.534 15.928L19.5946 15.8269L19.716 15.7258L19.9414 15.6853L20.6985 15.6651H22.7038L22.909 15.7662L23.2153 16.0321L23.38 16.1765H23.4204L23.4407 16.2372L23.6054 16.3817L23.7499 16.5262L23.9146 16.6707L24.1804 16.9163L24.3451 17.081L24.5098 17.2255L25.0415 17.7571L25.2669 17.9421L25.4518 18.1068L25.657 18.2513L25.7177 18.2917L25.8188 18.2715L25.8997 18.231L25.9604 18.2715L26.0413 18.1704L26.2869 18.0057L26.5932 17.7398L26.7984 17.5347L26.9631 17.3902L27.2491 17.1041L27.4138 16.9596L27.8039 16.5695L27.9253 16.4684L28.0062 16.3673L28.0871 16.2864L28.0669 16.165L27.9658 15.9194L27.6797 15.4686L27.4341 15.0785L27.148 14.648L26.9226 14.3214L26.7175 13.9949L26.6568 13.8735V13.7088L26.8215 13.3823L26.966 13.1772L27.1913 12.9315L27.3965 12.7062L27.541 12.5415L27.7664 12.3363L27.8877 12.2554L27.9889 12.134L28.0091 12.0531L28.0293 11.3769V10.4349L28.0496 9.75878L28.09 9.47271L28.2114 9.18664L28.4165 8.79655L28.6217 8.42957L28.7431 8.20419L29.0493 7.63205L29.3152 7.16105L29.6822 6.44443L29.7833 6.27972L29.8642 6.01388L29.9047 5.72781L29.9249 5.44174L29.9451 4.7049V2.53771L29.8844 2.39323L29.8035 2.31233L29.5377 2.23142L29.3325 2.19096L29.0869 2.17074H28.6766L28.3298 2.25164L27.8993 2.47703L27.5323 2.72265L27.122 3.00871L26.7319 3.25433L25.7494 3.91026L25.4229 4.13565L24.7265 4.60665L24.3364 4.89272L24.0301 5.07766L23.7845 5.19902H23.7238L23.7036 5.13834L23.6025 5.15856L23.3569 5.0372L23.1517 4.85227L22.8656 4.5662L22.7212 4.40149L22.3946 4.07497L22.2502 3.91026L21.9641 3.6242L21.8196 3.45949L21.574 3.19365L21.4729 3.07229L21.2879 3.01161L20.8169 2.97115H20.5309L19.4473 3.03183L18.9965 3.05206H18.956L18.9358 2.21408L18.9156 1.6824L18.8751 1.47724L18.7942 1.3761L18.7133 1.33565L18.5486 1.31542H17.2338V1.30097Z" fill="#438CB2"/>
<path d="M9.64296 11.6543H9.86835L10.0331 11.7555L10.3596 11.9808L10.5445 12.1658L10.7092 12.3103L11.056 12.6368L11.3623 12.9431L11.527 13.0876L11.7928 13.3332L12.4487 13.9891L12.5932 14.1538L12.8591 14.4399L13.0845 14.7462L13.1047 14.8271L13.0035 14.9918L12.7782 15.1767L12.6972 15.2172L12.4719 15.2576L12.1656 15.379L12.0009 15.5004L11.8997 15.6651L11.839 16.0552L11.8188 16.6273L11.8795 16.9134V17.159L11.8188 17.4653L11.7986 18.3033L11.7784 18.7743L11.7177 19.1412L11.657 19.3464L11.5559 19.4273L11.4547 19.4678L11.2698 19.488L10.637 19.5082H7.93521L7.83408 19.4273L7.73294 19.0806L7.71272 18.8956V16.3181L7.63181 15.4599L7.4671 15.3588L7.10012 15.2374L6.83428 15.197L6.44419 14.9918L6.36328 14.8907L6.38351 14.7693L6.54822 14.5641L6.83428 14.2578L7.01922 14.0527L7.77629 13.2956L7.94099 13.1511L8.18661 12.9257L8.35131 12.761L8.51602 12.6166L8.84254 12.29L9.06793 12.1051L9.29332 11.8999L9.45803 11.7786L9.64296 11.6543Z" fill="#B01A39"/>
<path d="M3.71074 18.1588H5.20466L6.18712 18.179L6.43273 18.2195L6.47319 18.3408L6.49341 22.0684L6.59455 22.1695L6.96153 22.314L7.55389 22.4787L7.7186 22.5798L7.7995 22.7012L7.77928 22.8861L7.61457 23.152L7.38918 23.3976L7.18402 23.5825L6.8575 23.8888L6.69279 24.0535L6.52809 24.198L6.38361 24.3425L6.15822 24.5274L5.81147 24.8539L5.54563 25.0996L5.23933 25.3654L4.50249 26.1022L4.42158 26.082L4.15574 25.8566L3.86967 25.611L3.52292 25.2845L3.31776 25.0996L3.13283 24.9146L2.96812 24.7701L2.66183 24.4639L2.49712 24.3194L2.35264 24.1749L2.18793 24.0304L1.98277 23.8253L1.81807 23.6808L1.63313 23.4958L1.59268 23.4756V23.4352L1.532 23.4149L1.38752 23.2502L1.22281 23.0451L1.05811 22.7388L1.07833 22.6376L1.28349 22.4932L1.58979 22.3718L2.04056 22.2504L2.36709 22.1291L2.38731 22.1088L2.40754 21.9441L2.448 18.9563L2.46822 18.4651L2.48845 18.2801L2.54913 18.2195L2.63004 18.1992L2.93633 18.179L3.71074 18.1588Z" fill="#085486"/>
<path d="M12.7116 0.567017L15.4539 0.587244L16.6213 0.607471L17.5633 0.668153H17.8089L17.91 0.68838L18.4215 0.708607L18.6468 0.769288L18.7682 0.850196V0.890651L18.8491 0.910878L19.0543 1.05536L19.1756 1.22006V1.26052H19.2161L19.2363 1.36165L19.0918 1.42233L19.0109 1.46279L19.0312 1.5437L19.0918 1.58415L19.1323 1.50324L19.2768 1.48302L19.2566 1.56392H19.1554L19.115 1.60438L19.0745 1.70551L18.9734 1.74597L18.9329 1.72574V1.66506H18.8925L18.852 1.4599L18.7509 1.35876L18.5457 1.31831H17.2367L15.6619 1.33854H3.61235L3.51121 1.43967L3.38985 1.68529L3.08355 2.46258L2.75703 3.38436L2.49119 4.14143L2.16466 5.01986L1.83814 5.87807L1.63298 6.45021L1.5723 6.73628V7.10326L1.65321 7.77942L1.83814 8.94681L2.02307 10.0102L2.16755 10.8886L2.28892 11.7266L2.47385 12.6888L2.57499 12.9344L2.67612 13.0558L2.90151 13.2407L3.06621 13.3852L3.27137 13.5297L3.55744 13.7348L3.90419 13.9602L4.27117 14.2059L4.59769 14.4312L5.33454 14.9225L5.66106 15.1479L6.05115 15.3935L6.33722 15.5582L6.60306 15.6795L6.66375 15.6998H6.84868L6.92959 15.6189L7.19543 15.6593L7.54218 15.72L7.64332 15.6189L7.704 16.0899L7.72422 16.3152V16.7053H7.704L7.68377 16.5609L7.64332 16.5406H7.0914L6.57995 16.5002L6.25342 16.4395L5.98758 16.3384L5.7622 16.217L5.43567 15.9916L5.0687 15.7258L4.67282 15.4397L4.46766 15.2952L4.14114 15.0698L3.73082 14.7838L3.21936 14.437L2.82927 14.1712L2.46229 13.9053L2.27736 13.7609L2.0722 13.5759L1.92772 13.4112L1.82658 13.2465L1.66188 12.6744L1.49717 11.7959L1.2111 10.016L1.0464 9.0335L0.861462 7.72452L0.821008 7.35754L0.800781 6.82585L0.861462 6.39531L0.962598 6.06878L1.18799 5.41285L1.41337 4.80026L1.65899 4.10387L2.02597 3.10118L2.33226 2.28343L2.61833 1.52636L2.84372 1.03513L2.9882 0.789515L3.08933 0.668153L3.23381 0.627699L3.51988 0.607471L4.29718 0.587244L12.7116 0.567017Z" fill="#156A9C"/>
<path d="M28.4051 11.9H28.4658V12.3103L28.486 12.4114L28.4253 12.5559H28.3849L28.3444 12.657L28.3242 12.7177H28.2635L28.2231 12.7986L28.1624 12.8795H28.1219L28.1017 12.9402H28.0612V13.0009L28.0208 13.0413L28.0006 13.102L27.9197 13.1223V13.1627H27.8792L27.8387 13.2638L27.6134 13.469L27.4284 13.5904L27.388 13.6511L27.4284 13.9169L27.5296 14.1221L27.5498 14.2868L27.57 14.3474L27.7145 14.4486V14.489H27.7549V14.5295H27.8156L27.8763 14.6508L27.9977 14.8358L28.1826 15.0814L28.2433 15.1825L28.4484 15.4686L28.6132 15.59L28.7345 15.7951L28.7143 15.9396L28.6738 16.0841L28.6941 16.269L28.7143 16.3499V16.5349L28.5929 16.74L28.3878 17.0059L28.1422 17.2717L27.7521 17.6618L27.5874 17.8063L27.3822 17.9912L27.2175 18.1357L26.6453 18.6269L26.3593 18.8321L26.1541 18.9534L25.9894 18.9737L25.9287 19.0343L25.6427 19.0546L25.6224 18.9939L25.3161 18.9332L25.0705 18.7685L24.7845 18.5431L24.4782 18.257L24.3135 18.1126L24.169 17.9681L24.1083 17.9276V17.8872L24.0274 17.8467L23.6806 17.5L23.5159 17.3555L23.2299 17.0897L22.7791 16.7227L22.6346 16.558L22.4699 16.4568L22.3254 16.4164H22.1809L22.0798 16.4568H21.3632L20.872 16.4771H20.1756L20.0311 16.5984L19.8664 16.8643L19.745 17.0087L19.4994 17.1301L19.1931 17.2312L19.0284 17.2717L18.4967 17.3122L18.4563 17.3324L18.3551 17.578L18.15 18.0895L17.9448 18.702L17.7599 19.1326L17.6385 19.358L17.4131 19.6036L17.1271 19.7481L16.9017 19.8088L16.737 19.829L16.3469 19.8492H14.9772L14.3444 19.8088L14.1595 19.7481L13.9543 19.5631L13.7694 19.358L13.5035 18.991L13.2377 18.6009L13.0325 18.3351L12.7869 18.0085L12.6222 17.8034L12.3968 17.5375L12.1714 17.2919L12.0905 17.2312L11.9692 17.2515L11.8882 17.2919L11.8478 17.4364L11.8073 17.9276H11.7871V17.4566L11.8478 17.1503V16.9134L11.7871 16.6273V16.4424L11.8276 16.3817V16.4222L11.9287 16.4424L12.1743 16.5031L12.4806 16.5435L12.6858 16.6447L12.9516 16.8903L13.2175 17.2573L13.544 17.7283L13.83 18.1183L14.1161 18.5287L14.301 18.7541L14.4658 18.939L14.6709 19.0604L15.1824 19.1008H16.4509L16.7167 19.0604L16.9219 18.9794L17.0664 18.7541L17.2109 18.4275L17.4565 17.6907L17.7425 16.8123L17.8437 16.5666L17.8841 16.5262H19.2133L19.3145 16.4453L19.3954 16.2806L19.4965 15.9338L19.5774 15.8125H19.6179L19.6583 15.7316L19.9242 15.6709L20.6812 15.6506H22.6866L22.8918 15.7518L23.1981 16.0176L23.4032 16.1823L23.7298 16.5088L23.8945 16.6533L24.1603 16.8989L24.325 17.0636L24.4897 17.2081L25.0214 17.7398L25.2468 17.9247L25.4317 18.0895L25.6369 18.2339L25.6976 18.2744L25.7987 18.2542L25.8796 18.2137L25.9403 18.2542L26.0212 18.153L26.2668 17.9883L26.5731 17.7225L26.7783 17.5173L26.943 17.3728L27.229 17.0868L27.3937 16.9423L27.7838 16.5522L27.885 16.4713L27.9861 16.3499H28.0266L28.0468 16.2054L27.9254 15.9194L27.6394 15.4686L27.3937 15.0785L27.1077 14.648L26.8823 14.3214L26.6771 13.9949L26.6165 13.8735V13.7088L26.7812 13.3823L26.9256 13.261L26.9661 13.18L27.0672 13.0789L27.1279 13.0587V13.0991L27.229 13.0182L27.3302 12.8969H27.3706L27.4111 12.816H27.4515V12.7755H27.492V12.7351L27.5931 12.6339L27.7578 12.4894L27.9428 12.2641L28.0872 12.0993L28.1682 11.9982L28.4051 11.9Z" fill="#156A9C"/>
<path d="M2.42133 2.79489H2.46179V2.93937L2.40111 3.1243L2.34043 3.26878L2.27974 3.5144L2.19884 3.71956L2.0977 4.04608L1.95322 4.49686L1.83186 4.86383L1.73072 5.10945L1.62959 5.43597L1.58913 5.49665L1.54868 5.68158L1.488 5.88675L1.42732 5.96765H1.3782L1.39842 6.2335L1.33774 6.25372V6.35486L1.35797 6.25372H1.41865L1.43888 6.17281H1.4591V6.41843L1.41865 6.51956L1.39842 6.47911L1.31751 6.45888V6.53979L1.3782 6.56002V7.11193L1.39842 7.15238L1.4591 7.64361L1.49956 8.07416H1.51979L1.56024 7.82855L1.64115 7.84877L1.6816 8.01348L1.88676 9.32246L2.11215 10.6112L2.27686 11.7353L2.46179 12.6975L2.56292 12.9431L2.66406 13.0645L2.88945 13.2494L3.05415 13.3939L3.25931 13.5384L3.54538 13.7435L3.89213 13.9689L4.25911 14.2145L4.58563 14.4399L5.32248 14.9311L5.649 15.1565L6.03909 15.4021L6.32516 15.5669L6.591 15.6882L6.65169 15.7084H6.83662L6.91753 15.6275L7.18337 15.668L7.53012 15.7287L7.63125 15.6275L7.69193 16.0985L7.71216 16.3239V16.714H7.69193L7.67171 16.5695L7.63125 16.5493H7.07934L6.56789 16.5089L6.24136 16.4482L5.97552 16.347L5.75013 16.2257L5.42361 16.0003L5.05663 15.7344L4.67232 15.4397L4.46716 15.2952L4.14064 15.0698L3.73032 14.7838L3.21886 14.437L2.82877 14.1712L2.46179 13.9053L2.27686 13.7609L2.0717 13.5759L1.92722 13.4112L1.82608 13.2465L1.66137 12.6744L1.54001 12.0184V11.7121L1.51979 11.6312L1.58047 11.5706L1.60069 11.5099L1.58047 11.3654L1.56024 10.9984L1.39553 9.97551L1.33485 9.56518L1.23372 8.76766L1.19326 8.50182L1.15281 8.36023L1.11235 8.05393L1.0719 7.84877L0.970764 7.23618L0.93031 7.1755V7.09459L0.910083 6.92988L0.869629 6.90966L0.950537 6.88943L0.910083 6.8692L0.950537 6.76807L0.93031 6.68716L0.910083 6.66693V6.5658L0.93031 6.52534V6.34041L0.970764 6.32018V6.40109L1.0719 6.19593L1.13258 6.13525L1.21349 5.95032L1.27417 5.80584L1.35508 5.60068L1.41576 5.43597L1.49667 5.23081L1.55735 5.02565L1.65848 4.80026L1.67871 4.71935H1.71917L1.73939 4.59799L1.80007 4.45351L1.84053 4.28881H1.88098L1.92144 4.06342L1.94166 3.98251L1.98212 3.86115L2.08325 3.67621L2.12371 3.55485L2.22484 3.30924L2.28552 3.10408L2.32598 2.98271H2.36643L2.42133 2.79489Z" fill="#085486"/>
<path d="M29.1185 1.73151H29.4653L29.6906 1.77196L29.7311 1.73151L29.8958 1.79219L30.0605 1.8731L30.1616 1.954V1.99446L30.2426 2.03491L30.387 2.2603L30.4073 2.42501V4.55174L30.4275 4.63265L30.4477 5.26547L30.4275 5.4504L30.4477 5.55153V6.06299L30.4275 6.08322V6.47331L30.4477 6.63802L30.283 6.96454L30.0778 7.35463L29.8929 7.68116L29.6097 8.1955L29.445 8.52203L29.2399 8.91212L28.9943 9.38312L28.8931 9.60851L28.8324 9.72987V9.97549L28.8931 10.1806L28.9336 10.302L28.9133 10.6285L28.8931 11.978L28.7486 12.3449L28.6273 12.5299L28.4221 12.7957L28.0118 13.206L27.8066 13.3707L27.6015 13.5759L27.4801 13.6366L27.4599 13.677L27.5206 13.8215L27.665 14.0267L27.7864 14.2318L27.9713 14.5179L28.136 14.7433L28.3412 15.0496L28.6273 15.5408L28.792 15.8673L28.8324 16.0725V16.2372L28.7313 16.5031L28.6908 16.4424V16.2979L28.6706 16.1968L28.6504 16.0754L28.6908 15.954V15.8934H28.7313L28.6504 15.6882L28.5493 15.5668L28.4279 15.5061L28.3065 15.3212L28.1852 15.1565L28.1043 15.012L27.9598 14.8271L27.8384 14.6422L27.8182 14.541H27.7575V14.5006H27.7171V14.4572L27.6361 14.4168L27.5552 14.3561L27.5148 14.1914L27.4946 14.0903L27.4137 13.9255L27.3732 13.6597L27.4541 13.5586L27.6593 13.4141L27.8442 13.2494L27.8847 13.1685H27.9251V13.128L28.006 13.1078L28.0262 13.0067H28.0667V12.946L28.1881 12.8448L28.2285 12.7842L28.3499 12.6397L28.3903 12.5588H28.4308L28.451 12.4576L28.4712 12.3363L28.451 12.316V12.0907L28.4712 11.9057L28.2863 11.9664L28.1649 12.0271L28.0002 12.2323L27.8153 12.4374L27.7142 12.5588L27.5495 12.7235H27.509V12.7639H27.4686V12.8044L27.3876 12.8853H27.3472L27.327 12.946L27.2258 13.0471L27.1449 13.0876V13.0471L27.064 13.1078H27.0236L26.9831 13.1887L26.9224 13.2898L26.8213 13.3707L26.8617 13.2696L27.0871 13.0038L27.3732 12.6975L27.5177 12.5328L27.7633 12.3074L27.8847 12.2265L27.9656 12.1253L27.9858 12.0444L28.006 11.3683V10.4263L28.0262 9.7501L28.0667 9.46403L28.1881 9.17796L28.3932 8.78787L28.5984 8.42089L28.7197 8.1955L29.026 7.62337L29.2919 7.15236L29.6589 6.43575L29.76 6.27104L29.8409 6.0052L29.8814 5.71913L29.9016 5.43306L29.9218 4.69622V2.52903L29.8611 2.38455L29.8207 2.30364H29.8611L29.8004 2.07826L29.7195 2.05803L29.6097 1.95689L29.3439 1.85576L29.159 1.83553L29.0781 1.79508V1.75462L29.1185 1.73151Z" fill="#156A9C"/>
<path d="M2.09506 11.4694H2.13552L2.17597 11.5706L2.21642 11.5908V11.4694H2.23665L2.35801 12.1658L2.45915 12.6975L2.56028 12.9431L2.66142 13.0645L2.88681 13.2494L3.05151 13.3939L3.25667 13.5384L3.54274 13.7435L3.88949 13.9689L4.25647 14.2145L4.58299 14.4399L5.31984 14.9311L5.64636 15.1565L6.03645 15.4021L6.32252 15.5669L6.58836 15.6882L6.64905 15.7084H6.83398L6.91489 15.6275L7.18073 15.668L7.52748 15.7287L7.62861 15.6275L7.6893 16.0985L7.70952 16.3239V16.714H7.6893L7.66907 16.5695L7.62861 16.5493H7.0767L6.56525 16.5089L6.23872 16.4482L5.97288 16.347L5.74749 16.2257L5.42097 16.0003L5.054 15.7344L4.67257 15.4397L4.46741 15.2952L4.3865 15.2143L4.40673 15.1739L4.34605 15.1536L4.32582 15.0525L4.20446 14.9716L4.18134 14.908L4.10043 14.8676L4.14089 14.8473L4.30559 14.9283L4.45007 14.908L4.49053 14.8878L4.4703 14.8069L4.40962 14.7462V14.7058L4.30848 14.6653L4.26803 14.6248V14.5642L4.0831 14.5439L4.06287 14.4833L3.98196 14.5035L3.94151 14.6682L3.84037 14.6884L3.67566 14.6075L3.59476 14.5266L3.34914 14.4052L3.22778 14.385L3.12664 14.2839L2.94171 14.1192L2.75678 14.018L2.63541 13.8736H2.59496L2.53428 13.7522L2.45337 13.6713L2.43314 13.5904L2.51405 13.5499H2.59496L2.61519 13.4488V13.4083L2.59496 13.3274L2.49382 13.2263L2.4736 13.1656L2.41292 13.1858L2.33201 12.92V12.7986L2.27133 12.7784V12.7379H2.21065L2.14996 12.5935L2.10951 12.4923L2.08928 12.3276L2.04883 12.2063V12.0011L2.10951 11.8566V11.4694H2.09506Z" fill="#156A9C"/>
<path d="M28.4043 11.9H28.465V12.3103L28.4852 12.4114L28.4245 12.5559H28.3841L28.3436 12.657L28.3234 12.7177H28.2627L28.2223 12.7986L28.1616 12.8795H28.1211L28.1009 12.9402H28.0605V13.0009L28.02 13.0413L27.9998 13.102L27.9189 13.1223V13.1627H27.8784L27.838 13.2638L27.6126 13.469L27.4276 13.5904L27.3872 13.6511L27.4276 13.9169L27.5288 14.1221L27.549 14.2868L27.5692 14.3474L27.7137 14.4486V14.489H27.7542V14.5295H27.8148L27.8755 14.6508L27.9969 14.8358L28.1818 15.0814L28.2425 15.1825L28.4477 15.4686L28.6124 15.59L28.7337 15.7951L28.7135 15.9396L28.673 16.0841L28.6933 16.269L28.7135 16.3499V16.5349L28.5921 16.74L28.387 17.0059H28.3465L28.3668 16.9047L28.3465 16.844L28.202 16.9654H28.1616L28.1414 17.0261H28.1009L28.0807 17.0868L27.8351 17.1879L27.7339 17.2486H27.6733L27.6935 17.3093H27.6328L27.6126 17.3902H27.5519L27.5317 17.4711L27.3872 17.6965L27.2976 17.8323H27.2572L27.2167 17.9132L27.1156 17.9536L27.0144 18.0548H26.9537L26.9335 18.1357L26.8728 18.1761L26.8324 18.1964L26.8122 18.2773L26.7515 18.2975H26.711L26.5665 18.338L26.5463 18.2368L26.5665 18.1155L26.5059 18.075L26.5665 17.8901L26.8931 17.5635L27.0578 17.4191L27.3438 17.133L27.4045 17.0521H27.445L27.4652 16.9914L27.6299 16.8469L27.9969 16.48L28.0778 16.3355L28.098 16.191H28.0576L27.9362 15.9049L27.6501 15.4542L27.4045 15.0641L27.1185 14.6335L26.8931 14.307L26.6879 13.9805L26.6272 13.8591V13.6944L26.7919 13.3679L26.9364 13.2465L26.9769 13.1656L27.078 13.0645L27.1387 13.0442V13.0847L27.2398 13.0038L27.3409 12.8824H27.3814L27.4219 12.8015H27.4623V12.7611H27.5028V12.7206L27.6039 12.6195L27.7686 12.475L27.9535 12.2496L28.098 12.0849L28.1789 11.9838L28.4043 11.9Z" fill="#156A9C"/>
<path d="M11.7922 16.4424L11.8326 16.4626L11.8731 16.5435L11.9135 16.5637V16.6042H11.954V16.6447L12.1389 16.6851V16.7256L11.9944 16.7862L12.0349 16.9307L12.1158 16.9712L12.1967 17.1561L12.3614 17.3613V17.4017H12.4019L12.4625 17.5231L12.5695 17.6069L12.6099 17.5664L12.5695 17.4653L12.7139 17.526V17.5664L13.0809 17.6473L13.1618 17.708H13.2225L13.263 17.7687H13.3641L13.4855 17.9132V17.9739H13.5259L13.7311 18.2599L13.8958 18.4853L13.916 18.6067L13.9767 18.6269L13.9969 18.7483L14.098 18.8696V18.9101L14.179 18.9505L14.2396 19.0112V19.0517L14.3205 19.0719L14.3812 19.173L14.4824 19.2337V19.2742L14.543 19.2539L14.6442 19.2742H15.0343L15.095 19.2539H15.1556L15.1759 19.1933L15.2972 19.173H15.644L16.0543 19.1933L16.5455 19.2539H16.7911L16.9125 19.2135L17.0772 19.0921L17.2621 18.9708L17.3633 18.8899L17.424 18.7685H17.4644L17.4846 18.6674V18.4015L17.5453 18.1964L17.6262 18.0114L17.6869 17.8063L17.7071 17.7456L17.6667 17.6444L17.7071 17.5231L17.7274 17.237L17.7678 17.1157L17.788 17.0347L17.8892 17.0145L17.9296 17.0347L17.9094 17.2399L17.9296 17.3844L17.8285 17.5491V17.63L17.9296 17.6502L17.9499 17.5491L17.9701 17.4884L18.0308 17.5086L18.0105 17.6531L18.0712 17.7543L18.0308 18.0201H17.9903L18.0105 18.0605H18.051L18.0712 18.2253L18.0105 18.2859V18.4911L17.8458 18.9216L17.6609 19.3117L17.4355 19.5776L17.2506 19.6989L17.0454 19.7799L16.7189 19.8405L16.3288 19.8608H14.9591L14.3263 19.8203L14.1414 19.7596L13.9362 19.5747L13.7513 19.3695L13.4855 19.0026L13.2196 18.6125L13.0145 18.3466L12.7688 18.0201L12.6041 17.8149L12.3787 17.5491L12.1534 17.3035L12.0724 17.2428L11.9511 17.263L11.8702 17.3035L11.8297 17.448L11.7893 17.9392H11.769V17.4682L11.8297 17.1619V16.9134L11.769 16.6273V16.4424H11.7922Z" fill="#085486"/>
<path d="M29.9161 4.7598H29.9363V5.45619L29.8958 6.06878L29.8149 6.33462L29.7543 6.51955L29.3873 7.2564L29.3468 7.35753H29.3064L29.2659 7.52224H29.2255L29.2052 7.60315L28.9798 8.03369L28.8123 8.36022L28.6909 8.5856L28.5262 8.91213L28.4453 9.03349L28.425 9.15485L28.3037 9.31956L28.2835 9.50449L28.2228 9.70965L28.243 9.93504L28.2228 10.5072L28.2632 10.6517L28.3037 10.7123L28.3644 10.4465L28.3846 10.2616L28.4048 10.2211L28.5898 10.1604L28.6707 9.93504L28.7313 9.72988L28.8758 9.56517L28.9163 9.52472L28.896 9.60563L28.8354 9.72699V9.9726L28.896 10.1778L28.9365 10.2991L28.9163 10.6256L28.896 11.9751L28.7516 12.3421L28.6302 12.527L28.425 12.7928L28.0147 13.2032L27.8096 13.3679L27.6044 13.573L27.483 13.6337L27.4628 13.6742L27.5235 13.8186L27.668 14.0238L27.7893 14.229L27.9743 14.515L28.139 14.7404L28.3441 15.0467L28.6302 15.5379L28.7949 15.8645L28.8354 16.0696V16.2343L28.7342 16.5002L28.6938 16.4395V16.295L28.6736 16.1939L28.6533 16.0725L28.6938 15.9512V15.8905H28.7342L28.6533 15.6853L28.5522 15.5639L28.4308 15.5033L28.3095 15.3183L28.1881 15.1536L28.1072 15.0091L27.9627 14.8242L27.8414 14.6393L27.8211 14.5381H27.7604V14.4977H27.72V14.4572L27.6391 14.4168L27.5582 14.3561L27.5177 14.1914L27.4975 14.0903L27.4166 13.9256L27.3761 13.6597L27.457 13.5586L27.6622 13.4141L27.8471 13.2494L27.8876 13.1685H27.928V13.128L28.0089 13.1078L28.0292 13.0067H28.0696V12.946L28.191 12.8448L28.2314 12.7842L28.3528 12.6397L28.3933 12.5588H28.4337L28.4539 12.4576L28.4742 12.3363L28.4539 12.3161V12.0907L28.4742 11.9057L28.2892 11.9664L28.1679 12.0271L28.0032 12.2323L27.8182 12.4374L27.7171 12.5588L27.5524 12.7235H27.5119V12.7639H27.4715V12.8044L27.3906 12.8853H27.3501L27.3299 12.946L27.2288 13.0471L27.1479 13.0876V13.0471L27.0669 13.1078H27.0265L26.986 13.1887L26.9254 13.2898L26.8242 13.3708L26.8647 13.2696L27.0901 13.0038L27.3761 12.6975L27.5206 12.5328L27.7662 12.3074L27.8876 12.2265L27.9685 12.1253L27.9887 12.0444L28.0089 11.3683V10.4263L28.0292 9.75011L28.0696 9.46404L28.191 9.17797L28.3962 8.78788L28.6013 8.4209L28.7227 8.19551L29.029 7.62337L29.2948 7.15237L29.6618 6.43575L29.7629 6.27105L29.8438 6.00521L29.8843 5.71914L29.9045 5.43307L29.9161 4.7598Z" fill="#438CB2"/>
<path d="M20.6491 15.6449H22.6949L22.9001 15.746L23.2064 16.0118L23.4115 16.1766L23.738 16.5031L23.9027 16.6476L24.1686 16.8932L24.3333 17.0579L24.498 17.2024L25.0297 17.734L25.2551 17.919L25.44 18.0837L25.6452 18.2282L25.7058 18.2686L25.807 18.2484L25.8879 18.2079L25.9486 18.2484L26.0295 18.1472L26.2751 17.9825L26.5814 17.7167L26.7865 17.5115L26.9513 17.3671L27.2373 17.081L27.402 16.9365L27.7921 16.5464L27.8933 16.4655L27.9944 16.3441H28.0348L28.0753 16.1997L28.1158 16.2401L28.0955 16.3413L28.0146 16.4857L27.6245 16.8758L27.4598 17.0203L27.4396 17.0608H27.3991L27.3587 17.1417L27.298 17.1995H27.2575L27.2171 17.2804L26.931 17.5664L26.7663 17.7109L26.5612 17.9161L26.46 17.9565V17.9161L26.3155 18.0374L26.2953 18.1183L26.0092 18.2831L25.9486 18.3235L25.7232 18.3437V18.4246L25.6423 18.4449L25.5411 18.3842H25.4805L25.3793 18.2628L25.3186 18.2426V18.2021L25.2175 18.1819L25.0528 18.0172L24.9719 17.9565V17.9161L24.891 17.8756L24.7898 17.7745L24.6685 17.6936L24.5789 17.6069V17.5462L24.5182 17.526L24.4373 17.4451V17.4046L24.3766 17.3844L24.3564 17.3439L24.2957 17.3237V17.2601L24.2148 17.2197V17.1792L24.1137 17.159L24.0732 17.0781L23.9519 16.9972L23.7669 16.8527L23.6658 16.7516V16.7111L23.6051 16.6909V16.6504L23.5242 16.6302L23.3393 16.5089V16.4684H23.2988L23.2179 16.3673L23.0532 16.2228V16.1823L22.9521 16.1419L22.8307 16.0812V16.0407L22.4637 16.0003L22.2586 16.0205H22.0939L22.0534 16.0003H21.2559L21.0912 16.0205L20.7849 16.0003L20.6404 15.9801L20.4757 16.0003L20.2705 16.0205H20.1261L19.9816 16.0003L19.8804 16.0407H19.736V16.0812H19.6955V16.1216L19.551 16.1823L19.4297 16.4684L19.3892 16.5898L19.2447 16.6909L18.8344 16.7314H18.6697L18.609 16.6909L18.2421 16.6707L18.0513 16.688L17.8866 16.8094H17.8259L17.7855 16.9105L17.7248 17.0954L17.7046 17.1157L17.6641 17.3006L17.4994 17.7514L17.4387 17.9363L17.3983 18.0808L17.2769 18.4478L17.2567 18.5922L17.196 18.7569L17.0949 19.0228L17.014 19.0632V19.1037L16.9533 19.1442L16.7279 19.1846L14.9884 19.1644L14.9682 19.1442H14.8034L14.7225 19.1846L14.5578 19.1037L14.4365 19.0228L14.2718 18.7974V18.7569L14.2111 18.7367V18.6963L14.1302 18.6558L13.9048 18.3293L13.925 18.2686L14.0059 18.3495L14.1909 18.6154L14.4567 18.9217L14.6821 19.0661L15.1935 19.1066H16.4621L16.7279 19.0661L16.9331 18.9852L17.0775 18.7598L17.222 18.4333L17.4676 17.6965L17.7537 16.818L17.8548 16.5724L17.8953 16.532H19.2245L19.3256 16.4511L19.4066 16.2864L19.5077 15.9396L19.5886 15.8182H19.629L19.6695 15.7373L19.9353 15.6767L20.6491 15.6449Z" fill="#438CB2"/>
<path d="M19.034 2.22275L19.1149 2.24298L19.1756 2.36434H19.2565L19.2768 2.2632L19.3172 2.24298L19.4386 2.34411L19.5397 2.44525H19.6611L19.7218 2.40479L19.9471 2.36434L19.9876 2.34411H20.213L20.2737 2.32388L20.4586 2.36434L20.6638 2.40479L20.8082 2.38456L21.0943 2.44525L21.1145 2.50593L21.2792 2.54638L21.4844 2.64752H21.5249V2.68797L21.6896 2.72842L21.7907 2.78911V2.82956L21.8918 2.84979V2.89024L21.9727 2.9307L21.993 3.01161L22.0941 3.03183L22.175 3.09251V3.15319L22.2357 3.17342L22.2559 3.25433H22.2964V3.31501H22.3773V3.37569L22.4582 3.41615L22.6027 3.56063L22.6431 3.58085V3.62131H22.6836L22.7443 3.74267L22.7847 3.7629L22.8454 3.90738L22.8656 3.98828H22.9061L22.9263 4.04897L23.0477 4.1501L23.1083 4.23101L23.1286 4.37549L23.169 4.41594L23.1893 4.49685L23.2499 4.55753V4.59799H23.2904L23.3713 4.78292L23.432 4.86383L23.4118 4.92451H23.3511L23.3713 4.98519H23.2702L22.8194 4.53441L22.6749 4.36971L22.3484 4.04319L22.2039 3.87848L21.9178 3.59241L21.7734 3.4277L21.5277 3.16186L21.4468 3.06073L21.2619 3.00005L20.7909 2.95959H20.5048L19.4212 3.02027H19.0947L19.0138 3.00005L18.9531 2.77466V2.32388H18.9936L19.034 2.22275Z" fill="#156A9C"/>
<path d="M28.1797 1.83551H28.3242L28.304 1.91642L28.2231 1.9771H28.1624L28.1422 2.07824L28.0815 2.09846L28.041 2.13892L27.8561 2.24005L27.7954 2.34119L27.7752 2.38164L27.9601 2.32096L28.1248 2.30073L28.2057 2.28051V2.32096L27.8994 2.48567L27.5325 2.73128L27.1221 3.01735L26.7321 3.26297L25.7496 3.9189L25.4231 4.14429L24.7267 4.61529L24.3366 4.90136L24.0707 5.06606L23.9898 5.04584V4.98516L24.0707 4.90425L24.1314 4.80311L24.2123 4.70198H23.9263V4.66152L24.0072 4.6413V4.60084L24.2326 4.45636L24.2932 4.41591V4.22809L24.3944 4.12695L24.7411 3.88134L25.0474 3.67618L25.4375 3.41033L25.6022 3.28897H25.6427V3.24563L25.7872 3.16472L25.9519 3.06358L26.0328 3.04336L26.1339 3.02313H26.1744L26.3593 2.94222L26.4604 2.90177L26.6454 2.80063L26.7263 2.73995H26.787L26.8072 2.6995L27.0326 2.57813L27.1771 2.477L27.3215 2.39609L27.4227 2.31518L27.544 2.2545H27.5845L27.6047 2.19382L27.8705 2.00889H27.9515V1.96843L28.1797 1.83551Z" fill="#166B9C"/>
<path d="M11.8125 16.3788L11.8327 16.4192L11.9339 16.4395L12.1795 16.5001L12.4858 16.5406L12.6909 16.6417L12.9568 16.8874L13.2226 17.2543L13.5491 17.7253L13.8352 18.1154L13.9161 18.2368L13.9363 18.3379L14.1415 18.6442L14.2629 18.7454L14.4276 18.9707V19.0112L14.5287 19.0516L14.6096 19.1123L14.731 19.1528L14.7917 19.1123H14.9564L15.0575 19.1326H15.2829L15.569 19.1528L15.5083 19.1932H15.3031L15.1818 19.2135L15.1615 19.2539L15.0402 19.2944H14.5894L14.4883 19.2741L14.468 19.2337L14.3669 19.173L14.3062 19.0719L14.2455 19.0516V19.0112L14.1848 18.991L14.0404 18.8263L13.9595 18.6818L13.9797 18.6211L13.8988 18.6009L13.8583 18.4564L13.7138 18.2512L13.5289 18.0056V17.9652H13.4885L13.4278 17.8727L13.4075 17.812L13.2631 17.7918L13.2024 17.7311L13.1013 17.6907L12.9799 17.6502L12.7747 17.5895L12.714 17.5693L12.6736 17.5288L12.5927 17.5086L12.6331 17.5895H12.5898L12.5696 17.63L12.5089 17.5895V17.5491L12.4482 17.5288L12.4078 17.4075H12.3673L12.2864 17.2861L12.2662 17.2254L12.2055 17.2052L12.1246 17.0203L12.0234 16.8989L11.983 16.7978L12.1043 16.7371H12.1448V16.6966L11.9599 16.6562V16.6157H11.9194V16.5753L11.8385 16.5348L11.8125 16.3788Z" fill="#156A9C"/>
<path d="M28.1587 15.9107L28.2598 15.9309V15.9916H28.3205L28.4014 16.217L28.4621 16.5233L28.4217 16.6446L28.4014 16.7255L28.5459 16.6851H28.5864L28.5661 16.766L28.3812 17.0116H28.3407L28.361 16.9105L28.3407 16.8498L28.1963 16.9712H28.1558L28.1356 17.0318H28.0951L28.0749 17.0925L27.8293 17.1937L27.7282 17.2543H27.6675L27.6877 17.315H27.627L27.6068 17.3959H27.5461L27.5259 17.4768L27.3814 17.7022L27.2976 17.8322H27.2572L27.2167 17.9132L27.1156 17.9536L27.0144 18.0547H26.9537L26.9335 18.1357L26.8728 18.1761L26.8324 18.1963L26.8122 18.2772L26.7515 18.2975H26.711L26.5665 18.3379L26.5463 18.2368L26.5665 18.1154L26.5059 18.075L26.5665 17.89L26.8931 17.5635L27.0578 17.419L27.3438 17.133L27.4045 17.0521H27.445L27.4652 16.9914L27.6299 16.8469L28.1009 16.3759L28.1616 16.2112V15.9858V15.9107H28.1587Z" fill="#085486"/>
<path d="M21.692 16.1563H21.8769L22.2439 16.217L22.449 16.2574L22.4895 16.2979L22.7756 16.3788L22.8969 16.4597L22.9981 16.5609L23.1194 16.662L23.2206 16.7834L23.2812 16.8036V16.844L23.3621 16.8643V16.9047L23.4633 16.9249V16.9654L23.5644 16.9856L23.8505 17.1301V17.1706H23.8909L23.9921 17.3353V17.3757L24.0932 17.4162L24.1741 17.5173L24.2348 17.578L24.255 17.6589H24.2955L24.3562 17.7803V17.8207H24.3966V17.8612H24.4371L24.518 17.9825L24.6191 18.0837L24.8445 18.2888L24.9052 18.309L24.9861 18.39L25.1075 18.4506L25.1479 18.5315V18.6327L25.1884 18.7136V18.7945L25.2693 18.835V18.8754L25.1681 18.835L24.8821 18.6298L24.6769 18.4449L24.5122 18.3004L24.2464 18.0548L24.0817 17.9103V17.8698L24.0007 17.8294L23.654 17.4826L23.4893 17.3381L23.2032 17.0723L22.7524 16.7053L22.608 16.5406L22.4433 16.4395L22.2988 16.399V16.3586H21.7873L21.5417 16.3181L21.5215 16.2574L21.5417 16.1968L21.692 16.1563Z" fill="#0D5384"/>
<path d="M27.4229 12.9229H27.4836V13.0038L27.5241 13.024L27.5443 13.1252L27.4432 13.2899L27.3623 13.4343L27.2409 13.6193L27.2004 13.7204V13.9458L27.2611 14.0903H27.3623L27.4229 14.3157H27.4634L27.5038 14.541H27.5443L27.5645 14.622H27.605L27.6859 14.7664L27.7466 14.9109L27.787 15.1161L27.7668 15.1565L27.6859 15.1768V15.1363H27.6454L27.501 14.9716V14.9109L27.4403 14.8907V14.8502L27.3796 14.8907L27.4807 15.0756V15.1363L27.42 15.1161L27.2756 14.8907L27.0704 14.5844L26.8046 14.1943L26.6399 13.9082L26.6196 13.8678V13.7031L26.7005 13.5384L26.7814 13.4979L26.8017 13.4575L26.9028 13.3968L27.1889 13.1107L27.3738 12.9893L27.4143 12.9691V12.9229H27.4229Z" fill="#085486"/>
<path d="M0.907696 6.37506H0.927924L0.948151 6.53977L0.927924 6.55999V6.66113L0.968378 6.70158L0.948151 6.84606L0.927924 6.92697V6.98765L0.968378 7.15236V7.21304L1.00883 7.3344L1.10997 7.96722L1.19088 8.45845L1.23133 8.64338L1.29201 9.09416L1.35269 9.56516L1.41337 9.97548L1.57808 10.9984L1.59831 11.3654L1.61853 11.5301L1.59831 11.611L1.53762 11.6514L1.55785 11.8364L1.5174 11.9173L1.2111 10.0159L1.0464 9.03348L0.861462 7.7245L0.821008 7.35752L0.800781 6.82584L0.861462 6.39529L0.907696 6.37506Z" fill="#156A9C"/>
<path d="M2.42197 12.5761H2.4422L2.48265 12.761L2.56356 12.946L2.66469 13.0673L2.89008 13.2523L3.05479 13.3968L3.25995 13.5412L3.54602 13.7464L3.89277 13.9718L4.25974 14.2174L4.58627 14.4428L5.32311 14.934L5.64963 15.1594L6.03973 15.405L6.3258 15.5697L6.59164 15.6911L6.65232 15.7113H6.83725L6.91816 15.6304L7.184 15.6709L7.53075 15.7315L7.63189 15.6304L7.61166 15.7749L7.46718 15.8153H7.24179L7.03663 15.8356L6.9355 15.876L6.87482 15.9569L6.5483 16.0581L6.30268 15.9772L6.03684 15.8124L5.9357 15.668V15.6275L5.87502 15.6073L5.79411 15.5062V15.4657L5.7132 15.4252L5.59184 15.3443L5.51093 15.2634V15.223L5.43003 15.2027L5.34912 15.1218V15.0814L5.26821 15.0612V15.0207L5.1873 14.9802L4.98214 14.8589V14.804L4.83766 14.7635V14.7231L4.75675 14.6826L4.61227 14.5815L4.6325 14.5208L4.57182 14.541L4.51114 14.4399L4.38978 14.359L3.97945 14.0931L3.83498 14.0729L3.77429 13.992V13.9516L3.6905 13.966L3.60959 13.9255V13.8649L3.40443 13.7002L3.25995 13.6193H3.17904L2.97388 13.5181L2.70804 13.2927L2.54333 13.1482L2.39885 12.9633L2.3584 12.7986L2.39885 12.7177L2.42197 12.5761Z" fill="#448DB4"/>
<path d="M30.0408 2.75443L30.142 2.81511L30.2229 3.14163L30.246 3.73688V5.02564L30.2258 5.49664L30.2055 5.68157L30.2258 5.72203L30.1651 5.92719H30.1044L30.0437 5.68157L30.0235 5.62089H29.983L29.9628 5.58044L29.9426 5.39551L29.9224 4.69912L29.9426 4.65866L29.9628 3.30923L29.983 2.79777L30.0408 2.75443Z" fill="#085486"/>
<path d="M12.8765 17.9969H12.9371L13.0585 18.1414L13.1596 18.2426L13.2608 18.4073V18.4477H13.3012L13.4457 18.6529L13.5064 18.754L13.5671 18.8985L13.6682 18.9794L13.7491 19.1008L13.9341 19.3464L14.0785 19.4071L14.2432 19.4273L14.4079 19.5082L14.694 19.5891L14.8992 19.67L15.3297 19.6902H15.8816L16.3122 19.7105H16.7225L16.867 19.7307L17.0115 19.7105L17.1328 19.7307L17.0721 19.7712L16.7456 19.8318L16.3555 19.8521H14.9859L14.353 19.8116L14.1681 19.7509L13.9629 19.566L13.778 19.3608L13.5526 19.0545L13.5324 18.9534L13.307 18.6269L13.2463 18.546L13.2059 18.3813L13.1452 18.361L13.0441 18.1761L12.9429 18.075L12.8765 17.9969Z" fill="#146A9C"/>
<path d="M14.9826 1.1796H16.884L17.2105 1.19982L17.4764 1.24028V1.2605L17.8231 1.28073V1.30096L17.2307 1.32118L15.6559 1.34141H8.06787V1.32118L12.5265 1.30096L12.7317 1.32118V1.28073L12.9368 1.2605L13.2633 1.24028L14.2458 1.19982L14.9826 1.1796Z" fill="#0E5587"/>
<path d="M20.0567 16.4626H20.1174L20.0971 16.5435L19.9758 16.7082L19.8313 16.9336L19.6868 17.0549L19.4412 17.1561L19.1147 17.2572L19.0338 17.2774H18.7275V17.133H18.687V17.0521L18.7881 16.9914L18.8286 16.9307H18.8691L18.8488 16.8498L18.8286 16.8093L18.9095 16.7689L19.1754 16.7487L19.3805 16.688L19.6868 16.6071L19.8313 16.5666L19.9527 16.5464V16.5059L20.0567 16.4626Z" fill="#0E5587"/>
<path d="M6.63494 22.2504L6.7563 22.2707L6.79676 22.2504L7.10305 22.3516L7.55383 22.4729L7.71853 22.5741L7.79944 22.6954L7.77921 22.8804L7.69831 22.9006L7.6174 22.8601L7.39201 22.7157V22.655L7.33133 22.6752L7.27065 22.655L7.25042 22.7157L7.16951 22.7561L7.10883 22.7966L7.16951 22.837L7.06838 22.8572L6.9239 22.8168L6.75919 22.7359L6.63783 22.5509L6.57715 22.366V22.2649L6.63494 22.2504Z" fill="#146A9C"/>
<path d="M17.6642 17.1157H17.6844V17.2601L17.563 17.5664L17.4417 17.9334L17.4012 18.0779L17.2799 18.4449L17.2596 18.5893L17.199 18.7541L17.0978 19.0199L17.0169 19.0604V19.1008L16.9562 19.1413L16.7308 19.1817L14.9913 19.1615L14.9711 19.1413H14.8064L14.7255 19.1817L14.5608 19.1008L14.4394 19.0199L14.2747 18.7945V18.7541L14.214 18.7338V18.6934L14.1331 18.6529L13.9077 18.3264L13.9279 18.2657L14.0088 18.3466L14.1938 18.6125L14.4596 18.9188L14.685 19.0632L15.1965 19.1037H16.465L16.7308 19.0632L16.936 18.9823L17.0805 18.7569L17.225 18.4304L17.6555 17.1417L17.6642 17.1157Z" fill="#448DB4"/>
<path d="M7.61737 15.7055L7.65782 15.7257L7.7185 16.3181V16.7082H7.69828L7.67805 16.5637L7.63759 16.5435L7.31107 16.5233L7.37175 16.4828H7.51623L7.4151 16.217V16.1332L7.35442 16.1129L7.33419 16.0725L7.21283 16.032L6.98744 15.9713L6.92676 15.9309L6.94698 15.85L7.04812 15.8095L7.39487 15.7893L7.62026 15.7691V15.7055H7.61737Z" fill="#085486"/>
<path d="M0.847054 6.49933H0.867281V7.29685L0.887508 7.33731L0.907735 7.54247L0.887508 7.60315H0.927963L0.968417 7.72451L0.94819 7.76497H0.988644V7.80542H0.94819L0.988644 7.8661L1.00887 8.13194V8.43824L1.08978 8.96992L1.17069 9.17508V9.23576H1.21114L1.17069 9.13463L1.19092 8.99015H1.21114L1.2516 9.25599L1.29205 9.37735V9.7241L1.2516 9.70388V9.90904L1.27182 10.094L1.4163 10.9724V11.1371H1.39608L1.04933 9.0306L0.864392 7.72162L0.823938 7.35465L0.803711 6.82296L0.847054 6.49933Z" fill="#438CB2"/>
<path d="M2.42197 12.5761H2.4422L2.48265 12.761L2.56356 12.946L2.66469 13.0673L2.89008 13.2523L3.05479 13.3968L3.25995 13.5412L3.54602 13.7464L3.89277 13.9718L4.25974 14.2174L4.36088 14.3185L4.25974 14.2781L3.97368 14.0931L3.8292 14.0729L3.76852 13.992V13.9516L3.6905 13.966L3.60959 13.9255V13.8649L3.40443 13.7002L3.25995 13.6193H3.17904L2.97388 13.5181L2.70804 13.2927L2.54333 13.1482L2.39885 12.9633L2.3584 12.7986L2.39885 12.7177L2.42197 12.5761Z" fill="#438CB2"/>
<path d="M11.8125 16.3788L11.8327 16.4192L11.9339 16.4395L12.1795 16.5001L12.4858 16.5406L12.6909 16.6417L12.9568 16.8874L13.1417 17.133L13.1013 17.2139L13.0001 17.1734L12.8354 17.0087L12.7343 16.8874L12.5898 16.766L12.4453 16.7053L12.3644 16.6851L12.139 16.7053L11.9541 16.6446V16.6042H11.9136V16.5637L11.8327 16.5233L11.8125 16.3788Z" fill="#438CB2"/>
<path d="M2.17617 22.21L2.21662 22.2302L2.17617 22.2706L2.09526 22.2909L2.13571 22.392L2.0548 22.4729L1.9739 22.5134L1.68783 22.5336L1.60692 22.4931L1.54624 22.5943H1.48556H1.4451L1.46533 22.655L1.38442 22.7156L1.28329 22.7965L1.11858 22.8168L1.07812 22.7359L1.09835 22.6347L1.30351 22.4903L1.60981 22.3689L2.06058 22.2475L2.17617 22.21Z" fill="#186C9D"/>
<path d="M2.60642 1.6506L2.62665 1.73151L2.54574 1.93667L2.48506 2.16206L2.4446 2.18229L2.46483 2.24297L2.40415 2.36433L2.34347 2.60995L2.28279 2.71108L2.24233 2.83244H2.20188L2.18165 2.93358L2.06029 3.2601L1.97938 3.46526L1.95915 3.5664L1.9187 3.64731L1.81756 3.89292L1.75688 4.0374H1.7251L1.74532 3.87269L2.03139 3.0954L2.33769 2.27764L2.56308 1.68528L2.60642 1.6506Z" fill="#105789"/>
<path d="M14.2253 19.7134L14.4507 19.7538L14.6559 19.7741L14.9217 19.7943H16.9068V19.8145L16.7421 19.8347L16.352 19.855H14.9824L14.3496 19.8145L14.2051 19.7741L14.2253 19.7134Z" fill="#448DB4"/>
<path d="M3.25988 1.63037L3.2801 1.67083L3.19919 1.85576L3.15874 1.95689V2.10137L3.11829 2.22274L3.13851 2.30364L3.01715 2.65039L2.9767 2.56949V2.52903L2.91602 2.5088V2.40767H2.95647L2.9767 2.22274L3.05761 1.93667L3.13851 1.77196V1.75173L3.15874 1.71128H3.19919L3.21942 1.6506L3.25988 1.63037Z" fill="#438CB2"/>
<path d="M26.0934 18.8147H26.2147L26.2552 18.8956L26.0905 18.9765H25.9893L25.9287 19.0372L25.6426 19.0575L25.6224 18.9968L25.397 18.9563V18.9361L25.5819 18.8956L26.0731 18.835L26.0934 18.8147Z" fill="#438CB2"/>
<path d="M6.47269 16.3586L6.73853 16.399L6.85989 16.4192V16.4597H6.90035L6.92057 16.4192L6.98125 16.4597L7.49271 16.5204V16.5406H7.08239L6.57093 16.5001L6.24441 16.4395L6.12305 16.399V16.3788H6.40912L6.47269 16.3586Z" fill="#448DB4"/>
<path d="M1.29457 7.39798H1.3148L1.33502 7.49911V8.42089V8.48157V8.52203L1.25411 8.48157L1.23389 7.76496V7.53957L1.27434 7.45866L1.25411 7.41821L1.29457 7.39798Z" fill="#156A9C"/>
<path d="M17.7652 18.6298H17.8663L17.9472 18.65L17.927 18.7512L17.7825 19.0979L17.7218 19.1788L17.6611 19.0141L17.6814 18.8494L17.7218 18.7887H17.7623L17.742 18.7078L17.7652 18.6298Z" fill="#176B9D"/>
<path d="M21.5913 3.18497H21.6317L21.7329 3.30633L21.7935 3.34678V3.38724L21.8744 3.42769L21.9351 3.48837L22.0796 3.56928V3.60974L22.1403 3.62996L22.1807 3.75133L22.3252 3.91603L22.4697 4.06051L22.4899 4.12119L22.409 4.10096L22.1836 3.85535L21.938 3.60974L21.7935 3.44503L21.5884 3.21964V3.18497H21.5913Z" fill="#0D588A"/>
<path d="M21.3658 16.4019H22.1836L22.1431 16.4424L22.0825 16.4626H21.3658L20.8746 16.4828H20.3632L20.1782 16.4626V16.4424L21.3658 16.4019Z" fill="#448DB4"/>
<path d="M28.7313 15.8269H28.7718L28.8324 16.0725V16.2372L28.7313 16.503L28.6908 16.4424V16.2979L28.6706 16.1967L28.6504 16.0754L28.6908 15.954V15.8933H28.7313V15.8269Z" fill="#448DB4"/>
<path d="M3.71021 25.2585L3.89514 25.3596L4.1003 25.5648V25.6053L4.14076 25.6255L4.12053 25.6862L4.01939 25.6457L3.77378 25.4203L3.69287 25.3192L3.71021 25.2585Z" fill="#15699B"/>
<path d="M2.09496 3.02023L2.11519 3.08091L2.03428 3.32653L1.9736 3.47101L1.95338 3.57214L1.91292 3.65305L1.81178 3.89867L1.7511 4.04315H1.7251L1.74532 3.87844L2.03139 3.10114L2.05162 3.04046L2.09496 3.02023Z" fill="#135A8B"/>
<path d="M18.7478 1.22006H18.8489V1.3212V1.40211L18.7478 1.36165L18.5426 1.3212L18.2363 1.30097L18.297 1.26052L18.5629 1.24029L18.664 1.26052L18.7478 1.22006Z" fill="#145B8C"/>
<path d="M1.17374 5.55734L1.19397 5.61802L1.13329 5.78273L1.09284 6.02834L1.05238 6.14971L0.991699 6.12948L1.01193 5.94455L1.13329 5.5978L1.17374 5.55734Z" fill="#12598A"/>
<path d="M1.68505 6.02832H1.70527V6.23348L1.64459 6.35484L1.58391 6.41552L1.54346 6.3953V6.29416L1.60414 6.14968L1.62437 6.06877L1.68505 6.02832Z" fill="#0D588A"/>
<path d="M0.846606 6.49933H0.866833V7.29685L0.88706 7.33731L0.907287 7.54247L0.866833 7.60315L0.846606 7.58292L0.806152 6.97033L0.826379 6.64381L0.846606 6.49933Z" fill="#448DB4"/>
<path d="M24.5998 4.45352L24.6604 4.47375L24.62 4.55466L24.3946 4.71936H24.3541L24.3339 4.78004L24.2935 4.75982L24.3137 4.67891L24.4582 4.55755L24.5593 4.47664L24.5998 4.45352Z" fill="#448DB4"/>
<path d="M26.6452 13.6192L26.6857 13.7001L26.7464 13.7204L26.7059 13.7608L26.7868 13.8013L26.7666 13.8417L26.7261 13.8215L26.7464 13.9226H26.7059L26.6857 13.9631L26.625 13.8417V13.677L26.6452 13.6192Z" fill="#1D71A1"/>
<path d="M17.4184 19.3869L17.5398 19.4476L17.4994 19.5285L17.4387 19.5689L17.378 19.5285H17.2769L17.2971 19.4678L17.4184 19.3869Z" fill="#196B9C"/>
<path d="M7.63721 22.6607H7.78169L7.80191 22.7012V22.8226L7.76146 22.8428L7.66032 22.7821L7.63721 22.6607Z" fill="#448DB4"/>
<path d="M11.8537 17.3411L11.8739 17.4017L11.8537 17.4422L11.8132 17.9334H11.793V17.4624L11.8334 17.3613L11.8537 17.3411Z" fill="#206997"/>
<path d="M1.74567 5.88385H1.78612L1.76589 6.06878L1.72544 6.16992H1.70521L1.68499 6.04856L1.64453 6.02833V5.98788H1.68499L1.72544 5.90697L1.74567 5.88385Z" fill="#166191"/>
<path d="M18.9531 2.83533H18.9935L19.034 3.02026L19.1554 3.04049V3.06071H18.9906L18.9502 3.04049V2.83533H18.9531Z" fill="#448DB4"/>
<path d="M1.45947 11.4088H1.4797L1.49993 11.6139L1.56061 11.6341V11.715L1.54038 11.9202H1.52015L1.45947 11.5301V11.4088Z" fill="#307EAA"/>
<path d="M18.4622 1.2403H18.5633L18.6644 1.28075V1.30098H18.2339L18.2946 1.26052L18.4622 1.2403Z" fill="#085486"/>
<path d="M1.56395 4.45352L1.58418 4.5142L1.46282 4.86095L1.42236 4.88118L1.44259 4.7367L1.54373 4.47086L1.56395 4.45352Z" fill="#175E8E"/>
<path d="M1.84935 3.67618L1.86958 3.73686L1.74821 4.04316H1.7251L1.74532 3.87845L1.82623 3.69351L1.84935 3.67618Z" fill="#135D8E"/>
<path d="M13.3477 18.7338L13.4286 18.7743L13.573 18.9997H13.5124L13.3477 18.7541V18.7338Z" fill="#155D8D"/>
<path d="M27.85 16.6244V16.6851L27.6044 16.9307L27.564 16.9105L27.6853 16.766L27.85 16.6244Z" fill="#156A9C"/>
<path d="M4.42725 15.2143L4.61218 15.3154V15.3559L4.67286 15.3761L4.65263 15.4166L4.4677 15.2952L4.42725 15.2143Z" fill="#175E8E"/>
<path d="M1.1734 5.55734L1.19363 5.61802L1.13295 5.78273L1.07227 5.80296L1.13295 5.5978L1.1734 5.55734Z" fill="#165E90"/>
<path d="M1.70486 4.06339L1.72509 4.12407L1.64418 4.32923L1.60372 4.41014L1.5835 4.34945L1.66441 4.10384L1.70486 4.06339Z" fill="#155F90"/>
<path d="M2.72781 1.32407L2.74804 1.36452L2.66713 1.61013L2.60645 1.63036L2.62667 1.52923L2.72781 1.32407Z" fill="#156090"/>
<path d="M18.0921 18.179L18.1124 18.2397L18.0517 18.4246L18.0112 18.3437L18.0315 18.2426L18.0921 18.2224V18.179Z" fill="#2575A4"/>
<path d="M26.9916 13.1078V13.1685L26.9107 13.2898L26.8096 13.3707L26.85 13.2696L26.9916 13.1078Z" fill="#448DB4"/>
</svg>
