<svg width="39" height="34" viewBox="0 0 39 34" fill="none" xmlns="http://www.w3.org/2000/svg">
<path d="M20.9321 8.80533H21.8286L21.9692 8.83304L22.0384 8.88845L22.0661 8.95772L22.08 9.05668L22.1077 9.84043V9.99481H22.2482L22.8934 9.95324L23.1883 9.93939H23.3843L23.7069 9.9671L23.8335 10.0087L23.9879 10.1769L24.0869 10.2897L24.2967 10.5133L24.451 10.6677L24.55 10.7805L24.7736 11.0042L24.8726 11.117L25.0824 11.3268L25.2506 11.4257L25.3337 11.4396H25.3753V11.4673L25.4584 11.4535L25.7098 11.3129L25.9057 11.1724L26.1571 10.9903L26.4935 10.7667L26.7607 10.5846L26.9705 10.4441L27.588 10.0383L27.8394 9.87012L28.1204 9.67418L28.3876 9.51981L28.5697 9.43668L28.7656 9.39512H29.0467L29.298 9.42283L29.494 9.47825L29.5632 9.51981L29.6186 9.58908L29.6325 9.6445V11.1724L29.6186 11.6355L29.5909 11.9304L29.5494 12.1264L29.494 12.253L29.3257 12.5756L29.1159 12.9675L28.9339 13.2901L28.7518 13.6266L28.639 13.8364L28.4984 14.0877L28.3718 14.3549L28.3441 14.4677L28.3302 14.5944L28.3164 15.0575V15.7027L28.3025 16.1658L28.2609 16.2648L28.162 16.3479L28.0076 16.4746L27.8948 16.5874L27.7958 16.7002L27.6692 16.8407L27.5286 17.009L27.3881 17.2603L27.3743 17.3019V17.4147L27.4732 17.5968L27.6553 17.864L27.8235 18.1153L27.9779 18.3528L28.1739 18.6616L28.3005 18.8714L28.3559 19.0119L28.3421 19.0812L28.2728 19.1504L28.1897 19.2494L28.0769 19.3483L27.8097 19.6155L27.6969 19.7145L27.5009 19.9104L27.3881 20.0094L27.2753 20.1222L27.1209 20.2489L26.925 20.3894L26.8834 20.431L26.8419 20.4032L26.7865 20.4448L26.7033 20.431L26.5767 20.332L26.4361 20.2192L26.2956 20.0925L26.1828 19.9936L25.8186 19.6294L25.7058 19.5304L25.5653 19.3899L25.4525 19.291L25.2704 19.1227L25.1576 19.0238V18.9961L25.1022 18.9683L24.9617 18.8417L24.8073 18.715L24.6668 18.6457H23.2655L22.7747 18.6596L22.5926 18.7012L22.5095 18.8001L22.4402 18.9961L22.3986 19.1227L22.3432 19.2058L22.2878 19.2474H21.3774L21.322 19.3602L20.9855 20.3696L20.9024 20.6071L20.7896 20.8307L20.7065 20.9436L20.5382 20.999L20.3977 21.0128H19.5289L19.1785 20.9851L19.0242 20.8862L18.8698 20.7179L18.7154 20.5081L18.5472 20.2706L18.3512 20.0035L18.1969 19.7798L18.0286 19.5423L17.8881 19.3879L17.7476 19.289L17.6209 19.2474L17.3834 19.2197L17.2291 19.1643L17.2152 19.1366V18.9129L17.2568 18.6457L17.326 18.5329L17.425 18.4498L17.5932 18.3805L17.7199 18.339L17.8466 18.3113L18.0009 18.1985L18.0564 18.1292L18.0841 18.0461L17.9574 17.864L17.8307 17.7235L17.7318 17.6106L17.5081 17.3731L17.0885 16.9536L16.9757 16.8546L16.7936 16.6864L16.57 16.4627L16.4572 16.3638L16.2197 16.1401L15.996 15.9857L15.8832 15.9165H15.7328L15.5507 16.0293L15.3548 16.1975L15.2004 16.338L15.0876 16.437L14.864 16.6606L14.7511 16.7596L14.6106 16.9001L14.4978 16.9991L14.3296 17.1535L13.8387 17.6443L13.7398 17.7571L13.5755 17.9293L13.4924 18.056L13.5062 18.1391L13.6329 18.2222L13.8011 18.3053L13.9832 18.333L14.2643 18.432L14.3474 18.4874L14.3612 18.5013V18.6141L14.3197 18.6834L14.2781 18.6972L14.0545 18.6556L13.8724 18.6279L13.817 18.6834H13.6903L13.5498 18.6279L13.241 18.4597L13.0035 18.3053L12.7799 18.151L12.3168 17.8422L12.0496 17.6601L11.4182 17.2405L11.2639 17.1277L11.1233 17.0149L10.9828 16.8882L10.8839 16.8071L10.8284 16.6804L10.8007 16.6112L10.6741 15.9521L10.5335 15.014L10.3792 14.1313L10.2525 13.3178L10.1971 12.9398L10.1832 12.7854V12.5341L10.2386 12.2966L10.4207 11.7919L10.6028 11.3149L10.8403 10.6697L11.1075 9.91366L11.2619 9.49408L11.444 9.04481L11.5271 8.87658L11.5964 8.82116H19.8495L20.9321 8.80533Z" fill="#FFFEFE"/>
<path d="M17.8346 8.30261H20.2591L22.1096 8.31647L22.2917 8.42928L22.4322 8.5698L22.5451 8.76574L22.6005 8.90626L22.642 9.1022L22.6559 9.49407H22.8241L22.9923 9.46636L23.3704 9.45251H23.7622L23.9166 9.48022L24.1126 9.57917L24.2392 9.70584L24.3382 9.81865L24.5064 10.0146L24.6608 10.1828L24.8706 10.3926L24.9834 10.4916L25.207 10.7014L25.403 10.8973L25.5019 10.8696L25.5851 10.8003L25.9631 10.549L26.2144 10.3669L26.4816 10.1848L26.7627 9.98886L27.0991 9.76522L27.3228 9.59699L27.5187 9.45647L27.8413 9.23282L28.0927 9.07845L28.2886 8.97949L28.5261 8.91022L28.6943 8.88251L28.8487 8.86865H29.199L29.4365 8.89636L29.6047 8.93793L29.773 9.02105L29.9135 9.14772L30.0125 9.28824L30.0817 9.44261L30.1094 9.54157L30.1233 9.65438L30.1371 9.94928V11.8968L30.1094 12.1204L30.0105 12.4015L29.9273 12.5974L29.7868 12.8646L29.6186 13.1595L29.4365 13.4959L29.2683 13.8047L29.1001 14.1412L28.9872 14.3509L28.918 14.5053L28.8764 14.5884V14.7567L28.918 14.8972L28.9457 14.9803L28.9318 15.204L28.918 16.1282L28.819 16.3796L28.7359 16.5063L28.5954 16.6883L28.3143 16.9694L28.1738 17.0822L28.0333 17.2227L27.9502 17.2643L27.9363 17.292L27.9779 17.3909L28.0768 17.5315L28.16 17.672L28.2866 17.8679L28.3994 18.0223L28.54 18.2321L28.7359 18.5686L28.8487 18.7922L28.8764 18.9327V19.0455L28.7775 19.283L28.6785 19.4374L28.5518 19.5918L28.3975 19.76L28.1303 20.0272L28.0175 20.1262L27.8769 20.2528L27.7641 20.3518L27.3722 20.6882L27.1763 20.8288L27.0358 20.9119L26.923 20.9257L26.8814 20.9673L26.6855 20.9812L26.6716 20.9396L26.4618 20.898L26.2936 20.7852L26.0977 20.6308L25.8879 20.4349L25.7751 20.3359L25.6761 20.237L25.6345 20.2093V20.1816L25.5791 20.1539L25.3416 19.9164L25.2288 19.8174L25.0329 19.6353L24.7241 19.384L24.6252 19.2712L24.5123 19.2019L24.4134 19.1742H24.3144L24.2452 19.2019H23.7543L23.4179 19.2157H22.9409L22.8419 19.2989L22.7291 19.4809L22.646 19.5799L22.4778 19.663L22.268 19.7323L22.1552 19.76L21.791 19.7877L21.7633 19.8016L21.694 19.9698L21.5535 20.3201L21.413 20.7397L21.2863 21.0346L21.2032 21.189L21.0488 21.3572L20.8529 21.4562L20.6985 21.4977L20.5857 21.5116L20.3185 21.5254H19.3804L18.9469 21.4977L18.8203 21.4562L18.6797 21.3295L18.5531 21.189L18.371 20.9376L18.1889 20.6704L18.0484 20.4883L17.8802 20.2647L17.7673 20.1242L17.613 19.9421L17.4586 19.7739L17.4032 19.7323L17.3201 19.7462L17.2646 19.7739L17.2369 19.8728L17.1954 20.4606L17.1815 20.7832L17.14 21.0346L17.0984 21.1751L17.0291 21.2305L16.9598 21.2582L16.8332 21.2721L16.3997 21.2859H14.5492L14.48 21.2305L14.4107 20.993L14.3968 20.8664L14.383 19.2692L14.3553 19.2553H13.9772L13.6269 19.2276L13.4033 19.186L13.2212 19.1168L13.0668 19.0337L12.8432 18.8793L12.5918 18.6972L12.3286 18.4894L12.1881 18.3904L11.9644 18.236L11.6834 18.0401L11.3331 17.8026L11.0659 17.6205L10.8145 17.4384L10.6879 17.3395L10.5473 17.2128L10.4484 17.1L10.3791 16.9872L10.2663 16.5953L10.1535 15.9937L9.95756 14.7745L9.84474 14.1016L9.71808 13.205L9.69037 12.9537L9.67651 12.5895L9.71808 12.2946L9.78735 12.0709L9.94172 11.6217L10.0961 11.2021L10.2643 10.7251L10.5157 10.0383L10.7255 9.47824L10.9214 8.9597L11.0758 8.62324L11.1747 8.45501L11.244 8.37188L11.343 8.34418L11.5389 8.33032L12.0713 8.31647L17.8346 8.30261ZM20.932 8.80532L19.8534 8.81917H11.6003L11.531 8.87459L11.432 9.07053L11.2222 9.60292L10.9986 10.2343L10.8165 10.7528L10.5929 11.3545L10.3692 11.9423L10.2287 12.3342L10.1871 12.5301V12.7815L10.2426 13.2446L10.3692 14.0442L10.4959 14.7725L10.5948 15.3742L10.678 15.9481L10.8046 16.6072L10.8739 16.7754L10.957 16.8744L11.1114 17.001L11.2242 17.1L11.3647 17.199L11.5607 17.3395L11.7982 17.4939L12.0495 17.6621L12.2732 17.8165L12.7779 18.1529L13.0015 18.3073L13.2687 18.4755L13.4646 18.5883L13.6467 18.6715L13.6883 18.6853H13.815L13.8704 18.6299L14.0525 18.6576L14.29 18.6992L14.3454 18.6438L14.3592 18.616V18.5032L14.29 18.4478L14.0386 18.3489L13.9258 18.3212L13.7991 18.3073L13.5319 18.1668L13.4904 18.1114L13.5042 18.0282L13.617 17.8877L13.813 17.6779L13.9396 17.5374L14.4443 17.0327L14.5571 16.9338L14.7254 16.7794L14.8382 16.6666L14.951 16.5676L15.1746 16.344L15.329 16.2173L15.4834 16.0768L15.5962 15.9937L15.7367 15.9105H15.8911L16.0039 15.9798L16.2276 16.1342L16.3542 16.2608L16.467 16.3598L16.7045 16.5834L16.9143 16.7932L17.0271 16.8922L17.2092 17.0604L17.6427 17.4939L17.7416 17.6067L17.9237 17.8026L18.0781 18.0124L18.0919 18.0678L18.0227 18.1806L17.8821 18.2934L17.8267 18.3212L17.6723 18.3489L17.4626 18.432L17.3497 18.5151L17.2943 18.5844L17.2666 18.6398L17.2251 18.907V19.1306L17.2389 19.1583L17.3933 19.2138L17.6882 19.2553L17.8287 19.3246L17.9969 19.479L18.179 19.7303L18.4027 20.0529L18.5986 20.3201L18.7945 20.6012L18.9212 20.7555L19.0479 20.8961L19.1884 20.9792L19.5387 21.0069H20.4076L20.5896 20.9792L20.7302 20.9238L20.8291 20.7832L20.9419 20.5319L21.1102 20.0272L21.3061 19.4255L21.3754 19.2573L21.3892 19.2434H22.2996L22.3828 19.1742L22.4382 19.0614L22.5075 18.8239L22.549 18.7546L22.6321 18.6853L22.7865 18.6576L23.3051 18.6438H24.6786L24.8191 18.713L25.0289 18.8951L25.1417 18.9941H25.1694L25.1833 19.0356L25.2961 19.1346L25.3951 19.2336L25.5079 19.3325L25.69 19.5007L25.8028 19.6135L25.9156 19.7125L26.2797 20.0767L26.4341 20.2033L26.5608 20.3162L26.7013 20.4151L26.7429 20.4428L26.8121 20.429L26.8676 20.4013L26.9091 20.429L26.9645 20.3597L27.1328 20.2469L27.3426 20.0648L27.4831 19.9243L27.5959 19.8253L27.7918 19.6294L27.9046 19.5304L28.1718 19.2632L28.255 19.194L28.3104 19.1247L28.3658 19.0693L28.3519 18.9862L28.2827 18.8179L28.0867 18.5092L27.9185 18.242L27.7226 17.9471L27.5682 17.7234L27.4277 17.4998L27.3861 17.4167V17.3039L27.4989 17.0802L27.5979 16.9397L27.7522 16.7715L27.8928 16.6171L27.9917 16.5043L28.1461 16.3638L28.2292 16.3083L28.2985 16.2252L28.3123 16.1698L28.3262 15.7067V15.0615L28.3401 14.5983L28.3678 14.4024L28.4509 14.2065L28.5914 13.9393L28.7319 13.6879L28.8151 13.5335L29.0248 13.1417L29.2069 12.8191L29.4583 12.3282L29.5276 12.2154L29.583 12.0333L29.6107 11.8374L29.6245 11.6415L29.6384 11.1368V9.6524L29.5968 9.55345L29.5414 9.49803L29.3593 9.44261L29.2188 9.4149L29.0506 9.40105H28.7695L28.532 9.45647L28.2371 9.61084L27.9858 9.77907L27.7047 9.97501L27.4376 10.1432L26.7646 10.5925L26.541 10.7469L26.064 11.0695L25.7968 11.2654L25.587 11.3921L25.4188 11.4752H25.3772L25.3634 11.4337L25.2941 11.4475L25.1259 11.3644L24.9854 11.2377L24.7894 11.0418L24.6905 10.929L24.4668 10.7053L24.3679 10.5925L24.1719 10.3966L24.073 10.2838L23.9047 10.1017L23.8355 10.0186L23.7088 9.97699L23.3862 9.94928H23.1903L22.4481 9.99084L22.1393 10.0047H22.1116L22.0978 9.43074L22.0839 9.06657L22.0562 8.92605L22.0008 8.85678L21.9454 8.82907L21.8326 8.81522H20.932V8.80532Z" fill="#438CB2"/>
<path d="M15.7328 15.8967H15.8872L16 15.9659L16.2236 16.1203L16.3503 16.247L16.4631 16.3459L16.7006 16.5696L16.9104 16.7794L17.0232 16.8783L17.2053 17.0466L17.6546 17.4958L17.7535 17.6086L17.9356 17.8046L18.09 18.0144L18.1038 18.0698L18.0346 18.1826L17.8802 18.3093L17.8248 18.337L17.6704 18.3647L17.4606 18.4478L17.3478 18.5309L17.2785 18.6438L17.237 18.9109L17.2231 19.3028L17.2647 19.4987V19.667L17.2231 19.8768L17.2093 20.4507L17.1954 20.7733L17.1538 21.0247L17.1123 21.1652L17.043 21.2206L16.9737 21.2483L16.8471 21.2622L16.4136 21.276H14.5631L14.4938 21.2206L14.4246 20.9831L14.4107 20.8565V19.091L14.3553 18.5032L14.2425 18.434L13.9911 18.3508L13.8091 18.3231L13.5419 18.1826L13.4865 18.1133L13.5003 18.0302L13.6131 17.8897L13.8091 17.6799L13.9357 17.5394L14.4543 17.0208L14.5671 16.9219L14.7353 16.7675L14.8481 16.6547L14.9609 16.5557L15.1846 16.3321L15.339 16.2054L15.4933 16.0649L15.6061 15.9818L15.7328 15.8967Z" fill="#B01A39"/>
<path d="M11.6695 20.3518H12.6928L13.3657 20.3656L13.5339 20.3933L13.5616 20.4765L13.5755 23.0296L13.6447 23.0989L13.8961 23.1978L14.3018 23.3106L14.4146 23.3799L14.4701 23.463L14.4562 23.5897L14.3434 23.7718L14.189 23.94L14.0485 24.0667L13.8248 24.2765L13.712 24.3893L13.5992 24.4882L13.5003 24.5872L13.3459 24.7139L13.1084 24.9375L12.9263 25.1057L12.7165 25.2878L12.2118 25.7925L12.1564 25.7787L11.9743 25.6243L11.7784 25.456L11.5409 25.2324L11.4004 25.1057L11.2737 24.9791L11.1609 24.8801L10.9511 24.6703L10.8383 24.5714L10.7393 24.4724L10.6265 24.3734L10.486 24.2329L10.3732 24.134L10.2465 24.0073L10.2188 23.9934V23.9657L10.1772 23.9519L10.0783 23.8391L9.96547 23.6985L9.85266 23.4888L9.86652 23.4195L10.007 23.3205L10.2168 23.2374L10.5256 23.1543L10.7492 23.0712L10.7631 23.0573L10.7769 22.9445L10.8046 20.898L10.8185 20.5616L10.8323 20.4349L10.8739 20.3933L10.9293 20.3795L11.1391 20.3656L11.6695 20.3518Z" fill="#085486"/>
<path d="M17.8346 8.30261L19.7129 8.31647L20.5125 8.33032L21.1577 8.37188H21.3259L21.3952 8.38574L21.7455 8.39959L21.8998 8.44115L21.983 8.49657V8.52428L22.0384 8.53813L22.1789 8.63709L22.262 8.7499V8.77761H22.2897L22.3036 8.84688L22.2046 8.88845L22.1492 8.91615L22.1631 8.97157L22.2046 8.99928L22.2323 8.94386L22.3313 8.93001L22.3175 8.98542H22.2482L22.2205 9.01313L22.1928 9.0824L22.1235 9.11011L22.0958 9.09626V9.0547H22.0681L22.0404 8.91417L21.9711 8.8449L21.8306 8.8172H20.934L19.8554 8.83105H11.6022L11.533 8.90032L11.4498 9.06855L11.2401 9.60095L11.0164 10.2323L10.8343 10.7508L10.6107 11.3525L10.387 11.9403L10.2465 12.3322L10.205 12.5281V12.7795L10.2604 13.2426L10.387 14.0422L10.5137 14.7705L10.6127 15.3722L10.6958 15.9462L10.8225 16.6052L10.8917 16.7734L10.961 16.8566L11.1154 16.9832L11.2282 17.0822L11.3687 17.1812L11.5646 17.3217L11.8021 17.476L12.0535 17.6443L12.2771 17.7987L12.7818 18.1351L13.0055 18.2895L13.2727 18.4577L13.4686 18.5705L13.6507 18.6537L13.6922 18.6675H13.8189L13.8743 18.6121L14.0564 18.6398L14.2939 18.6814L14.3632 18.6121L14.4047 18.9347L14.4186 19.0891V19.3563H14.4047L14.3909 19.2573L14.3632 19.2434H13.9852L13.6348 19.2157L13.4112 19.1742L13.2291 19.1049L13.0747 19.0218L12.8511 18.8674L12.5997 18.6853L12.3286 18.4894L12.1881 18.3904L11.9644 18.236L11.6834 18.0401L11.3331 17.8026L11.0659 17.6205L10.8145 17.4384L10.6879 17.3395L10.5473 17.2128L10.4484 17.1L10.3791 16.9872L10.2663 16.5953L10.1535 15.9937L9.95756 14.7745L9.84474 14.1016L9.71808 13.205L9.69037 12.9537L9.67651 12.5895L9.71808 12.2946L9.78735 12.0709L9.94172 11.6217L10.0961 11.2021L10.2643 10.7251L10.5157 10.0383L10.7255 9.47824L10.9214 8.9597L11.0758 8.62324L11.1747 8.45501L11.244 8.37188L11.343 8.34418L11.5389 8.33032L12.0713 8.31647L17.8346 8.30261Z" fill="#156A9C"/>
<path d="M28.5835 16.0649H28.625V16.346L28.6389 16.4152L28.5973 16.5142H28.5696L28.5419 16.5835L28.5281 16.625H28.4865L28.4588 16.6804L28.4172 16.7358H28.3895L28.3757 16.7774H28.348V16.819L28.3203 16.8467L28.3064 16.8882L28.251 16.9021V16.9298H28.2233L28.1956 16.9991L28.0412 17.1396L27.9145 17.2227L27.8868 17.2643L27.9145 17.4464L27.9838 17.5869L27.9976 17.6997L28.0115 17.7413L28.1105 17.8105V17.8382H28.1382V17.866H28.1797L28.2213 17.9491L28.3044 18.0757L28.4311 18.244L28.4726 18.3132L28.6132 18.5092L28.726 18.5923L28.8091 18.7328L28.7953 18.8318L28.7675 18.9307L28.7814 19.0574L28.7953 19.1128V19.2395L28.7121 19.38L28.5716 19.5621L28.4034 19.7442L28.1362 20.0114L28.0234 20.1103L27.8829 20.237L27.77 20.336L27.3782 20.6724L27.1822 20.8129L27.0417 20.8961L26.9289 20.9099L26.8873 20.9515L26.6914 20.9653L26.6775 20.9238L26.4678 20.8822L26.2995 20.7694L26.1036 20.615L25.8938 20.4191L25.781 20.3201L25.682 20.2212L25.6405 20.1935V20.1657L25.585 20.138L25.3475 19.9005L25.2347 19.8016L25.0388 19.6195L24.73 19.3681L24.6311 19.2553L24.5183 19.1861L24.4193 19.1583H24.3204L24.2511 19.1861H23.7603L23.4238 19.1999H22.9468L22.8479 19.283L22.735 19.4651L22.6519 19.5641L22.4837 19.6472L22.2739 19.7165L22.1611 19.7442L21.7969 19.7719L21.7692 19.7857L21.6999 19.954L21.5594 20.3043L21.4189 20.7239L21.2922 21.0188L21.2091 21.1731L21.0547 21.3414L20.8588 21.4403L20.7044 21.4819L20.5916 21.4957L20.3244 21.5096H19.3863L18.9529 21.4819L18.8262 21.4403L18.6857 21.3137L18.559 21.1731L18.3769 20.9218L18.1948 20.6546L18.0543 20.4725L17.8861 20.2489L17.7733 20.1083L17.6189 19.9263L17.4645 19.758L17.4091 19.7165L17.326 19.7303L17.2706 19.758L17.2429 19.857L17.2151 20.1935H17.2013V19.8708L17.2429 19.6611V19.4988L17.2013 19.3028V19.1762L17.229 19.1346V19.1623L17.2983 19.1762L17.4665 19.2177L17.6763 19.2454L17.8168 19.3147L17.9989 19.4829L18.181 19.7343L18.4046 20.0569L18.6006 20.3241L18.7965 20.6051L18.9232 20.7595L19.036 20.8862L19.1765 20.9693L19.5268 20.997H20.3957L20.5778 20.9693L20.7183 20.9139L20.8172 20.7595L20.9162 20.5358L21.0844 20.0312L21.2804 19.4295L21.3496 19.2613L21.3773 19.2336H22.2878L22.357 19.1781L22.4124 19.0653L22.4817 18.8278L22.5371 18.7447H22.5648L22.5925 18.6893L22.7746 18.6477L23.2932 18.6339H24.6667L24.8072 18.7031L25.017 18.8852L25.1575 18.998L25.3812 19.2217L25.494 19.3206L25.6761 19.4889L25.7889 19.6017L25.9017 19.7006L26.2659 20.0648L26.4203 20.1915L26.5469 20.3043L26.6874 20.4032L26.729 20.431L26.7983 20.4171L26.8537 20.3894L26.8953 20.4171L26.9507 20.3478L27.1189 20.235L27.3287 20.0529L27.4692 19.9124L27.582 19.8135L27.778 19.6175L27.8908 19.5186L28.158 19.2514L28.2272 19.196L28.2965 19.1128H28.3242L28.3381 19.0139L28.2549 18.8179L28.059 18.5092L27.8908 18.242L27.6948 17.9471L27.5405 17.7235L27.3999 17.4998L27.3584 17.4167V17.3039L27.4712 17.0802L27.5701 16.9971L27.5979 16.9417L27.6671 16.8724L27.7087 16.8586V16.8863L27.778 16.8308L27.8472 16.7477H27.8749L27.9026 16.6923H27.9304V16.6646H27.9581V16.6369L28.0273 16.5676L28.1401 16.4687L28.2668 16.3143L28.3658 16.2015L28.4212 16.1322L28.5835 16.0649Z" fill="#156A9C"/>
<path d="M10.7868 9.82855H10.8145V9.92751L10.773 10.0542L10.7314 10.1531L10.6898 10.3214L10.6344 10.4619L10.5651 10.6855L10.4662 10.9943L10.3831 11.2456L10.3138 11.4139L10.2445 11.6375L10.2168 11.6791L10.1891 11.8057L10.1475 11.9463L10.106 12.0017H10.0723L10.0862 12.1838L10.0446 12.1976V12.2669L10.0585 12.1976H10.1L10.1139 12.1422H10.1277V12.3104L10.1 12.3797L10.0862 12.352L10.0308 12.3381V12.3936L10.0723 12.4074V12.7854L10.0862 12.8131L10.1277 13.1496L10.1555 13.4445H10.1693L10.197 13.2763L10.2524 13.2901L10.2801 13.4029L10.4207 14.2995L10.575 15.1822L10.6879 15.9521L10.8145 16.6112L10.8838 16.7794L10.9531 16.8625L11.1074 16.9892L11.2202 17.0881L11.3608 17.1871L11.5567 17.3276L11.7942 17.482L12.0456 17.6502L12.2692 17.8046L12.7739 18.1411L12.9975 18.2954L13.2647 18.4637L13.4607 18.5765L13.6427 18.6596L13.6843 18.6734H13.811L13.8664 18.618L14.0485 18.6457L14.286 18.6873L14.3552 18.618L14.3968 18.9406L14.4107 19.095V19.3622H14.3968L14.383 19.2632L14.3552 19.2494H13.9772L13.6269 19.2217L13.4033 19.1801L13.2212 19.1108L13.0668 19.0277L12.8432 18.8733L12.5918 18.6913L12.3286 18.4894L12.1881 18.3904L11.9644 18.2361L11.6834 18.0401L11.3331 17.8026L11.0659 17.6205L10.8145 17.4384L10.6879 17.3395L10.5473 17.2128L10.4484 17.1L10.3791 16.9872L10.2663 16.5953L10.1832 16.1461V15.9363L10.1693 15.8808L10.2109 15.8393L10.2247 15.7977L10.2109 15.6988L10.197 15.4474L10.0842 14.7468L10.0426 14.4657L9.97337 13.9195L9.94567 13.7374L9.91796 13.6404L9.89025 13.4306L9.86254 13.2901L9.79327 12.8705L9.76556 12.829V12.7736L9.75171 12.6607L9.724 12.6469L9.77942 12.633L9.75171 12.6192L9.77942 12.5499L9.76556 12.4945L9.75171 12.4806V12.4114L9.76556 12.3837V12.257L9.79327 12.2431V12.2986L9.86254 12.158L9.9041 12.1165L9.95952 11.9898L10.0011 11.8908L10.0565 11.7503L10.0981 11.6375L10.1535 11.497L10.195 11.3565L10.2643 11.2021L10.2782 11.1467H10.3059L10.3197 11.0636L10.3613 10.9646L10.389 10.8518H10.4167L10.4444 10.6974L10.4583 10.642L10.486 10.5589L10.5552 10.4322L10.583 10.3491L10.6522 10.1808L10.6938 10.0403L10.7215 9.9572H10.7492L10.7868 9.82855Z" fill="#085486"/>
<path d="M29.0723 9.10022H29.3098L29.4642 9.12793L29.4919 9.10022L29.6047 9.14178L29.7175 9.1972L29.7868 9.25262V9.28032L29.8422 9.30803L29.9412 9.46241L29.955 9.57522V11.0319L29.9689 11.0873L29.9828 11.5207L29.9689 11.6474L29.9828 11.7167V12.067L29.9689 12.0808V12.348L29.9828 12.4608L29.8699 12.6845L29.7294 12.9517L29.6028 13.1753L29.4088 13.5276L29.296 13.7513L29.1555 14.0184L28.9872 14.3411L28.918 14.4954L28.8764 14.5786V14.7468L28.918 14.8873L28.9457 14.9704L28.9318 15.1941L28.918 16.1183L28.819 16.3697L28.7359 16.4964L28.5954 16.6784L28.3143 16.9595L28.1738 17.0723L28.0333 17.2128L27.9502 17.2544L27.9363 17.2821L27.9779 17.3811L28.0768 17.5216L28.1599 17.6621L28.2866 17.858L28.3994 18.0124L28.5399 18.2222L28.7359 18.5587L28.8487 18.7823L28.8764 18.9228V19.0356L28.8071 19.2177L28.7794 19.1762V19.0772L28.7656 19.0079L28.7517 18.9248L28.7794 18.8417V18.8001H28.8071L28.7517 18.6596L28.6824 18.5765L28.5993 18.5349L28.5162 18.4082L28.4331 18.2954L28.3776 18.1965L28.2787 18.0698L28.1956 17.9431L28.1817 17.8739H28.1401V17.8462H28.1124V17.8165L28.057 17.7888L28.0016 17.7472L27.9739 17.6344L27.96 17.5651L27.9046 17.4523L27.8769 17.2702L27.9323 17.2009L28.0729 17.102L28.1995 16.9892L28.2272 16.9338H28.2549V16.9061L28.3104 16.8922L28.3242 16.8229H28.3519V16.7814L28.435 16.7121L28.4628 16.6705L28.5459 16.5716L28.5736 16.5162H28.6013L28.6152 16.4469L28.629 16.3638L28.6152 16.3499V16.1955L28.629 16.0689L28.5023 16.1104L28.4192 16.152L28.3064 16.2925L28.1797 16.433L28.1105 16.5162L27.9976 16.629H27.9699V16.6567H27.9422V16.6844L27.8868 16.7398H27.8591L27.8453 16.7814L27.776 16.8506L27.7206 16.8783V16.8506L27.6652 16.8922H27.6374L27.6097 16.9476L27.5682 17.0169L27.4989 17.0723L27.5266 17.003L27.681 16.8209L27.8769 16.6112L27.9759 16.4983L28.1441 16.344L28.2272 16.2886L28.2826 16.2193L28.2965 16.1639L28.3104 15.7007V15.0555L28.3242 14.5924L28.3519 14.3965L28.435 14.2005L28.5756 13.9333L28.7161 13.682L28.7992 13.5276L29.009 13.1357L29.1911 12.8131L29.4424 12.3223L29.5117 12.2095L29.5671 12.0274L29.5948 11.8315L29.6087 11.6355L29.6225 11.1308V9.64647L29.581 9.54751L29.5533 9.49209H29.581L29.5394 9.33772L29.484 9.32387L29.4088 9.25459L29.2267 9.18532L29.1 9.17147L29.0446 9.14376V9.11605L29.0723 9.10022Z" fill="#156A9C"/>
<path d="M10.5632 15.77H10.5909L10.6186 15.8393L10.6463 15.8531V15.77H10.6601L10.7433 16.247L10.8125 16.6112L10.8818 16.7794L10.9511 16.8625L11.1055 16.9892L11.2183 17.0881L11.3588 17.1871L11.5547 17.3276L11.7922 17.482L12.0436 17.6502L12.2672 17.8046L12.7719 18.1411L12.9956 18.2954L13.2627 18.4637L13.4587 18.5765L13.6408 18.6596L13.6823 18.6735H13.809L13.8644 18.618L14.0465 18.6457L14.284 18.6873L14.3533 18.618L14.3948 18.9406L14.4087 19.095V19.3622H14.3948L14.381 19.2632L14.3533 19.2494H13.9752L13.6249 19.2217L13.4013 19.1801L13.2192 19.1109L13.0648 19.0277L12.8412 18.8734L12.5898 18.6913L12.3286 18.4894L12.1881 18.3904L12.1326 18.335L12.1465 18.3073L12.1049 18.2935L12.0911 18.2242L12.008 18.1688L11.9921 18.1252L11.9367 18.0975L11.9644 18.0837L12.0772 18.1391L12.1762 18.1252L12.2039 18.1114L12.19 18.056L12.1485 18.0144V17.9867L12.0792 17.959L12.0515 17.9313V17.8897L11.9248 17.8759L11.911 17.8343L11.8556 17.8481L11.8278 17.961L11.7586 17.9748L11.6458 17.9194L11.5903 17.864L11.4221 17.7809L11.339 17.767L11.2697 17.6977L11.1431 17.5849L11.0164 17.5156L10.9333 17.4167H10.9056L10.864 17.3336L10.8086 17.2781L10.7947 17.2227L10.8501 17.195H10.9056L10.9194 17.1257V17.098L10.9056 17.0426L10.8363 16.9734L10.8224 16.9318L10.7809 16.9456L10.7255 16.7636V16.6804L10.6839 16.6666V16.6389H10.6423L10.6008 16.5399L10.5731 16.4706L10.5592 16.3578L10.5315 16.2747V16.1342L10.5731 16.0352V15.77H10.5632Z" fill="#156A9C"/>
<path d="M28.5835 16.0649H28.6251V16.346L28.6389 16.4152L28.5974 16.5142H28.5697L28.542 16.5835L28.5281 16.625H28.4865L28.4588 16.6804L28.4173 16.7358H28.3896L28.3757 16.7774H28.348V16.819L28.3203 16.8467L28.3064 16.8882L28.251 16.9021V16.9298H28.2233L28.1956 16.9991L28.0412 17.1396L27.9146 17.2227L27.8868 17.2643L27.9146 17.4464L27.9838 17.5869L27.9977 17.6997L28.0115 17.7413L28.1105 17.8105V17.8382H28.1382V17.866H28.1798L28.2213 17.9491L28.3045 18.0757L28.4311 18.244L28.4727 18.3132L28.6132 18.5092L28.726 18.5923L28.8091 18.7328L28.7953 18.8318L28.7676 18.9307L28.7814 19.0574L28.7953 19.1128V19.2395L28.7122 19.38L28.5716 19.5621H28.5439L28.5578 19.4928L28.5439 19.4513L28.445 19.5344H28.4173L28.4034 19.576H28.3757L28.3619 19.6175L28.1936 19.6868L28.1243 19.7283H28.0828L28.0966 19.7699H28.0551L28.0412 19.8253H27.9997L27.9858 19.8807L27.8868 20.0351L27.8255 20.1281H27.7978L27.7701 20.1836L27.7008 20.2113L27.6315 20.2805H27.59L27.5761 20.336L27.5346 20.3637L27.5068 20.3775L27.493 20.4329L27.4514 20.4468H27.4237L27.3248 20.4745L27.3109 20.4052L27.3248 20.3221L27.2832 20.2944L27.3248 20.1677L27.5484 19.9441L27.6612 19.8451L27.8572 19.6492L27.8987 19.5938H27.9264L27.9403 19.5522L28.0531 19.4532L28.3045 19.2019L28.3599 19.1029L28.3737 19.004H28.346L28.2629 18.808L28.067 18.4993L27.8987 18.2321L27.7028 17.9372L27.5484 17.7136L27.4079 17.4899L27.3663 17.4068V17.294L27.4791 17.0703L27.5781 16.9872L27.6058 16.9318L27.6751 16.8625L27.7166 16.8487V16.8764L27.7859 16.821L27.8552 16.7378H27.8829L27.9106 16.6824H27.9383V16.6547H27.966V16.627L28.0353 16.5577L28.1481 16.4588L28.2748 16.3044L28.3737 16.1916L28.4291 16.1223L28.5835 16.0649Z" fill="#156A9C"/>
<path d="M17.2053 19.1761L17.233 19.19L17.2607 19.2454L17.2884 19.2593V19.287H17.3161V19.3147L17.4428 19.3424V19.3701L17.3438 19.4117L17.3715 19.5106L17.427 19.5383L17.4824 19.665L17.5952 19.8055V19.8332H17.6229L17.6645 19.9164L17.7377 19.9738L17.7654 19.946L17.7377 19.8768L17.8366 19.9183V19.946L18.088 20.0015L18.1434 20.043H18.185L18.2127 20.0846H18.282L18.3651 20.1835V20.2251H18.3928L18.5333 20.421L18.6461 20.5754L18.66 20.6585L18.7015 20.6724L18.7154 20.7555L18.7847 20.8386V20.8664L18.8401 20.8941L18.8816 20.9356V20.9633L18.9371 20.9772L18.9786 21.0465L19.0479 21.088V21.1157L19.0895 21.1019L19.1587 21.1157H19.4259L19.4675 21.1019H19.509L19.5229 21.0603L19.606 21.0465H19.8435L20.1246 21.0603L20.461 21.1019H20.6292L20.7124 21.0742L20.8252 20.991L20.9518 20.9079L21.0211 20.8525L21.0627 20.7694H21.0904L21.1042 20.7001V20.518L21.1458 20.3775L21.2012 20.2508L21.2428 20.1103L21.2566 20.0688L21.2289 19.9995L21.2566 19.9164L21.2705 19.7204L21.2982 19.6373L21.3121 19.5819L21.3813 19.568L21.409 19.5819L21.3952 19.7224L21.409 19.8214L21.3398 19.9342V19.9896L21.409 20.0034L21.4229 19.9342L21.4367 19.8926L21.4783 19.9065L21.4645 20.0054L21.506 20.0747L21.4783 20.2568H21.4506L21.4645 20.2845H21.4922L21.506 20.3973L21.4645 20.4389V20.5794L21.3516 20.8743L21.225 21.1415L21.0706 21.3235L20.9439 21.4067L20.8034 21.4621L20.5798 21.5036L20.3126 21.5175H19.3745L18.941 21.4898L18.8143 21.4482L18.6738 21.3216L18.5472 21.181L18.3651 20.9297L18.183 20.6625L18.0425 20.4804L17.8742 20.2568L17.7614 20.1163L17.6071 19.9342L17.4527 19.7659L17.3973 19.7244L17.3141 19.7382L17.2587 19.7659L17.231 19.8649L17.2033 20.2014H17.1895V19.8788L17.231 19.669V19.4988L17.1895 19.3028V19.1761H17.2053Z" fill="#085486"/>
<path d="M29.6187 11.1744H29.6325V11.6514L29.6048 12.0709L29.5494 12.253L29.5079 12.3797L29.2565 12.8844L29.2288 12.9536H29.2011L29.1734 13.0665H29.1457L29.1318 13.1219L28.9774 13.4168L28.8626 13.6404L28.7795 13.7948L28.6667 14.0184L28.6113 14.1016L28.5974 14.1847L28.5143 14.2975L28.5005 14.4242L28.4589 14.5647L28.4727 14.7191L28.4589 15.1109L28.4866 15.2099L28.5143 15.2515L28.5559 15.0694L28.5697 14.9427L28.5836 14.915L28.7102 14.8734L28.7657 14.7191L28.8072 14.5785L28.9062 14.4657L28.9339 14.438L28.92 14.4934L28.8785 14.5766V14.7448L28.92 14.8853L28.9477 14.9684L28.9339 15.1921L28.92 16.1164L28.8211 16.3677L28.738 16.4944L28.5974 16.6765L28.3164 16.9575L28.1759 17.0703L28.0354 17.2108L27.9522 17.2524L27.9384 17.2801L27.9799 17.3791L28.0789 17.5196L28.162 17.6601L28.2887 17.856L28.4015 18.0104L28.542 18.2202L28.738 18.5567L28.8508 18.7803L28.8785 18.9208V19.0336L28.8092 19.2157L28.7815 19.1742V19.0752L28.7676 19.0059L28.7538 18.9228L28.7815 18.8397V18.7981H28.8092L28.7538 18.6576L28.6845 18.5745L28.6014 18.5329L28.5183 18.4063L28.4351 18.2934L28.3797 18.1945L28.2808 18.0678L28.1976 17.9411L28.1838 17.8719H28.1422V17.8442H28.1145V17.8165L28.0591 17.7888L28.0037 17.7472L27.976 17.6344L27.9621 17.5651L27.9067 17.4523L27.879 17.2702L27.9344 17.2009L28.0749 17.102L28.2016 16.9892L28.2293 16.9338H28.257V16.906L28.3124 16.8922L28.3263 16.8229H28.354V16.7814L28.4371 16.7121L28.4648 16.6705L28.548 16.5716L28.5757 16.5161H28.6034L28.6172 16.4469L28.6311 16.3638L28.6172 16.3499V16.1955L28.6311 16.0689L28.5044 16.1104L28.4213 16.152L28.3085 16.2925L28.1818 16.433L28.1125 16.5161L27.9997 16.629H27.972V16.6567H27.9443V16.6844L27.8889 16.7398H27.8612L27.8473 16.7814L27.7781 16.8506L27.7226 16.8783V16.8506L27.6672 16.8922H27.6395L27.6118 16.9476L27.5702 17.0169L27.501 17.0723L27.5287 17.003L27.6831 16.8209L27.879 16.6111L27.978 16.4983L28.1462 16.344L28.2293 16.2885L28.2847 16.2193L28.2986 16.1639L28.3124 15.7007V15.0555L28.3263 14.5924L28.354 14.3965L28.4371 14.2005L28.5776 13.9333L28.7182 13.682L28.8013 13.5276L29.0111 13.1357L29.1932 12.8131L29.4445 12.3223L29.5138 12.2095L29.5692 12.0274L29.5969 11.8315L29.6108 11.6355L29.6187 11.1744Z" fill="#438CB2"/>
<path d="M23.2715 18.6299H24.6727L24.8132 18.6992L25.023 18.8813L25.1636 18.9941L25.3872 19.2177L25.5 19.3167L25.6821 19.4849L25.7949 19.5977L25.9077 19.6967L26.2719 20.0609L26.4263 20.1875L26.5529 20.3003L26.6935 20.3993L26.735 20.427L26.8043 20.4131L26.8597 20.3854L26.9013 20.4131L26.9567 20.3439L27.1249 20.2311L27.3347 20.049L27.4752 19.9085L27.588 19.8095L27.784 19.6136L27.8968 19.5146L28.164 19.2474L28.2332 19.192L28.3025 19.1089H28.3302L28.3579 19.0099L28.3856 19.0376L28.3718 19.1069L28.3164 19.2059L28.0492 19.473L27.9364 19.572L27.9225 19.5997H27.8948L27.8671 19.6551L27.8255 19.6947H27.7978L27.7701 19.7501L27.5742 19.9461L27.4614 20.045L27.3208 20.1855L27.2516 20.2132V20.1855L27.1526 20.2687L27.1388 20.3241L26.9428 20.4369L26.9013 20.4646L26.7469 20.4785V20.5339L26.6915 20.5477L26.6222 20.5062H26.5806L26.5114 20.423L26.4698 20.4092V20.3815L26.4005 20.3676L26.2877 20.2548L26.2323 20.2132V20.1855L26.1769 20.1578L26.1076 20.0886L26.0245 20.0331L25.9631 19.9738V19.9322L25.9216 19.9184L25.8662 19.8629V19.8352L25.8246 19.8214L25.8107 19.7937L25.7692 19.7798V19.7363L25.7138 19.7086V19.6809L25.6445 19.667L25.6168 19.6116L25.5337 19.5562L25.407 19.4572L25.3377 19.3879V19.3602L25.2962 19.3464V19.3187L25.2407 19.3048L25.1141 19.2217V19.194H25.0864L25.031 19.1247L24.9181 19.0257V18.998L24.8489 18.9703L24.7657 18.9288V18.9011L24.5144 18.8734L24.3739 18.8872H24.2611L24.2333 18.8734H23.6871L23.5743 18.8872L23.3645 18.8734L23.2655 18.8595L23.1527 18.8734L23.0122 18.8872H22.9132L22.8143 18.8734L22.745 18.9011H22.6461V18.9288H22.6183V18.9565L22.5194 18.998L22.4363 19.194L22.4086 19.2771L22.3096 19.3464L22.0286 19.3741H21.9157L21.8742 19.3464L21.6228 19.3325L21.4922 19.3444L21.3794 19.4275H21.3378L21.3101 19.4968L21.2686 19.6235L21.2547 19.6373L21.227 19.764L21.1142 20.0727L21.0726 20.1994L21.0449 20.2984L20.9618 20.5497L20.9479 20.6487L20.9064 20.7615L20.8371 20.9436L20.7817 20.9713V20.999L20.7401 21.0267L20.5857 21.0544L19.3943 21.0405L19.3804 21.0267H19.2676L19.2122 21.0544L19.0994 20.999L19.0163 20.9436L18.9035 20.7892V20.7615L18.8619 20.7476V20.7199L18.8065 20.6922L18.6521 20.4686L18.666 20.427L18.7214 20.4824L18.848 20.6645L19.0301 20.8743L19.1845 20.9732L19.5348 21.001H20.4037L20.5857 20.9732L20.7263 20.9178L20.8252 20.7635L20.9242 20.5398L21.0924 20.0351L21.2883 19.4335L21.3576 19.2652L21.3853 19.2375H22.2957L22.365 19.1821L22.4204 19.0693L22.4897 18.8318L22.5451 18.7487H22.5728L22.6005 18.6932L22.7826 18.6517L23.2715 18.6299Z" fill="#438CB2"/>
<path d="M22.165 9.43668L22.2205 9.45053L22.262 9.53366H22.3174L22.3313 9.46438L22.359 9.45053L22.4421 9.5198L22.5114 9.58907H22.5945L22.6361 9.56136L22.7905 9.53366L22.8182 9.5198H22.9725L23.0141 9.50595L23.1408 9.53366L23.2813 9.56136L23.3802 9.54751L23.5762 9.58907L23.59 9.63064L23.7028 9.65834L23.8434 9.72761H23.8711V9.75532L23.9839 9.78303L24.0532 9.82459V9.8523L24.1224 9.86616V9.89386L24.1778 9.92157L24.1917 9.97699L24.261 9.99084L24.3164 10.0324V10.074L24.358 10.0878L24.3718 10.1432H24.3995V10.1848H24.4549V10.2264L24.5103 10.2541L24.6093 10.353L24.637 10.3669V10.3946H24.6647L24.7063 10.4777L24.734 10.4916L24.7756 10.5905L24.7894 10.6459H24.8171L24.831 10.6875L24.9141 10.7568L24.9557 10.8122L24.9695 10.9112L24.9972 10.9389L25.0111 10.9943L25.0526 11.0358V11.0636H25.0803L25.1358 11.1902L25.1773 11.2456L25.1635 11.2872H25.1219L25.1358 11.3288H25.0665L24.7577 11.02L24.6588 10.9072L24.4351 10.6836L24.3362 10.5707L24.1402 10.3748L24.0413 10.262L23.8731 10.0799L23.8176 10.0106L23.691 9.96907L23.3684 9.94136H23.1724L22.4302 9.98293H22.2066L22.1512 9.96907L22.1096 9.8147V9.50595H22.1373L22.165 9.43668Z" fill="#156A9C"/>
<path d="M28.4292 9.17145H28.5282L28.5143 9.22686L28.4589 9.26843H28.4173L28.4035 9.3377L28.3619 9.35155L28.3342 9.37926L28.2075 9.44853L28.166 9.5178L28.1521 9.54551L28.2788 9.50395L28.3916 9.49009L28.447 9.47624V9.50395L28.2372 9.61676L27.9859 9.78499L27.7048 9.98093L27.4376 10.1492L26.7647 10.5984L26.5411 10.7528L26.0641 11.0754L25.7969 11.2713L25.6148 11.3842L25.5594 11.3703V11.3287L25.6148 11.2733L25.6564 11.2041L25.7118 11.1348H25.5159V11.1071L25.5713 11.0932V11.0655L25.7257 10.9666L25.7672 10.9388V10.8102L25.8365 10.7409L26.074 10.5727L26.2838 10.4322L26.551 10.2501L26.6638 10.167H26.6915V10.1373L26.7905 10.0819L26.9033 10.0126L26.9587 9.99874L27.028 9.98489H27.0557L27.1823 9.92947L27.2516 9.90176L27.3783 9.83249L27.4337 9.79093H27.4752L27.4891 9.76322L27.6435 9.68009L27.7424 9.61082L27.8414 9.55541L27.9107 9.49999L27.9938 9.45843H28.0215L28.0353 9.41686L28.2174 9.2902H28.2728V9.26249L28.4292 9.17145Z" fill="#166B9C"/>
<path d="M17.2191 19.1326L17.233 19.1603L17.3022 19.1742L17.4705 19.2157L17.6803 19.2434L17.8208 19.3127L18.0029 19.4809L18.1849 19.7323L18.4086 20.0549L18.6045 20.3221L18.6599 20.4052L18.6738 20.4745L18.8143 20.6843L18.8974 20.7535L19.0103 20.9079V20.9356L19.0795 20.9633L19.1349 21.0049L19.2181 21.0326L19.2596 21.0049H19.3724L19.4417 21.0187H19.5961L19.792 21.0326L19.7505 21.0603H19.6099L19.5268 21.0742L19.513 21.1019L19.4298 21.1296H19.1211L19.0518 21.1157L19.038 21.088L18.9687 21.0465L18.9271 20.9772L18.8856 20.9633V20.9356L18.844 20.9218L18.7451 20.809L18.6896 20.71L18.7035 20.6684L18.6481 20.6546L18.6204 20.5556L18.5214 20.4151L18.3947 20.2469V20.2192H18.367L18.3255 20.1558L18.3116 20.1143L18.2127 20.1004L18.1711 20.0588L18.1018 20.0311L18.0187 20.0034L17.8782 19.9619L17.8366 19.948L17.8089 19.9203L17.7535 19.9065L17.7812 19.9619H17.7515L17.7377 19.9896L17.6961 19.9619V19.9342L17.6545 19.9203L17.6268 19.8372H17.5991L17.5437 19.7541L17.5298 19.7125L17.4883 19.6986L17.4329 19.572L17.3636 19.4888L17.3359 19.4196L17.419 19.378H17.4467V19.3503L17.3201 19.3226V19.2949H17.2923V19.2672L17.2369 19.2395L17.2191 19.1326Z" fill="#156A9C"/>
<path d="M28.4153 18.812L28.4846 18.8258V18.8674H28.5261L28.5815 19.0218L28.6231 19.2316L28.5954 19.3147L28.5815 19.3701L28.6805 19.3424H28.7082L28.6944 19.3978L28.5677 19.566H28.54L28.5538 19.4968L28.54 19.4552L28.441 19.5383H28.4133L28.3995 19.5799H28.3717L28.3579 19.6215L28.1897 19.6907L28.1204 19.7323H28.0788L28.0927 19.7739H28.0511L28.0373 19.8293H27.9957L27.9818 19.8847L27.8829 20.0391L27.8255 20.1281H27.7978L27.7701 20.1835L27.7008 20.2113L27.6315 20.2805H27.59L27.5761 20.3359L27.5346 20.3636L27.5068 20.3775L27.493 20.4329L27.4514 20.4468H27.4237L27.3248 20.4745L27.3109 20.4052L27.3248 20.3221L27.2832 20.2944L27.3248 20.1677L27.5484 19.9441L27.6612 19.8451L27.8572 19.6492L27.8987 19.5938H27.9264L27.9403 19.5522L28.0531 19.4532L28.3757 19.1306L28.4173 19.0178V18.8634V18.812H28.4153Z" fill="#085486"/>
<path d="M23.9859 18.9802H24.1126L24.3639 19.0218L24.5045 19.0495L24.5322 19.0772L24.7281 19.1326L24.8112 19.188L24.8805 19.2573L24.9636 19.3266L25.0329 19.4097L25.0745 19.4236V19.4513L25.1299 19.4651V19.4928L25.1991 19.5067V19.5344L25.2684 19.5482L25.4643 19.6472V19.6749H25.4921L25.5613 19.7877V19.8154L25.6306 19.8431L25.686 19.9124L25.7276 19.954L25.7414 20.0094H25.7691L25.8107 20.0925V20.1202H25.8384V20.1479H25.8661L25.9215 20.2311L25.9908 20.3003L26.1452 20.4408L26.1867 20.4547L26.2422 20.5101L26.3253 20.5517L26.353 20.6071V20.6764L26.3807 20.7318V20.7872L26.4361 20.8149V20.8426L26.3668 20.8149L26.1709 20.6744L26.0304 20.5477L25.9176 20.4488L25.7355 20.2805L25.6227 20.1816V20.1539L25.5673 20.1262L25.3298 19.8887L25.217 19.7897L25.021 19.6076L24.7123 19.3563L24.6133 19.2435L24.5005 19.1742L24.4015 19.1465V19.1188H24.0512L23.883 19.0911L23.8691 19.0495L23.883 19.0079L23.9859 18.9802Z" fill="#0D5384"/>
<path d="M27.9106 16.7655H27.9521V16.8209L27.9798 16.8348L27.9937 16.9041L27.9244 17.0169L27.869 17.1158L27.7859 17.2425L27.7582 17.3118V17.4662L27.7997 17.5651H27.869L27.9106 17.7195H27.9383L27.966 17.8739H27.9937L28.0075 17.9293H28.0352L28.0907 18.0282L28.1322 18.1272L28.1599 18.2677L28.1461 18.2954L28.0907 18.3093V18.2816H28.063L27.964 18.1688V18.1272L27.9224 18.1133V18.0856L27.8809 18.1133L27.9501 18.24V18.2816L27.9086 18.2677L27.8096 18.1133L27.6691 17.9036L27.487 17.6364L27.3742 17.4404L27.3604 17.4127V17.2999L27.4158 17.1871L27.4712 17.1594L27.485 17.1317L27.5543 17.0901L27.7502 16.8942L27.8769 16.8111L27.9046 16.7972V16.7655H27.9106Z" fill="#085486"/>
<path d="M9.74974 12.2807H9.7636L9.77745 12.3935L9.7636 12.4074V12.4767L9.79131 12.5044L9.77745 12.6033L9.7636 12.6588V12.7003L9.79131 12.8131V12.8547L9.81901 12.9378L9.88828 13.3713L9.9437 13.7077L9.97141 13.8344L10.013 14.1431L10.0545 14.4657L10.0961 14.7468L10.2089 15.4474L10.2228 15.6988L10.2366 15.8116L10.2228 15.867L10.1812 15.8947L10.1951 16.0214L10.1673 16.0768L9.95756 14.7745L9.84474 14.1016L9.71808 13.205L9.69037 12.9536L9.67651 12.5895L9.71808 12.2946L9.74974 12.2807Z" fill="#156A9C"/>
<path d="M10.7868 16.528H10.8007L10.8284 16.6547L10.8838 16.7813L10.9531 16.8645L11.1075 16.9911L11.2203 17.0901L11.3608 17.1891L11.5567 17.3296L11.7942 17.484L12.0456 17.6522L12.2692 17.8066L12.7739 18.143L12.9976 18.2974L13.2647 18.4656L13.4607 18.5784L13.6428 18.6616L13.6843 18.6754H13.811L13.8664 18.62L14.0485 18.6477L14.286 18.6893L14.3553 18.62L14.3414 18.719L14.2425 18.7467H14.0881L13.9476 18.7605L13.8783 18.7882L13.8367 18.8436L13.6131 18.9129L13.4448 18.8575L13.2628 18.7447L13.1935 18.6457V18.618L13.1519 18.6042L13.0965 18.5349V18.5072L13.0411 18.4795L12.958 18.4241L12.9026 18.3686V18.3409L12.8471 18.3271L12.7917 18.2717V18.244L12.7363 18.2301V18.2024L12.6809 18.1747L12.5404 18.0916V18.054L12.4414 18.0262V17.9985L12.386 17.9708L12.287 17.9016L12.3009 17.86L12.2593 17.8738L12.2178 17.8046L12.1346 17.7492L11.8536 17.5671L11.7546 17.5532L11.7131 17.4978V17.4701L11.6557 17.48L11.6003 17.4523V17.4107L11.4597 17.2979L11.3608 17.2425H11.3054L11.1648 17.1732L10.9828 17.0188L10.87 16.9199L10.771 16.7932L10.7433 16.6804L10.771 16.625L10.7868 16.528Z" fill="#448DB4"/>
<path d="M29.7037 9.80084L29.773 9.84241L29.8284 10.0661L29.8442 10.4738V11.3565L29.8304 11.6791L29.8165 11.8057L29.8304 11.8334L29.7888 11.974H29.7472L29.7057 11.8057L29.6918 11.7642H29.6641L29.6503 11.7365L29.6364 11.6098L29.6226 11.1328L29.6364 11.1051L29.6503 10.1808L29.6641 9.83053L29.7037 9.80084Z" fill="#085486"/>
<path d="M17.9475 20.2409H17.9891L18.0722 20.3399L18.1415 20.4092L18.2107 20.522V20.5497H18.2384L18.3374 20.6902L18.379 20.7595L18.4205 20.8584L18.4898 20.9139L18.5452 20.997L18.6719 21.1652L18.7708 21.2068L18.8837 21.2206L18.9965 21.276L19.1924 21.3315L19.3329 21.3869L19.6278 21.4007H20.0058L20.3007 21.4146H20.5818L20.6807 21.4284L20.7797 21.4146L20.8628 21.4284L20.8213 21.4561L20.5976 21.4977L20.3304 21.5116H19.3923L18.9589 21.4839L18.8322 21.4423L18.6917 21.3156L18.565 21.1751L18.4106 20.9653L18.3968 20.896L18.2424 20.6724L18.2008 20.617L18.1731 20.5042L18.1316 20.4903L18.0623 20.3636L17.993 20.2944L17.9475 20.2409Z" fill="#146A9C"/>
<path d="M19.3903 8.7222H20.6926L20.9163 8.73605L21.0983 8.76376V8.77761L21.3358 8.79147V8.80532L20.9301 8.81918L19.8515 8.83303H14.6542V8.81918L17.708 8.80532L17.8485 8.81918V8.79147L17.9891 8.77761L18.2127 8.76376L18.8856 8.73605L19.3903 8.7222Z" fill="#0E5587"/>
<path d="M22.8657 19.19H22.9073L22.8934 19.2454L22.8103 19.3582L22.7114 19.5126L22.6124 19.5957L22.4442 19.665L22.2205 19.7343L22.1651 19.7481H21.9553V19.6492H21.9276V19.5938L21.9969 19.5522L22.0246 19.5106H22.0523L22.0384 19.4552L22.0246 19.4275L22.08 19.3998L22.2621 19.3859L22.4026 19.3444L22.6124 19.289L22.7114 19.2613L22.7945 19.2474V19.2197L22.8657 19.19Z" fill="#0E5587"/>
<path d="M13.6725 23.1543L13.7556 23.1681L13.7834 23.1543L13.9931 23.2235L14.3019 23.3067L14.4147 23.3759L14.4701 23.4591L14.4563 23.5857L14.4009 23.5996L14.3454 23.5719L14.1911 23.4729V23.4313L14.1495 23.4452L14.1079 23.4313L14.0941 23.4729L14.0387 23.5006L13.9971 23.5283L14.0387 23.556L13.9694 23.5699L13.8704 23.5422L13.7576 23.4868L13.6745 23.3601L13.6329 23.2334V23.1642L13.6725 23.1543Z" fill="#146A9C"/>
<path d="M21.227 19.6373H21.2408V19.7363L21.1577 19.946L21.0746 20.1974L21.0469 20.2964L20.9637 20.5477L20.9499 20.6467L20.9083 20.7595L20.8391 20.9416L20.7836 20.9693V20.997L20.7421 21.0247L20.5877 21.0524L19.3962 21.0385L19.3824 21.0247H19.2696L19.2142 21.0524L19.1013 20.997L19.0182 20.9416L18.9054 20.7872V20.7595L18.8638 20.7456V20.7179L18.8084 20.6902L18.6541 20.4666L18.6679 20.425L18.7233 20.4804L18.85 20.6625L19.0321 20.8723L19.1864 20.9713L19.5368 20.999H20.4056L20.5877 20.9713L20.7282 20.9158L20.8272 20.7615L20.9261 20.5378L21.221 19.6551L21.227 19.6373Z" fill="#448DB4"/>
<path d="M14.3453 18.6714L14.373 18.6853L14.4146 19.091V19.3582H14.4008L14.3869 19.2593L14.3592 19.2454L14.1355 19.2316L14.1771 19.2038H14.2761L14.2068 19.0218V18.9644L14.1652 18.9505L14.1514 18.9228L14.0683 18.8951L13.9139 18.8535L13.8723 18.8258L13.8862 18.7704L13.9554 18.7427L14.1929 18.7288L14.3473 18.715V18.6714H14.3453Z" fill="#085486"/>
<path d="M9.70815 12.3658H9.72201V12.9121L9.73586 12.9398L9.74972 13.0803L9.73586 13.1219H9.76357L9.79128 13.205L9.77743 13.2327H9.80513V13.2604H9.77743L9.80513 13.302L9.81899 13.4841V13.6939L9.8744 14.058L9.92982 14.1986V14.2401H9.95753L9.92982 14.1708L9.94368 14.0719H9.95753L9.98524 14.254L10.0129 14.3371V14.5746L9.98524 14.5607V14.7013L9.99909 14.8279L10.098 15.4296V15.5424H10.0842L9.8467 14.0996L9.72003 13.203L9.69232 12.9517L9.67847 12.5875L9.70815 12.3658Z" fill="#438CB2"/>
<path d="M10.7868 16.528H10.8007L10.8284 16.6547L10.8838 16.7813L10.9531 16.8645L11.1075 16.9911L11.2203 17.0901L11.3608 17.1891L11.5567 17.3296L11.7942 17.484L12.0456 17.6522L12.1148 17.7215L12.0456 17.6937L11.8496 17.5671L11.7507 17.5532L11.7091 17.4978V17.4701L11.6557 17.48L11.6003 17.4523V17.4107L11.4597 17.2979L11.3608 17.2425H11.3054L11.1648 17.1732L10.9828 17.0188L10.87 16.9199L10.771 16.7932L10.7433 16.6804L10.771 16.625L10.7868 16.528Z" fill="#438CB2"/>
<path d="M17.2191 19.1326L17.233 19.1603L17.3022 19.1742L17.4705 19.2157L17.6803 19.2434L17.8208 19.3127L18.0029 19.4809L18.1295 19.6492L18.1018 19.7046L18.0326 19.6769L17.9197 19.5641L17.8505 19.4809L17.7515 19.3978L17.6526 19.3562L17.5971 19.3424L17.4428 19.3562L17.3161 19.3147V19.287H17.2884V19.2593L17.233 19.2316L17.2191 19.1326Z" fill="#438CB2"/>
<path d="M10.6187 23.1266L10.6464 23.1404L10.6187 23.1681L10.5632 23.182L10.591 23.2512L10.5355 23.3067L10.4801 23.3344L10.2842 23.3482L10.2288 23.3205L10.1872 23.3898H10.1456H10.1179L10.1318 23.4313L10.0764 23.4729L10.0071 23.5283L9.89429 23.5422L9.86658 23.4868L9.88043 23.4175L10.021 23.3185L10.2307 23.2354L10.5395 23.1523L10.6187 23.1266Z" fill="#186C9D"/>
<path d="M10.9135 9.0448L10.9273 9.10022L10.8719 9.24074L10.8303 9.39511L10.8026 9.40897L10.8165 9.45053L10.7749 9.53365L10.7334 9.70188L10.6918 9.77115L10.6641 9.85428H10.6364L10.6225 9.92355L10.5394 10.1472L10.484 10.2877L10.4701 10.357L10.4424 10.4124L10.3731 10.5806L10.3316 10.6796H10.3098L10.3237 10.5668L10.5196 10.0344L10.7294 9.47428L10.8838 9.06855L10.9135 9.0448Z" fill="#105789"/>
<path d="M18.8718 21.4166L19.0261 21.4443L19.1667 21.4581L19.3487 21.472H20.7084V21.4858L20.5956 21.4997L20.3284 21.5135H19.3903L18.9569 21.4858L18.8579 21.4581L18.8718 21.4166Z" fill="#448DB4"/>
<path d="M11.3608 9.03094L11.3746 9.05865L11.3192 9.18532L11.2915 9.25459V9.35355L11.2638 9.43667L11.2776 9.49209L11.1945 9.72959L11.1668 9.67417V9.64647L11.1252 9.63261V9.56334H11.153L11.1668 9.43667L11.2222 9.24074L11.2776 9.12792V9.11407L11.2915 9.08636H11.3192L11.3331 9.0448L11.3608 9.03094Z" fill="#438CB2"/>
<path d="M27.0002 20.8011H27.0833L27.111 20.8565L26.9982 20.9119H26.9289L26.8874 20.9535L26.6914 20.9673L26.6776 20.9257L26.5232 20.898V20.8842L26.6499 20.8565L26.9863 20.8149L27.0002 20.8011Z" fill="#438CB2"/>
<path d="M13.5616 19.1187L13.7437 19.1465L13.8268 19.1603V19.188H13.8545L13.8684 19.1603L13.91 19.188L14.2603 19.2296V19.2434H13.9792L13.6289 19.2157L13.4053 19.1742L13.3221 19.1465V19.1326H13.5181L13.5616 19.1187Z" fill="#448DB4"/>
<path d="M10.015 12.9814H10.0288L10.0427 13.0506V13.682V13.7235V13.7512L9.98724 13.7235L9.97339 13.2327V13.0783L10.0011 13.0229L9.98724 12.9952L10.015 12.9814Z" fill="#156A9C"/>
<path d="M21.2962 20.6744H21.3655L21.4209 20.6882L21.4071 20.7575L21.3081 20.995L21.2665 21.0504L21.225 20.9376L21.2388 20.8248L21.2665 20.7832H21.2942L21.2804 20.7278L21.2962 20.6744Z" fill="#176B9D"/>
<path d="M23.9167 10.0957H23.9444L24.0136 10.1789L24.0552 10.2066V10.2343L24.1106 10.262L24.1522 10.3035L24.2511 10.359V10.3867L24.2927 10.4005L24.3204 10.4837L24.4194 10.5965L24.5183 10.6954L24.5322 10.737L24.4768 10.7231L24.3224 10.5549L24.1542 10.3867L24.0552 10.2739L23.9147 10.1195V10.0957H23.9167Z" fill="#0D588A"/>
<path d="M23.7623 19.1484H24.3224L24.2947 19.1761L24.2531 19.19H23.7623L23.4258 19.2039H23.0755L22.9489 19.19V19.1761L23.7623 19.1484Z" fill="#448DB4"/>
<path d="M28.8071 18.7546H28.8348L28.8764 18.9228V19.0356L28.8071 19.2177L28.7794 19.1761V19.0772L28.7656 19.0079L28.7517 18.9248L28.7794 18.8417V18.8001H28.8071V18.7546Z" fill="#448DB4"/>
<path d="M11.6696 25.2146L11.7963 25.2839L11.9368 25.4244V25.4521L11.9645 25.466L11.9506 25.5075L11.8814 25.4798L11.7131 25.3254L11.6577 25.2562L11.6696 25.2146Z" fill="#15699B"/>
<path d="M10.5631 9.98291L10.577 10.0245L10.5216 10.1927L10.48 10.2917L10.4662 10.3609L10.4385 10.4163L10.3692 10.5846L10.3276 10.6835H10.3098L10.3237 10.5707L10.5196 10.0383L10.5335 9.99676L10.5631 9.98291Z" fill="#135A8B"/>
<path d="M21.9691 8.74991H22.0384V8.81918V8.8746L21.9691 8.84689L21.8286 8.81918L21.6188 8.80532L21.6603 8.77762L21.8424 8.76376L21.9117 8.77762L21.9691 8.74991Z" fill="#145B8C"/>
<path d="M9.93182 11.7206L9.94567 11.7622L9.90411 11.875L9.8764 12.0432L9.84869 12.1264L9.80713 12.1125L9.82098 11.9859L9.90411 11.7484L9.93182 11.7206Z" fill="#12598A"/>
<path d="M10.2822 12.0432H10.296V12.1838L10.2545 12.2669L10.2129 12.3085L10.1852 12.2946V12.2253L10.2267 12.1264L10.2406 12.071L10.2822 12.0432Z" fill="#0D588A"/>
<path d="M9.70825 12.3658H9.7221V12.9121L9.73596 12.9398L9.74981 13.0803L9.7221 13.1219L9.70825 13.108L9.68054 12.6884L9.6944 12.4648L9.70825 12.3658Z" fill="#448DB4"/>
<path d="M25.977 10.9646L26.0186 10.9785L25.9909 11.0339L25.8365 11.1467H25.8088L25.7949 11.1882L25.7672 11.1744L25.7811 11.119L25.88 11.0358L25.9493 10.9804L25.977 10.9646Z" fill="#448DB4"/>
<path d="M27.3782 17.2425L27.4059 17.2979L27.4475 17.3118L27.4198 17.3395L27.4752 17.3672L27.4614 17.3949L27.4337 17.381L27.4475 17.4503H27.4198L27.4059 17.478L27.3644 17.3949V17.2821L27.3782 17.2425Z" fill="#1D71A1"/>
<path d="M21.0588 21.1929L21.1419 21.2345L21.1142 21.2899L21.0726 21.3176L21.0311 21.2899H20.9618L20.9756 21.2483L21.0588 21.1929Z" fill="#196B9C"/>
<path d="M14.3593 23.4353H14.4582L14.4721 23.463V23.5461L14.4444 23.56L14.3751 23.5184L14.3593 23.4353Z" fill="#448DB4"/>
<path d="M17.2469 19.7917L17.2607 19.8332L17.2469 19.861L17.2192 20.1974H17.2053V19.8748L17.233 19.8055L17.2469 19.7917Z" fill="#206997"/>
<path d="M10.3238 11.9443H10.3515L10.3376 12.0709L10.3099 12.1402H10.2961L10.2822 12.0571L10.2545 12.0432V12.0155H10.2822L10.3099 11.9601L10.3238 11.9443Z" fill="#166191"/>
<path d="M22.1096 9.85626H22.1374L22.1651 9.98293L22.2482 9.99678V10.0106H22.1354L22.1077 9.99678V9.85626H22.1096Z" fill="#448DB4"/>
<path d="M10.1278 15.7285H10.1417L10.1555 15.869L10.1971 15.8828V15.9382L10.1832 16.0788H10.1694L10.1278 15.8116V15.7285Z" fill="#307EAA"/>
<path d="M21.7732 8.76376H21.8424L21.9117 8.79147V8.80533H21.6168L21.6584 8.77762L21.7732 8.76376Z" fill="#085486"/>
<path d="M10.199 10.9646L10.2129 11.0062L10.1298 11.2437L10.1021 11.2575L10.1159 11.1586L10.1852 10.9765L10.199 10.9646Z" fill="#175E8E"/>
<path d="M10.3949 10.4322L10.4088 10.4738L10.3256 10.6835H10.3098L10.3237 10.5707L10.3791 10.4441L10.3949 10.4322Z" fill="#135D8E"/>
<path d="M18.2701 20.7456L18.3256 20.7733L18.4245 20.9277H18.383L18.2701 20.7595V20.7456Z" fill="#155D8D"/>
<path d="M28.2035 19.3008V19.3424L28.0353 19.5106L28.0076 19.4968L28.0907 19.3978L28.2035 19.3008Z" fill="#156A9C"/>
<path d="M12.1604 18.335L12.2871 18.4043V18.432L12.3286 18.4458L12.3148 18.4735L12.1881 18.3904L12.1604 18.335Z" fill="#175E8E"/>
<path d="M9.93182 11.7206L9.94567 11.7622L9.90411 11.875L9.86255 11.8889L9.90411 11.7484L9.93182 11.7206Z" fill="#165E90"/>
<path d="M10.296 10.6974L10.3099 10.739L10.2545 10.8795L10.2267 10.9349L10.2129 10.8933L10.2683 10.7251L10.296 10.6974Z" fill="#155F90"/>
<path d="M10.9966 8.82114L11.0104 8.84884L10.955 9.01707L10.9135 9.03093L10.9273 8.96166L10.9966 8.82114Z" fill="#156090"/>
<path d="M21.5199 20.3656L21.5337 20.4072L21.4922 20.5339L21.4645 20.4784L21.4783 20.4092L21.5199 20.3953V20.3656Z" fill="#2575A4"/>
<path d="M27.6157 16.8922V16.9337L27.5602 17.0169L27.491 17.0723L27.5187 17.003L27.6157 16.8922Z" fill="#448DB4"/>
</svg>
