<svg width="20" height="20" viewBox="0 0 20 20" fill="none" xmlns="http://www.w3.org/2000/svg">
    <path
        d="M5.00016 15.8334V8.33337C5.00016 7.00729 5.52695 5.73552 6.46463 4.79784C7.40231 3.86016 8.67408 3.33337 10.0002 3.33337C11.3262 3.33337 12.598 3.86016 13.5357 4.79784C14.4734 5.73552 15.0002 7.00729 15.0002 8.33337V15.8334M5.00016 15.8334H15.0002M5.00016 15.8334H3.3335M15.0002 15.8334H16.6668M9.16683 18.3334H10.8335"
        stroke="#00497C" stroke-width="0.833333" stroke-linecap="round" stroke-linejoin="round" />
    <path
        d="M9.99984 3.33338C10.4601 3.33338 10.8332 2.96029 10.8332 2.50005C10.8332 2.03981 10.4601 1.66672 9.99984 1.66672C9.5396 1.66672 9.1665 2.03981 9.1665 2.50005C9.1665 2.96029 9.5396 3.33338 9.99984 3.33338Z"
        stroke="#00497C" stroke-width="0.833333" />
</svg>