<svg width="52" height="44" viewBox="0 0 52 44" fill="none" xmlns="http://www.w3.org/2000/svg">
    <path
        d="M26.7662 7.17029H27.1024L27.6259 7.22674L28.0005 7.30116L28.3752 7.41406L28.8422 7.63731L29.1398 7.82463L29.3272 7.97347L29.5504 8.17875L29.7377 8.36607L29.9045 8.57136L30.0534 8.73815L30.1842 8.92547L30.2586 9.05634L30.3716 9.07431L34.0487 9.09227L34.7031 9.13076L35.206 9.20517L35.4678 9.27959L35.7859 9.42842L36.0836 9.65167L36.2709 9.81846L36.4198 9.96729L36.643 10.265L36.8483 10.6011L36.9792 10.8808L37.0715 11.199L37.128 11.4967L37.1665 11.9457L37.205 12.8977L37.2229 13.8497V27.8887L37.205 29.6618L37.187 30.5394L37.1485 31.1553L37.0921 31.4735L36.9792 31.7711L36.8124 32.0688L36.625 32.3125L36.4018 32.5743L36.1786 32.7975L35.9553 32.9643L35.6371 33.1517L35.2445 33.3005L34.7775 33.3929L34.4028 33.4314L33.32 33.4698L31.3595 33.4878L23.8358 33.5058H21.0516L19.8943 33.4878L19.3529 33.4493L18.9038 33.3749L18.5112 33.262L18.1186 33.0952L17.821 32.9079L17.5772 32.7026L17.3719 32.4973L17.1486 32.1996L16.9998 31.9379L16.9074 31.7147L16.833 31.4529L16.7766 31.1347L16.7381 30.6113L16.7201 29.4719L16.7021 26.988V15.4792L16.7201 14.0037L16.7381 11.9124L16.7766 11.4633L16.851 11.0887L16.9639 10.7525L17.1127 10.4548L17.2436 10.2496L17.4489 9.98782L17.6721 9.78254L17.8594 9.63371L18.1032 9.48487L18.3265 9.37197L18.6806 9.25906L19.0912 9.16668L19.5402 9.11023L19.8764 9.09227H23.4047L23.6279 9.11023L23.7024 8.94344L23.8153 8.72019L24.0026 8.47641L24.2643 8.19671L24.5081 7.99143L24.7698 7.80411L25.0136 7.65527L25.4422 7.44999L25.8348 7.31912L26.2633 7.22674L26.7662 7.17029Z"
        fill="#FEFEFE" />
    <path
        d="M26.7662 7.17029H27.1024L27.6259 7.22674L28.0005 7.30116L28.3752 7.41406L28.8422 7.63731L29.1398 7.82463L29.3272 7.97347L29.5504 8.17875L29.7377 8.36607L29.9045 8.57136L30.0534 8.73815L30.1842 8.92547L30.2586 9.05634L30.3716 9.07431L34.0487 9.09227L34.7031 9.13076L35.206 9.20517L35.4678 9.27959L35.7859 9.42842L36.0836 9.65167L36.2709 9.81846L36.4198 9.96729L36.643 10.265L36.8483 10.6011L36.9792 10.8808L37.0715 11.199L37.128 11.4967L37.1665 11.9457L37.205 12.8977L37.2229 13.8497V27.8887L37.205 29.6618L37.187 30.5394L37.1485 31.1553L37.0921 31.4735L36.9792 31.7711L36.8124 32.0688L36.625 32.3125L36.4018 32.5743L36.1786 32.7975L35.9553 32.9643L35.6371 33.1517L35.2445 33.3005L34.7775 33.3929L34.4028 33.4314L33.32 33.4698L31.3595 33.4878L23.8358 33.5058H21.0516L19.8943 33.4878L19.3529 33.4493L18.9038 33.3749L18.5112 33.262L18.1186 33.0952L17.821 32.9079L17.5772 32.7026L17.3719 32.4973L17.1486 32.1996L16.9998 31.9379L16.9074 31.7147L16.833 31.4529L16.7766 31.1347L16.7381 30.6113L16.7201 29.4719L16.7021 26.988V15.4792L16.7201 14.0037L16.7381 11.9124L16.7766 11.4633L16.851 11.0887L16.9639 10.7525L17.1127 10.4548L17.2436 10.2496L17.4489 9.98782L17.6721 9.78254L17.8594 9.63371L18.1032 9.48487L18.3265 9.37197L18.6806 9.25906L19.0912 9.16668L19.5402 9.11023L19.8764 9.09227H23.4047L23.6279 9.11023L23.7024 8.94344L23.8153 8.72019L24.0026 8.47641L24.2643 8.19671L24.5081 7.99143L24.7698 7.80411L25.0136 7.65527L25.4422 7.44999L25.8348 7.31912L26.2633 7.22674L26.7662 7.17029ZM26.7098 7.88109L26.2813 7.91958L26.0016 7.97603L25.6654 8.08894L25.3113 8.25573L25.0316 8.44305L24.7698 8.64834L24.5466 8.85362L24.3413 9.0974L24.1925 9.34118L24.0052 9.67733L23.9667 9.79024L20.9618 9.75175H19.8789L19.2066 9.79024L18.909 9.84669L18.6113 9.9596L18.3496 10.1084L18.1263 10.2752L17.921 10.4625L17.7902 10.6114L17.6234 10.8731L17.531 11.0784L17.4745 11.2837L17.4489 11.4274V13.4443L17.4668 17.8323V30.3777L17.4848 30.9936L17.5233 31.3682L17.5797 31.612L17.7106 31.8738L17.9159 32.1355L18.1212 32.3228L18.4573 32.5461L18.737 32.6769L19.0912 32.7693L19.5761 32.8258L19.8738 32.8437L21.3852 32.8617H32.9787L34.2668 32.8437L34.7339 32.8052L35.1085 32.7308L35.3318 32.6384L35.537 32.5255L35.7808 32.3202L35.9681 32.1535L36.1555 31.9302L36.3043 31.6685L36.3787 31.3323L36.4172 30.8653L36.4352 29.9133L36.4531 25.0224V12.1921L36.4352 11.6506L36.3967 11.2401L36.3223 10.9604L36.1914 10.6986L35.9681 10.401L35.7064 10.1777L35.4087 10.0109L35.2034 9.91854L34.8853 9.82616L34.4362 9.76971L34.1924 9.75175H31.6546L30.9079 9.76971H29.9559L29.8429 9.60291L29.6762 9.28472L29.4529 8.94857L29.2476 8.70479L29.0603 8.538L28.7241 8.31475L28.2956 8.10947L27.9774 8.01709L27.6028 7.94267L27.2666 7.90418L26.9869 7.88622H26.7098V7.88109Z"
        fill="#1E6895" />
    <path
        d="M17.3744 15.7409L17.4489 15.7768V16.7108L17.4668 21.3221L17.4489 29.3872V30.583L17.4874 31.1424L17.5438 31.5709L17.6182 31.6453L17.7311 31.8686L17.9364 32.1303L18.1237 32.2971L18.4599 32.5203L18.7396 32.6512L19.0937 32.7436L19.5787 32.8L19.8764 32.818L21.3878 32.836H32.9812L34.2694 32.818L34.7364 32.7795L35.1111 32.7051L35.3163 32.6487L35.5396 32.5357L35.6884 32.4434L35.7064 32.4819L35.8732 32.369L36.0605 32.1816H36.099L36.1375 32.1072L36.2504 31.9763L36.3633 31.789V31.5273L36.4197 31.5093L36.4018 31.3785L36.4197 31.0988L36.4377 31.0243L36.4557 29.7541L36.4736 29.4744L36.5121 29.4359L36.5506 29.5848L36.5327 29.6772L36.5711 29.7901L36.5532 29.903L36.5917 30.352L36.6481 30.8755L36.7225 31.1552L36.761 31.2296L36.779 31.1732H36.8175L36.7995 31.2655L36.761 31.304L36.7995 31.4169L36.8919 31.4734L36.9304 31.5658L36.9868 31.5837L37.0048 31.7146L36.856 32.0123L36.6327 32.3099L36.4095 32.5717L36.1862 32.7949L35.963 32.9617L35.6448 33.149L35.2522 33.2979L34.7852 33.3902L34.4105 33.4287L33.3276 33.4672L31.3672 33.4852L23.8435 33.5031H21.0516L19.8943 33.4852L19.3529 33.4467L18.9038 33.3723L18.5112 33.2594L18.1186 33.0926L17.8209 32.9053L17.5772 32.7L17.3719 32.4947L17.1486 32.197L16.9998 31.9353L16.9074 31.712L16.8895 31.6556V31.4118L16.851 31.3194L16.833 31.0962H16.8715V30.7985L16.8895 29.7721L16.9074 28.9125V28.7457L16.9254 28.4095L16.9433 28.3916L16.9613 28.1478L16.9998 28.0169L17.0178 27.6063L17.0357 27.419V27.0084L17.0537 26.6723L17.0357 26.5799V26.5055L17.0537 26.3182V26.2258L17.0357 26.1873L17.0742 25.8896L17.0563 25.7973L17.0742 25.6305L17.0563 25.3867L17.0742 25.125V23.2081L17.0922 23.1696V22.387L17.0742 22.1637V21.8096L17.0922 21.6967V18.8381L17.0742 18.7072V17.922L17.0922 17.8091L17.0742 17.7347L17.0922 17.5679V16.562L17.1307 16.4696L17.1127 16.4132L17.1307 16.2259L17.1692 16.1874L17.2077 16.2259L17.2641 16.4311L17.3026 16.4876L17.3411 16.3567V16.2259L17.3591 16.0591L17.3744 15.7409Z"
        fill="#105D7D" />
    <path
        d="M25.832 15.646H33.076L33.561 15.664L33.8792 15.7024L33.9177 15.8333L33.9356 16.0951V17.0291L33.9177 17.3268L33.8997 17.4397L33.8253 17.4576L33.5276 17.4756L26.8071 17.4936H24.3796L24.2488 17.4371L24.1923 17.3242L24.1538 16.9316V16.1515L24.2103 15.7769L24.2667 15.7024L24.3232 15.6845L24.7158 15.6665L25.832 15.646Z"
        fill="#075080" />
    <path
        d="M27.6977 23.1337H32.5527L33.7485 23.1517L33.8973 23.1696L33.9152 23.1876L33.9332 23.4852V24.8478L33.8588 24.9222L33.7664 24.9402H28.4829L26.2042 24.9582H24.3182L24.2053 24.9197L24.1668 24.8453L24.1488 24.6964L24.1309 24.155V23.652L24.1488 23.2235L24.2797 23.185L24.6158 23.1671L25.437 23.1491L27.6977 23.1337Z"
        fill="#075080" />
    <path
        d="M24.6569 19.6234H33.1711L33.8998 19.6413L33.9178 19.6978L33.9358 20.1648V21.0245L33.9178 21.3786L33.8998 21.3965L32.6117 21.4145H24.2437L24.1873 21.358L24.1693 21.2272L24.1514 20.7986V19.921L24.1693 19.6413L24.6569 19.6234Z"
        fill="#B21A3B" />
    <path
        d="M25.8501 26.662H32.0471L33.5791 26.68L33.8228 26.698L33.8973 26.7365L33.9358 27.0341V28.2479L33.8793 28.3787L33.7484 28.4352L26.4685 28.4532H24.6004L24.3567 28.4352L24.2078 28.3787L24.1693 28.2864L24.1514 28.0811V26.8314L24.1899 26.7005L24.4696 26.6826L25.8501 26.662Z"
        fill="#055080" />
    <path
        d="M26.4301 7.50638H26.561L26.5994 7.54487L26.3018 7.61928L25.9477 7.75015L25.668 7.89899L25.5551 7.95544L25.573 8.01189L25.6295 8.05038L25.4422 8.14276H25.3677V8.21718L25.2369 8.29159L25.1445 8.38397L24.9392 8.5328L24.7519 8.68163L24.5646 8.84843L24.3593 9.0922L24.2104 9.33598L24.0231 9.67213L23.9667 9.78504H22.2474L20.9592 9.76708H19.8764L19.2041 9.80557L18.9064 9.86202L18.6087 9.97493L18.347 10.1238L18.1237 10.2906L17.9364 10.4573L17.8056 10.6062L17.6388 10.8679L17.5464 11.0732L17.4899 11.2785L17.472 11.4273V13.4442L17.4899 17.8322V30.3777L17.5079 30.9935L17.5464 31.3682L17.5849 31.612L17.5284 31.5735L17.472 31.1449L17.4335 30.5855V29.1845L17.4489 20.8371L17.4309 16.1335V15.7794L17.3745 15.7409V16.1335L17.3565 16.3208L17.318 16.5081L17.2436 16.4337L17.1871 16.2284H17.1486L17.1307 16.4337L17.1486 16.4902L17.1102 16.5825V17.6269L17.0922 17.7578L17.1102 17.8707L17.0922 17.9451V18.7483L17.1102 18.8792V21.7172L17.0922 21.9225V22.1842L17.1102 22.4075V23.1927L17.0922 23.2312V25.2661L17.0742 25.4149L17.0922 25.6767L17.0742 25.8819L17.0922 25.9204L17.0537 26.2181L17.0717 26.2745V26.4413V26.5158L17.0537 26.6081L17.0717 26.7005L17.0537 27.1111V27.5217L17.0357 27.7269L17.0178 28.0451L16.9793 28.2119L16.9613 28.3992L16.9434 28.4737L16.9254 28.9227L16.9074 30.0236L16.8895 31.0141L16.851 31.127L16.8689 31.3323L16.9074 31.4631L16.8895 31.612L16.851 31.5555L16.7766 31.1449L16.7381 30.6215L16.7201 29.4821L16.7021 26.9982V15.4791L16.7201 14.0036L16.7381 11.9123L16.7766 11.4632L16.851 11.0886L16.9639 10.7524L17.1127 10.4548L17.2436 10.2495L17.3924 10.0622L17.5053 9.98776L17.5797 9.94927L17.5977 9.98776L17.6926 9.91591L17.785 9.82353L17.9903 9.6747L18.1956 9.58232L18.2136 9.62081L18.3804 9.60285V9.64134L18.4933 9.6593L18.4548 9.56692L18.5856 9.49251L18.9038 9.3796L19.1091 9.32315L19.5376 9.2667L19.7994 9.2282L19.8558 9.21024V9.24873L20.3408 9.28722H21.0696L21.7239 9.30519H21.8907L22.3193 9.34368L22.4681 9.38217L22.8222 9.40013H22.971L23.1199 9.41809L23.5125 9.36164L23.5869 9.28722L23.7537 9.26926L23.941 9.28722L23.9975 9.26926L24.0154 9.17688L24.0539 9.06398L23.923 9.17688L23.8666 9.21537L23.7922 9.19741L23.7357 9.06654H23.7742L23.8127 8.97417L23.9615 8.76888L24.1283 8.56359L24.3336 8.37627H24.3721L24.3901 8.30186L24.4645 8.28389L24.503 8.20948L24.6698 8.06065L25.0239 7.81687L25.3036 7.66804L25.4524 7.61159V7.66804L25.2651 7.79891L25.0983 7.91182L25.2112 7.95031L25.455 7.87589L25.8296 7.7091L26.1658 7.59619L26.3531 7.57823L26.3711 7.53974L26.4301 7.50638Z"
        fill="#1E6895" />
    <path
        d="M26.7839 9.46686H27.1945L27.5486 9.52331L27.8103 9.61569L28.0721 9.78248L28.3158 10.0057L28.5211 10.211L28.7444 10.5087L28.8932 10.7884L29.0061 11.181L29.0446 11.4992V11.7224L29.0061 12.0406L28.9317 12.2639L28.7829 12.5615L28.634 12.7848L28.4672 12.9901L28.262 13.1953L28.1875 13.2877L27.9438 13.4545L27.7205 13.5674L27.4023 13.6418L27.0841 13.6803H26.73L26.4298 13.629L26.1321 13.5161L25.8139 13.3493L25.6266 13.2005L25.4213 13.0132L25.216 12.7514L25.0492 12.4538L24.9363 12.1561L24.8799 11.802V11.5582L24.9184 11.222L24.9928 10.9244L25.1057 10.6267L25.2545 10.365L25.4034 10.1597L25.5907 9.95441L25.8345 9.76709L26.1321 9.61826L26.4298 9.52588L26.7839 9.46686Z"
        fill="#1E6895" />
    <path
        d="M36.4911 29.4437H36.5091L36.5476 29.5925L36.5296 29.6849L36.5681 29.7978L36.5501 29.9107L36.5886 30.3597L36.6451 30.8832L36.7195 31.1629L36.758 31.2373L36.7759 31.1809H36.8144L36.7965 31.2733L36.758 31.3118L36.7965 31.4247L36.8889 31.4811L36.9273 31.5735L36.9838 31.5915L37.0018 31.7223L36.8529 32.02L36.6297 32.3177L36.4064 32.5794L36.1832 32.8026L35.9599 32.9694L35.6417 33.1568L35.2491 33.3056L34.7821 33.398L34.4075 33.4365L33.3246 33.4749H24.7668V33.457H25.1953L25.2133 33.4185V33.457H25.2518V33.4185L25.4006 33.362L25.4391 33.38L25.4776 33.362H25.6444L25.7188 33.3441L25.8856 33.3261L26.1294 33.3082L26.2217 33.2902V33.2517H26.2962L26.3346 33.2902L26.3911 33.3082V33.2517L26.504 33.2337H26.5605L26.5784 33.1952H26.4116V33.2337L26.3372 33.2158L26.114 33.1773L26.0755 33.1593H25.7573L25.6085 33.1414H25.2158L25.0285 33.1234L24.8977 33.1414L24.8232 33.1234L24.6744 33.1414L24.6 33.1234L24.1715 33.1414H23.3862L22.9372 33.1593H22.3573L22.2443 33.1414L21.6465 33.1234L21.105 33.0849H20.8997L20.8253 33.0669H20.6765L20.1915 32.9925L20.0991 32.954V32.8796L21.3129 32.8617L24.2818 32.8437H32.9807L34.2689 32.8257L34.7359 32.7872L35.1106 32.7128L35.3159 32.6564L35.5391 32.5435L35.6879 32.4511L35.7059 32.4896L35.8727 32.3767L36.06 32.1894H36.0985L36.137 32.1149L36.2499 31.9841L36.3628 31.7967V31.535L36.4193 31.517L36.4013 31.3862L36.4193 31.1065L36.4372 31.0321L36.4552 29.7619L36.4732 29.4822L36.4911 29.4437Z"
        fill="#143E6B" />
    <path
        d="M26.7276 10.1572H27.1381L27.4358 10.2316L27.7335 10.3804L27.9387 10.5292L28.1055 10.696L28.2544 10.9578L28.3108 11.1246L28.3493 11.3478V11.8148L28.2749 12.0586L28.162 12.2639L28.0132 12.4692L27.7335 12.7489L27.5282 12.8798L27.2331 12.9952L27.1202 13.0132H26.8764L26.5018 12.9388L26.2785 12.8464L26.0912 12.7335L25.9039 12.5667L25.773 12.4358L25.6421 12.2305L25.5292 11.9508L25.4907 11.7071V11.4453L25.5472 11.1656L25.6447 10.9424L25.7576 10.7756L25.9244 10.5883L26.1117 10.4215L26.3734 10.2726L26.6531 10.1803L26.7276 10.1572Z"
        fill="#FEFEFE" />
    <path
        d="M20.5102 19.1743H22.8068L22.8248 19.2308L22.8068 21.6403L21.593 21.6583H20.4717V19.1948L20.5102 19.1743Z"
        fill="#075080" />
    <path
        d="M21.5569 22.7411H22.8271L22.8091 25.1686L22.7527 25.1866H20.474L20.4561 22.777L20.474 22.7591L21.5569 22.7411Z"
        fill="#075080" />
    <path
        d="M21.7441 26.2309H22.827V28.6199L22.6217 28.6379L21.7441 28.6559L20.6997 28.6943H20.4944L20.4765 28.6764L20.4585 26.2874L20.4765 26.2694L20.6638 26.2515L21.7441 26.2309Z"
        fill="#074F7F" />
    <path
        d="M22.1909 15.6639H22.8453V16.485L22.8068 18.0708L21.144 18.0888H20.4717V15.6998L20.5102 15.6818L22.1909 15.6639Z"
        fill="#075080" />
    <path
        d="M16.928 30.021L17.0024 30.039L17.0588 30.1519L17.0973 30.1134L17.1717 30.3007L17.2102 30.488V30.6369L17.2487 30.6548L17.2667 30.8422L17.3231 31.1604L17.436 31.4401L17.4925 31.5145L17.5104 31.7583L17.5669 31.8712L17.6054 31.8891V31.9456H17.6439V32.002H17.6824L17.7388 32.0944L17.8877 32.2612L18.0006 32.3536V32.41L18.057 32.428V32.4665L18.1314 32.4844L18.1699 32.5024V32.5409L18.2443 32.5589V32.5974L18.3367 32.6153L18.4753 32.7282L18.5677 32.7667L18.6985 32.7847L18.7165 32.7462L19.0142 32.8026L19.1065 32.8206L19.2194 32.8386L19.3503 32.8206L19.7788 32.8386L21.3108 32.8565V32.8745H20.097L20.1355 32.9489L20.3228 32.9874L20.6975 33.0438H20.8284L20.9952 33.0618L22.1525 33.1183H22.2833L22.4322 33.1362H23.0121L23.5356 33.1183H24.3387L24.6184 33.1003L24.7108 33.1183L24.8417 33.1003L24.9341 33.1183L25.1009 33.1003L25.3241 33.1183H25.6218L25.7526 33.1362H26.0708L26.2376 33.1747L26.3505 33.1927H26.389L26.4814 33.1747L26.5738 33.1927L26.5558 33.2491H26.389V33.3056L26.2966 33.2876L26.2787 33.2697L26.2222 33.3082L25.9425 33.3466H25.7937L25.6628 33.3646L25.6243 33.3826H25.4755L25.419 33.4005L25.3446 33.3826L25.3267 33.4211H25.2523V33.4595L31.3569 33.4775V33.4955L23.8332 33.5134H21.0516L19.8943 33.4955L19.3529 33.457L18.9038 33.3826L18.5112 33.2697L18.1186 33.1029L17.8209 32.9155L17.5772 32.7103L17.3719 32.505L17.1486 32.2073L16.9998 31.9456L16.9074 31.7223L16.8895 31.6659V31.4221L16.851 31.3297L16.833 31.1065H16.8715V30.8088L16.8895 30.4547L16.928 30.021Z"
        fill="#095181" />
    <path
        d="M26.7661 7.17029H27.1023L27.6257 7.22674L28.0004 7.30116L28.375 7.41406L28.8421 7.63731L29.1397 7.82463L29.327 7.97347L29.4938 8.1223H29.4374L29.345 8.08381V8.1223L29.2141 8.08381L29.1012 8.00939L29.0627 7.9709L28.8754 7.87852L28.5957 7.74765L28.3725 7.63475L28.1851 7.57829L27.9799 7.48591L27.5513 7.39354L27.4769 7.37557L26.9919 7.35761V7.37557L26.8046 7.39354V7.44999L26.6378 7.48848L26.6943 7.50644L26.8251 7.46795L27.1613 7.50644L27.3845 7.5244L27.7027 7.58086L27.7951 7.61935L28.0928 7.65784L28.2596 7.71429L28.5778 7.88109L28.5957 7.9555L28.4828 7.93497L28.3519 7.89648L28.239 7.85799L28.3314 7.95037L28.4982 8.04275L28.5162 8.17362L28.683 8.266L28.6445 8.28396L28.2904 8.11716L27.9722 8.02479L27.5975 7.95037L27.2614 7.91188L26.9817 7.89392H26.702L26.2734 7.93241L25.9937 7.98886L25.6576 8.10177L25.3035 8.26856L25.2111 8.30705L25.4035 8.1223L25.4959 8.10433L25.5344 8.06584L25.6088 8.04788L25.5524 8.00939V7.9709L25.5139 7.95294L26.0733 7.67324L26.4274 7.56033L26.5583 7.52184H26.43L26.2632 7.57829L26.0399 7.63475L25.6653 7.78358L25.4035 7.89905H25.3266L25.3086 7.93754L25.1957 7.9555L25.0828 7.91701L25.1572 7.8426L25.4369 7.65527V7.61678L25.1392 7.76561L24.934 7.87852L24.5798 8.14026L24.4669 8.27113L24.3925 8.28909L24.3745 8.36351L24.1693 8.5303L24.0384 8.67913L23.8511 8.92291L23.7587 9.07174L23.8151 9.18465L23.8896 9.16668L24.0025 9.09227L24.0589 9.03581L24.0769 9.09227L24.0204 9.18465L24.0025 9.25906L23.9281 9.29755L23.7613 9.27959L23.556 9.29755L23.5175 9.37197L23.089 9.42842L22.976 9.41046H22.7708L22.4731 9.3925L22.2858 9.35401L21.8188 9.31552H21.5211L21.0361 9.29755H20.2509L19.8968 9.25906L19.8403 9.22057L19.8018 9.23853L19.1116 9.33091L18.7369 9.44382L18.5137 9.5362L18.4572 9.55416L18.4957 9.64654L18.3828 9.62857V9.59008L18.3443 9.60805H18.2134H18.139L17.9337 9.72095L17.7464 9.86978H17.7079L17.6694 9.9442L17.5771 10.0007L17.5591 9.96216L17.4282 10.0545V9.99809L17.672 9.77484L17.8593 9.62601L18.1031 9.47718L18.3263 9.36427L18.6805 9.25136L19.091 9.15899L19.5401 9.10253L19.8762 9.08457H23.4046L23.6278 9.10253L23.7022 8.93574L23.8151 8.71249L24.0025 8.46872L24.2642 8.18901L24.508 7.98373L24.7697 7.79641L25.0135 7.64758L25.442 7.44229L25.8346 7.31142L26.2632 7.21904L26.7661 7.17029Z"
        fill="#1B79AB" />
    <path
        d="M37.0897 11.3889H37.1076L37.1461 11.6686L37.1846 12.323L37.2026 12.9029L37.2205 13.8549V27.8938L37.2026 29.667H37.1846V24.8864L37.1102 24.8479L37.0922 24.7915V24.735L37.1102 24.6041L37.1282 24.5117L37.0897 24.3988L37.0717 24.0447L37.0537 23.1671V22.9054L37.0358 22.7925L37.0537 22.6052L37.0358 22.5667V21.2965L37.0178 21.1656V21.1092H37.0563L37.0178 20.9218V20.2136L36.9999 19.8595L37.0178 19.7286L36.9999 19.6542V18.8331L36.9819 18.5149V18.0658L36.9639 17.8041V17.4294L36.946 16.9804V16.7007L36.928 16.3825V15.9154L36.91 15.7487V15.4587L36.8921 15.2919L36.8741 14.8069L36.8356 14.4143V14.1705L36.8177 13.9652V13.7779L36.7997 13.665V13.1621L36.7817 12.8259L36.8741 12.5821L36.8921 12.0971L36.91 11.9304L36.9485 11.7995L36.9665 11.7251H37.005L37.0435 11.6122L37.082 11.5377L37.0897 11.3889Z"
        fill="#247EAA" />
    <path
        d="M16.7973 11.353L16.8358 11.3709L16.8538 11.4633L16.9102 11.5942V12.1177L16.8717 12.2485L16.8538 12.3794L16.8358 12.6411L16.8538 12.772V12.9208L16.8897 12.9952L16.8717 13.1261L16.9102 13.257V14.694L16.9282 14.8993V15.8333L16.9102 16.5236L16.8923 17.1959V17.55L16.8743 17.7733L16.8923 17.9041L16.8743 18.1094V18.3327L16.8564 18.425L16.8743 18.5174V18.7407L16.8564 19.0024L16.8743 19.0768L16.8564 19.4515V19.7491L16.8743 19.7876L16.8564 19.8441L16.8743 19.9749L16.8358 20.0878L16.8743 20.1058L16.8564 20.1238V20.6472L16.8743 20.6857L16.8564 20.8166L16.8743 20.8731L16.8564 21.0039L16.8743 21.1528L16.8564 21.2657L16.8743 21.5094L16.8564 21.7147V21.92L16.8717 21.9765V22.0509V22.1817L16.8538 22.2382L16.8717 22.2946L16.8538 22.482L16.8358 22.7257V23.2287L16.8538 23.3955L16.8358 23.434V25.2071L16.8179 26.7391V27.1317L16.7999 27.7116V31.1476H16.7819L16.7434 30.6241L16.7255 29.4848L16.7075 27.0008V15.4792L16.7255 14.0037L16.7434 11.9124L16.7819 11.4633L16.7973 11.353Z"
        fill="#247EAA" />
    <path
        d="M25.8323 15.646H33.0763L33.5613 15.664L33.8795 15.7024L33.918 15.8333L33.9359 16.0951V17.0291L33.918 17.3268L33.9 17.4397H33.1918L33.2097 17.3832L33.3226 17.3268L33.1738 17.2703L32.9865 17.1959V17.1779H33.0789L33.0224 17.1035L32.93 17.0856L32.9121 17.1035L32.7632 17.1215V17.083L32.9685 17.0086L33.2482 16.8777L33.3611 16.8213H33.3996V16.7828H33.4381V16.7443H33.4766V16.8007H33.533L33.3842 16.9316L33.3098 17.024L33.2174 17.0804H33.1789L33.1969 17.1548L33.2713 17.2293L33.2893 17.1908V17.2293L33.3457 17.2113L33.551 17.2498H33.6998L33.6254 17.1189L33.6639 16.9521L33.7383 16.7468L33.7563 16.5416V16.3927L33.7178 16.1874L33.6254 16.0745L33.4201 16.0001L33.2893 15.9257L33.1225 15.8872L32.599 15.8487H31.7599L31.5367 15.8667H30.6411L30.2305 15.8487H30.0073L29.6532 15.8308L29.6147 15.8487H29.7276L29.7455 15.8872H29.2221L29.0168 15.8692H28.6062L28.0468 15.8513V15.8333L28.6627 15.8154H27.4874L27.431 15.7974L27.413 15.8359L27.3386 15.8179L27.3206 15.8359H27.0974L27.1359 15.7974H26.9306L26.1274 15.7589L25.9221 15.7409V15.7024H25.3242V15.6845L25.7912 15.6665L25.8323 15.646Z"
        fill="#0F416E" />
    <path
        d="M21.7441 26.2309H22.827V26.4542L22.809 26.5106L22.791 27.5755L22.7526 27.5371V27.2394L22.7141 26.9956L22.6961 26.621L22.6396 26.603L22.6217 26.5466L22.5293 26.4901H22.4729L22.6037 26.5825L22.5473 26.6004L22.4908 26.5619L22.2111 26.5235L22.0982 26.5055V26.467H22.2111L22.0982 26.449H21.5953L21.2027 26.4875L21.0153 26.544L20.923 26.6184L20.905 26.6569H20.8665L20.828 26.7313L20.7536 26.7698L20.7356 26.9366L20.6971 27.1239L20.6792 27.1804H20.7177V27.7038L20.7562 27.8527L20.8306 28.0195L20.9435 28.1683L21.0179 28.3171V28.3915L21.0923 28.4095V28.448L21.1847 28.466L21.6132 28.5045L21.9673 28.4865L22.4703 28.4121L22.6576 28.3941L22.6756 28.2632L22.6935 28.1503L22.732 27.9451L22.75 27.6474L22.7885 27.6654L22.827 28.058V28.6174L22.6217 28.6353L21.7441 28.6533L20.6997 28.6918H20.4944L20.4765 28.6738L20.4585 26.2848L20.4765 26.2669L20.6638 26.2489L21.7441 26.2309Z"
        fill="#10406D" />
    <path
        d="M25.6091 7.39352H25.6476L25.6655 7.44998H25.6091V7.50643L25.4602 7.58085L25.4423 7.61934L25.1446 7.76817L24.9393 7.88108L24.5852 8.14281L24.4723 8.27368L24.3979 8.29165L24.3799 8.36606L24.1746 8.53286L24.0438 8.68169L23.8564 8.92546L23.7641 9.07429L23.8205 9.1872L23.8949 9.16924L24.0078 9.09482L24.0643 9.03837L24.0823 9.09482L24.0258 9.1872L24.0078 9.26162L23.9334 9.30011L23.7666 9.28214L23.5613 9.30011L23.5229 9.37452L23.0943 9.43098L22.9814 9.41301H22.7761L22.4785 9.39505L22.2911 9.35656L21.8241 9.31807H21.5265L21.0415 9.30011H20.2563L19.9021 9.26162L19.8457 9.22312L19.8072 9.24109L19.1169 9.33347L18.7423 9.44637L18.519 9.53875L18.4626 9.55671L18.5011 9.64909L18.3882 9.63113V9.59264L18.3497 9.6106H18.2188H18.1444L17.9391 9.72351L17.7518 9.87234H17.7133L17.6748 9.94675L17.5824 10.0032L17.5645 9.96472L17.4336 10.0571V10.0006L17.6774 9.77739L17.8647 9.62856L18.1085 9.47973L18.3317 9.36682L18.6858 9.25392L19.0964 9.16154L19.5455 9.10509L19.8816 9.08712H23.4099L23.6332 9.10509L23.7076 8.93829L23.8205 8.71505L24.0078 8.47127L24.2696 8.19157L24.5134 7.98628L24.7751 7.79896L25.0189 7.65013L25.4474 7.44485L25.6091 7.39352Z"
        fill="#247EAB" />
    <path
        d="M29.8635 8.68167L29.9558 8.75609V8.79458L30.0303 8.83307L30.0867 8.79458L30.1996 8.96137L30.2561 9.05375L30.369 9.07171L34.0461 9.08967L34.7005 9.12817L35.2034 9.20258L35.4652 9.277L35.7834 9.42583L36.081 9.64908L36.2683 9.81587L36.4172 9.9647L36.6404 10.2624L36.7893 10.5061L36.7508 10.5446L36.6379 10.4138L36.5455 10.3753V10.3368H36.507L36.4505 10.2239L36.1144 9.88772L35.9091 9.72093L35.6114 9.57209L35.4446 9.51564L35.2958 9.47715L35.1085 9.43866L35.07 9.40017L34.8467 9.34371L34.5491 9.28726L34.3438 9.2693H32.3474L32.0292 9.28726L31.2825 9.30522L31.1696 9.32319L30.7026 9.34115L30.4049 9.2847L30.2176 9.21028L30.0508 9.1179L29.9764 9.00499L29.884 8.89209V8.81254L29.8096 8.69963L29.8635 8.68167Z"
        fill="#247EAB" />
    <path
        d="M25.8497 26.662H32.0467L33.5787 26.68L33.8224 26.698L33.8969 26.7365L33.9353 27.0341V28.2479L33.8789 28.3787L33.8045 28.4172H32.9269L32.8345 28.3993L32.873 28.3813V28.3428L33.0039 28.3043L33.2656 28.2658L33.34 28.1914L33.5453 28.2094L33.5633 28.1914V28.099L33.6556 28.1914H33.7121L33.6941 28.2658L33.6018 28.3043L33.435 28.3223H33.3785V28.3608H33.34V28.3993L33.3965 28.3608L33.6402 28.3043L33.7531 28.2658L33.7352 28.1735V27.9861L33.7916 27.7629L33.8096 27.632L33.7711 27.6885L33.7531 27.632L33.7711 27.3703V27.1085L33.7531 26.9777L33.7352 26.8853L33.6608 26.7724L33.4375 26.7544L32.9705 26.7724H28.5646L28.5825 26.8109H28.2643H28.2259H27.6665V26.7929L27.3123 26.775H26.6221V26.8134H26.5656H26.4168L26.3424 26.775V26.8134H26.268L26.25 26.7955V26.8134H26.1012V26.7955H25.6726L25.6547 26.7775L25.3185 26.7596H24.423L24.2177 26.798L24.1997 26.7057L24.4794 26.6877L25.8497 26.662Z"
        fill="#094776" />
    <path
        d="M37.0715 11.5403L37.11 11.5582V11.8379L37.0355 11.82V11.7635H36.997L36.9791 12.287V12.7155L36.9611 12.8643L36.9226 13.4058V13.9293L36.9406 14.096L36.9586 14.4707V14.9942L36.9765 15.3483V15.5536L36.9945 15.8512V16.3183L37.0124 16.9161L37.0304 17.1394V17.4191L37.0484 17.7373V18.0734L37.0663 18.502L37.0843 19.7337V20.9654L37.1407 20.9474L37.1587 21.1142L37.1972 21.0963V24.3808L37.1792 24.8838L37.1048 24.8453L37.0869 24.7888V24.7324L37.1048 24.6015L37.1228 24.5091L37.0843 24.3962L37.0663 24.0421L37.0484 23.1645V22.9028L37.0304 22.7899L37.0484 22.6025L37.0304 22.564V21.2938L37.0124 21.163V21.1065H37.0509L37.0124 20.9192V20.211L36.9945 19.8569L37.0124 19.726L36.9945 19.6516V18.8304L36.9765 18.5122V18.0632L36.9586 17.8014V17.4268L36.9406 16.9777V16.698L36.9226 16.3798V15.9128L36.9047 15.746V15.4586L36.8867 15.2918L36.8687 14.8068L36.8303 14.4142V14.1705L36.8123 13.9652V13.7779L36.7943 13.665V13.162L36.7764 12.8258L36.8687 12.5821L36.8867 12.0971L36.9047 11.9303L36.9432 11.7994L36.9611 11.725H36.9996L37.0381 11.6121L37.0715 11.5403Z"
        fill="#1B79AB" />
    <path
        d="M21.557 22.7411H22.8272L22.8093 22.854L22.7913 24.9274L22.7528 24.8889L22.6963 24.7965V24.2166H22.7143L22.7323 24.0678L22.6938 24.0498H22.7323V24.0113H22.6938V23.8804H22.7117V23.8625H22.6938L22.6758 23.2081H22.6373V23.1337H22.5988L22.5603 23.0593L22.2473 23.0029L22.06 22.9644V22.9259H21.6494V22.9438L21.2003 22.9618V22.9233L20.9206 23.0029L20.8077 23.0593L20.7513 23.0773L20.7128 23.1697L20.6948 23.1876L20.6563 23.5623V23.8599L20.6384 23.9728L20.6563 24.1037L20.6178 24.1781L20.6563 24.2705V24.4193L20.7307 24.717L20.7872 24.8094V24.9582H20.6948V25.0146H20.6384L20.6204 25.0891L20.6589 25.107L20.6204 25.1814H20.4716L20.4536 22.7719L20.4716 22.7539L21.557 22.7411Z"
        fill="#10406D" />
    <path
        d="M26.784 9.46686H27.1945L27.5487 9.52331L27.8104 9.61569L28.0721 9.78248L28.3159 10.0057L28.5212 10.211L28.7444 10.5087L28.8933 10.7884L29.0062 11.181L29.0447 11.4992V11.7224L29.0062 12.0406L28.9318 12.2639L28.7829 12.5615L28.6341 12.7848L28.4673 12.9901L28.262 13.1953L28.1876 13.2877L27.9438 13.4545L27.7206 13.5674L27.4024 13.6418L27.0842 13.6803H26.7301L26.4299 13.629L26.1322 13.5161L26.0578 13.4596V13.4212L25.9449 13.3647L25.9269 13.3262L25.7781 13.2518L25.7396 13.1774L25.6652 13.1389L25.5728 13.0465V12.9952L25.8166 13.144L25.9834 13.2005V13.239L26.0757 13.2775L26.299 13.3698L26.4863 13.3878L26.5428 13.4058L26.6916 13.4237H26.8404L27.0637 13.4622H27.269L27.5127 13.4237L27.9053 13.2749L28.0183 13.2184H28.0747V13.1799L28.28 13.067L28.4109 12.9362L28.5597 12.8053L28.747 12.5436L28.8214 12.3383L28.8599 12.151L28.9523 11.9277L28.9908 11.8353V11.4248L28.9728 11.2939L28.8984 11.2759L28.7316 10.8833L28.7137 10.7165L28.6957 10.6242V10.5857L28.6033 10.3983L28.2851 10.0801L28.1722 10.0237L28.0978 10.0057L28.0234 9.93132L27.6487 9.70807L27.4563 9.63622L27.233 9.57976L27.0662 9.59773L26.9739 9.57976H26.7865L26.4299 9.61569L26.2246 9.67214L26.0373 9.80301L25.7755 9.95184L25.6831 10.0263L25.5908 10.1186L25.5343 10.1366L25.5163 10.1931L25.424 10.211L25.4034 10.2521L25.2905 10.3445L25.329 10.2521L25.5523 9.99033L25.7755 9.80301L26.0373 9.65418L26.299 9.5618L26.6172 9.48739L26.784 9.46686Z"
        fill="#247EAB" />
    <path
        d="M22.1912 15.6639H22.8455L22.8276 16.3721L22.7891 16.3901L22.7326 16.3516L22.6941 16.2207L22.6017 16.0334L22.5094 15.9769L22.1912 15.9025V15.8846H22.34L22.1732 15.8666L22.1347 15.9051L22.0423 15.8692L21.9679 15.8871L21.8756 15.8692L21.7626 15.8512L21.7242 15.8332V15.8717H21.6318L21.6138 15.8538L21.1648 15.8717L20.8466 15.9282L20.7337 15.9667L20.6952 16.2104L20.6772 16.4722L20.6592 16.621L20.6413 17.0136L20.6592 17.4422L20.6413 17.5166L20.6798 17.5345L20.7183 17.609V17.7398L20.6798 17.8707V17.9631L20.7362 17.981V18.0195H20.7747V18.058H21.1109V18.076H20.495L20.4771 15.7049L20.5155 15.687L22.1912 15.6639Z"
        fill="#123F6C" />
    <path
        d="M18.0108 32.877L18.1032 32.895L18.4008 33.0438V33.0823L18.719 33.1567L18.7575 33.1747H19.2245L19.5222 33.2312L19.8763 33.2491L19.9328 33.2671L20.251 33.285L20.9797 33.303H21.2235L21.7649 33.321H22.214L22.3449 33.3389L22.4372 33.321L22.604 33.3389L22.7914 33.4313L23.089 33.4493V33.4672L23.8357 33.4852V33.5032H21.0516L19.8943 33.4852L19.3528 33.4467L18.9038 33.3723L18.5112 33.2594L18.4188 33.2209V33.2029L18.5317 33.185L18.4752 33.1388L18.4367 33.1208L18.4188 33.1773L18.3264 33.1593L18.0647 33.0284L18.0082 32.99L17.9697 32.8976L18.0108 32.877Z"
        fill="#206A97" />
    <path
        d="M20.5099 19.1743H22.8066L22.8245 19.2308L22.786 19.5849H22.7475L22.7296 19.472H22.6911L22.6346 19.3591L22.5782 19.3206L21.8879 19.3026H21.2336L20.9718 19.3411L20.7486 19.3591L20.6921 19.377L20.6742 19.5823V19.7876L20.6921 19.9005L20.6742 20.5728L20.6921 20.7396L20.7101 20.7576L20.7665 21.0193L20.841 21.1861V21.2785L20.8025 21.3349V21.5017L20.8204 21.5402L20.8769 21.5582V21.6146L20.9693 21.5967L20.9872 21.5582L21.0616 21.5761V21.5941L21.1745 21.6121V21.63H20.4843L20.4663 19.1846L20.5099 19.1743Z"
        fill="#10406D" />
    <path
        d="M36.4916 29.4437H36.5096L36.5481 29.5925L36.5301 29.6849L36.5686 29.7978L36.5507 29.9107L36.5892 30.3597L36.6456 30.8832L36.72 31.1629L36.7585 31.2373L36.7765 31.1809H36.815L36.797 31.2733L36.7585 31.3118L36.797 31.4247L36.8894 31.4811L36.9279 31.5735L36.9843 31.5915L37.0023 31.7223L36.8535 32.02L36.6302 32.3177L36.5173 32.4485L36.3685 32.4306V32.3382L36.312 32.3202L36.2941 32.1714V32.097H36.1812L36.312 31.8917L36.3685 31.7993V31.5376L36.4249 31.5196L36.407 31.3887L36.4249 31.109L36.4429 31.0346L36.4609 29.7644L36.4788 29.4847L36.4916 29.4437Z"
        fill="#075080" />
    <path
        d="M26.0556 24.776H27.064L27.6234 24.794L27.7543 24.812H27.8108L27.8287 24.8504H32.0858L32.5708 24.8684L32.7017 24.8864L33.0378 24.9043L33.7666 24.9223V24.9403H28.4831L26.2044 24.9582H24.3184V24.9403L25.4397 24.9223L25.5321 24.8094L25.6809 24.7914L26.0556 24.776Z"
        fill="#1F6B99" />
    <path
        d="M25.7936 10.1007L25.8115 10.1572L25.6242 10.4189L25.6063 10.4754H25.5678L25.5293 10.5883L25.4369 10.7551L25.3445 11.0527L25.3266 11.3145L25.3086 11.5197V11.6506L25.3266 11.7815L25.4189 12.0791L25.4934 12.3229L25.5113 12.3794L25.5498 12.6026L25.5318 12.6591L25.4035 12.6411L25.3471 12.6231L25.2906 12.5308L25.2162 12.4743L25.0494 12.0817L25.0109 12.0637V12.0253H24.9724L24.9545 11.9329H24.993L24.975 11.7661L24.993 11.6352L24.9545 11.4864L24.9365 11.4479V11.2811L24.993 11.0014L25.0854 10.7397L25.1598 10.6832L25.3086 10.6447L25.3471 10.5523L25.478 10.347H25.5165L25.5549 10.2726L25.6294 10.2547V10.2162L25.7602 10.1238L25.7936 10.1007Z"
        fill="#075080" />
    <path
        d="M30.125 23.1517H33.7457L33.8946 23.1697L33.9125 23.1876L33.9305 23.4853V24.5682L33.9125 24.735L33.8946 24.7529H33.7637L33.6893 24.6605L33.6508 24.5861L33.6688 24.3988L33.7252 24.3064L33.7637 24.1396V23.5417L33.7252 23.5238L33.7073 23.3185L33.6328 23.2261H33.7073L33.7457 23.2826V23.2082L33.3531 23.2261H24.9159L24.8774 23.1876L25.6421 23.1697L30.125 23.1517Z"
        fill="#10406D" />
    <path
        d="M17.0944 30.8242L17.1508 30.8422L17.2432 31.0654L17.3356 31.3451L17.41 31.5324L17.5024 31.7557L17.5588 31.8686L17.5973 31.8865V31.943H17.6358V31.9994H17.6743L17.7308 32.0918L17.7872 32.2047L17.8616 32.2791L17.8796 32.3536L17.9361 32.3715V32.41L17.9925 32.4485L18.1054 32.5794L18.1439 32.5973V32.6358L18.013 32.5973L17.9566 32.5588L17.9001 32.5768H17.7333L17.641 32.5383H17.6025V32.4998L17.528 32.4819L17.3972 32.3151L17.2843 32.1662L17.1534 31.943L17.061 31.6813L16.9686 31.2707L16.9507 30.991V30.8986H16.9892L17.0071 30.8422L17.0944 30.8242Z"
        fill="#153D6A" />
    <path
        d="M26.6149 7.59879L26.9331 7.63728L27.064 7.67577L27.2308 7.69373L27.3437 7.73222L27.6978 7.80664L27.9211 7.84513L28.0699 7.90158V7.94007L28.2008 7.95803V7.99653L28.2931 8.03502L28.442 8.12739L28.4599 8.18385L28.2931 8.12739L27.9749 8.03502L27.6003 7.9606L27.2641 7.92211L26.9844 7.90415H26.7047L26.2762 7.94264L25.9965 7.99909L25.6604 8.112L25.3062 8.27879L25.2139 8.31728L25.4038 8.12226L25.4961 8.1043L25.5346 8.06581L25.609 8.04785L25.5526 8.00936V7.97086L25.5141 7.9529L25.8118 7.80407L25.9606 7.74762L26.0915 7.69116L26.2583 7.65267L26.4635 7.63471L26.4815 7.61675L26.6149 7.59879Z"
        fill="#247EAB" />
    <path
        d="M17.4488 13.4443H17.4667L17.4847 17.8322V30.3777L17.5026 30.9936L17.5411 31.3682L17.5796 31.612L17.5232 31.5735L17.4667 31.145L17.4282 30.5856V29.1845L17.4488 20.8371L17.4308 16.1335L17.4488 13.4443Z"
        fill="#2379A6" />
    <path
        d="M24.2076 17.3267L24.2256 17.3652L24.3924 17.4037H24.4489L24.4873 17.3652L24.6362 17.3832V17.4217L24.6926 17.4037H25.252L25.27 17.3652H25.4188L25.4932 17.3832H25.7729L25.9397 17.4011L29.3013 17.4191L31.8596 17.4371L33.5224 17.455V17.473L26.8019 17.4909H24.3744L24.2436 17.4345L24.2051 17.378V17.3267H24.2076Z"
        fill="#21709C" />
    <path
        d="M26.784 9.46686H27.1945L27.5487 9.52331L27.8104 9.61569L28.0721 9.78248L28.3159 10.0057L28.5212 10.211L28.7444 10.5087L28.8933 10.7884L28.9318 11.0322L28.9703 11.1989L28.9882 11.2734L28.9497 11.2913L28.8933 11.2734L28.7265 10.8808L28.7085 10.714L28.6906 10.6216V10.5831L28.5982 10.3958L28.28 10.0776L28.1671 10.0211L28.0927 10.0032L28.0183 9.92875L27.6436 9.7055L27.4563 9.63622L27.233 9.57976L27.0662 9.59773L26.9739 9.57976H26.7865L26.4299 9.61569L26.2246 9.67214L26.0373 9.80301L25.7755 9.95184L25.6831 10.0263L25.5908 10.1186L25.5343 10.1366L25.5163 10.1931L25.424 10.211L25.4034 10.2521L25.2905 10.3445L25.329 10.2521L25.5523 9.99033L25.7755 9.80301L26.0373 9.65418L26.299 9.5618L26.6172 9.48739L26.784 9.46686Z"
        fill="#247EAB" />
    <path
        d="M26.8021 7.47052L27.1562 7.50901L27.3794 7.52697L27.6976 7.58343L27.79 7.62192L28.0877 7.66041L28.2545 7.71686L28.5727 7.88366L28.5906 7.95807L28.4828 7.93498L28.352 7.89649L28.2391 7.858L28.3314 7.95037L28.4982 8.04275L28.5162 8.17362L28.683 8.266L28.6445 8.28396L28.4572 8.19158L28.4007 8.09921L28.1954 7.9863V7.94781L28.0646 7.92985L28.0466 7.89135L27.8413 7.8349L27.5437 7.77845L27.2819 7.72199L27.0946 7.6835L26.9458 7.66554L26.8893 7.64758L26.6096 7.60909L26.4788 7.62705L26.4403 7.64501L26.217 7.66297L25.9553 7.75535L25.8809 7.77332L25.9732 7.6989L26.4223 7.55007L26.5891 7.53211V7.49361H26.6815L26.8021 7.47052Z"
        fill="#1B79AB" />
    <path
        d="M33.7281 26.716H33.8769L33.9154 26.8084L33.9334 27.0316V28.2453L33.8769 28.3762L33.8025 28.4147H32.9249L32.8325 28.3967L32.871 28.3788V28.3403L33.0019 28.3018L33.2636 28.2633L33.338 28.1889L33.5433 28.2069L33.5613 28.1889V28.0965L33.6537 28.1889H33.7101L33.6922 28.2633L33.5998 28.3018L33.433 28.3198H33.3765V28.3583H33.338V28.3967L33.3945 28.3583L33.6383 28.3018L33.7512 28.2633L33.7332 28.1709V27.9836L33.7897 27.7604L33.8076 27.6295L33.7691 27.6859L33.7512 27.6295L33.7691 27.3678V26.8443L33.7127 26.8058V26.7493L33.6742 26.7314L33.7281 26.716Z"
        fill="#0E416E" />
    <path
        d="M30.1248 9.50537L30.2172 9.52333L30.4225 9.56182H30.7201L31.0743 9.54386H31.5233V9.56182L31.3925 9.57979L31.2257 9.63624L31.1128 9.71066H30.9639V9.74915L31.1307 9.73118H31.5054L33.1117 9.71322L34.0817 9.73118V9.74915L31.6542 9.76711L30.9075 9.78507H29.9555L29.9375 9.74658L30.0863 9.67216V9.55926L30.1248 9.50537Z"
        fill="#1C7AAB" />
    <path
        d="M36.4351 25.0172H36.453L36.471 29.8902L36.453 31.0295L36.4145 31.2527V31.5145L36.376 31.5324V31.7942L36.2092 32.0559L36.0963 32.1868L35.9475 32.3177L35.7807 32.4665L35.6678 32.505L35.6498 32.487L35.519 32.5794L35.2752 32.6923L35.2188 32.6743L35.5369 32.5075L35.7807 32.3023L35.968 32.1355L36.1554 31.8917L36.2862 31.6684L36.3606 31.3323L36.3991 30.8653L36.4171 29.9133L36.4351 25.0172Z"
        fill="#2273A0" />
    <path
        d="M25.8888 28.3608H26.5226L26.8768 28.3787L28.1264 28.3967L32.6812 28.4147V28.4326L26.4636 28.4506H24.5955L24.3518 28.4326L24.2773 28.3941L24.3518 28.3762H25.4731L25.8888 28.3608Z"
        fill="#2276A3" />
    <path
        d="M17.6925 31.8326L17.7669 31.925L17.9722 32.1688L18.1954 32.3561L18.4931 32.5434L18.7908 32.6743L19.0884 32.7487L19.5734 32.8052L19.8711 32.8231L21.3825 32.8411V32.8591H19.7838L19.3553 32.8411L19.15 32.8591L19.0576 32.8206L18.7959 32.7821L18.7215 32.7641L18.7035 32.7821H18.5727L18.3853 32.6897L18.293 32.6153L18.2365 32.5973V32.5588L18.1621 32.5409V32.5024L18.0492 32.4639L17.9927 32.4074V32.351L17.9363 32.333L17.8054 32.1842L17.6745 32.0533V31.9969H17.636V31.9404H17.5976L17.5796 31.848L17.654 31.8865L17.6925 31.8326Z"
        fill="#1F6C99" />
    <path
        d="M19.5964 9.16919L19.7273 9.18715L19.7452 9.24361L19.2603 9.31802L18.9626 9.37447L18.7394 9.44889L18.5161 9.54127L18.4597 9.55923L18.4981 9.65161L18.3852 9.63365V9.59516L18.3467 9.61312H18.2159H18.1415L17.9362 9.72602L17.7489 9.87486H17.7104L17.6719 9.94927L17.5795 10.0057L17.5615 9.96723L17.4307 10.0596V10.0032L17.6744 9.77991L17.8618 9.63108L18.1055 9.48225L18.3288 9.36934L18.4956 9.31289L18.6264 9.29493H18.8702L18.8882 9.23847L19.2064 9.22051L19.2628 9.20255H19.4502V9.24104L19.5964 9.16919Z"
        fill="#1B79AB" />
    <path
        d="M36.3608 11.0732L36.3993 11.1297L36.4558 11.3735L36.4737 11.9534V24.2551H36.4558L36.4378 12.1946L36.4199 11.6532L36.3814 11.2426L36.3608 11.0732Z"
        fill="#227FAB" />
    <path
        d="M25.5527 12.9952L25.6656 13.0517L25.8145 13.1441L25.9813 13.2005V13.239L26.0736 13.2775L26.2969 13.3699L26.4842 13.3878L26.5407 13.4058L26.6895 13.4238H26.8383L27.0616 13.4623H27.2669L27.5106 13.4238L27.5851 13.4058L27.5671 13.4623H27.5106L27.4927 13.5187L27.4003 13.5572L27.213 13.5752L27.1745 13.5931H27.0436L26.8204 13.5546L26.728 13.5726L26.5792 13.5161H26.4663L26.4303 13.5931L26.2635 13.5752L26.0582 13.4828V13.4263L25.9453 13.3699L25.9274 13.3314L25.7785 13.257L25.7401 13.1826L25.6656 13.1441L25.5733 13.0517L25.5527 12.9952Z"
        fill="#1B79AB" />
    <path
        d="M29.4733 28.2864H30.8924L31.4723 28.3043L31.5287 28.3223L31.6596 28.3403L31.6416 28.3967L31.0258 28.4147H30.6152L29.5503 28.3967L29.2706 28.3788L29.1962 28.3403L29.1782 28.3018L29.4733 28.2864Z"
        fill="#153D6A" />
    <path
        d="M17.4488 21.6018H17.4667L17.4847 30.3572L17.5026 30.973L17.5411 31.3477L17.5796 31.5914L17.5232 31.553L17.4667 31.1244L17.4282 30.565V29.164L17.4488 21.6018Z"
        fill="#1E6895" />
    <path
        d="M27.7539 7.2652L27.9207 7.28316L28.3133 7.39607L28.611 7.52694L28.9651 7.71426L29.2089 7.88105L29.4706 8.1043L29.4886 8.14279L29.4141 8.1043L29.1909 7.93751L29.0036 7.84513L28.9112 7.82717L28.7239 7.73479L28.4262 7.62188L28.2209 7.54746L27.9772 7.45509L27.8848 7.39863L27.8668 7.32422L27.7539 7.28573V7.2652Z"
        fill="#247EAB" />
    <path
        d="M16.8152 11.4454L16.8717 11.4839L16.9102 11.5968V12.1202L16.8717 12.2511L16.8537 12.382L16.8358 12.6437L16.8537 12.7746V12.9234L16.8896 12.9953L16.8717 13.1261L16.9102 13.257V14.6581L16.8717 14.6401L16.8537 14.4528V14.1551L16.8358 14.1166V13.8729L16.8178 13.76V13.275L16.7793 12.5283V12.305L16.7973 12.0073L16.8358 11.8021L16.8537 11.6353L16.8152 11.5044V11.4454Z"
        fill="#1779AC" />
    <path
        d="M25.8887 28.3608H26.5225L26.8766 28.3787L28.1263 28.3967V28.4147L26.2223 28.4326H24.3542L24.2798 28.3941L24.3542 28.3762H25.4756L25.8887 28.3608Z"
        fill="#1E6895" />
    <path
        d="M28.2392 12.0996L28.2571 12.1561L28.2751 12.269L28.2571 12.3075H28.2186L28.2007 12.3998L28.0878 12.6051L27.9004 12.718L27.7696 12.8309L27.6567 12.9054H27.5258L27.5078 12.9618L27.341 13.0183L27.1922 13.0362H26.874V13.0183L27.2281 12.9798L27.5258 12.8669L27.7311 12.736L28.0288 12.4383L28.2161 12.1407L28.2392 12.0996Z"
        fill="#237DAB" />
    <path
        d="M25.0289 8.27109L25.0469 8.32754L24.9904 8.38399L25.0289 8.45841L24.7672 8.6637L24.5619 8.85102L24.4875 8.86898L24.3951 8.92543L24.3772 8.96392H24.3207L24.3027 8.90747L24.508 8.68422L24.6953 8.51743L24.8442 8.40452L24.9366 8.31214L25.0289 8.27109Z"
        fill="#227CA9" />
    <path
        d="M17.5439 10.1392H17.5824L17.6003 10.2316L17.4874 10.4754L17.3745 10.6627L17.2616 10.868L17.1692 10.9604L17.1128 10.9424L17.1692 10.7371L17.2077 10.6627L17.2462 10.5498H17.2847L17.3027 10.4369L17.3206 10.3984H17.3591L17.3771 10.324L17.4336 10.2496H17.472L17.5105 10.1751L17.5439 10.1392Z"
        fill="#115A7C" />
    <path
        d="M32.6831 15.8692H32.8499L33.1476 15.9257L33.2399 15.9821L33.3708 16.0386L33.4632 16.095L33.5761 16.1515L33.6325 16.19V16.2284H33.671L33.7095 16.2849L33.7275 16.3773V16.6955L33.671 16.8623L33.5787 16.9367L33.4478 16.9752L33.4298 17.0316H33.3913L33.4093 16.9572L33.4658 16.9008H33.5402L33.5581 16.8263L33.6146 16.7699H33.6531L33.671 16.5466L33.6325 16.4158V16.2849L33.5017 16.2464L33.4093 16.19L33.3349 16.0976L33.1681 16.0052L32.9448 15.9308L32.7011 15.9128L32.6831 15.8692Z"
        fill="#153D6A" />
    <path
        d="M17.4488 28.117H17.4667L17.4847 30.3752L17.5026 30.991L17.5411 31.3657L17.5796 31.6094L17.5232 31.571L17.4667 31.1424L17.4282 30.583V29.182L17.4488 28.117Z"
        fill="#2177A4" />
    <path
        d="M33.5612 28.0991L33.6535 28.1914H33.71L33.692 28.2659L33.5996 28.3043L33.4329 28.3223H33.3764V28.3608H33.3379V28.3993L33.3944 28.4173H32.9273L32.835 28.3993L32.8735 28.3813V28.3428L33.0043 28.3043L33.2661 28.2659L33.3405 28.1914L33.5458 28.2094L33.5637 28.1914V28.0991H33.5612Z"
        fill="#153D6A" />
    <path
        d="M21.8936 9.30005H22.8276L22.8841 9.31801H23.1638L23.2561 9.3565H23.387L23.4255 9.39499L23.0893 9.43348L22.9764 9.41552H22.7711L22.4735 9.39756L22.2862 9.35907L21.8936 9.32058V9.30005Z"
        fill="#1779AC" />
    <path
        d="M28.2775 7.56284L28.5212 7.63725L28.7445 7.72963L28.9113 7.80405L29.0986 7.8605L29.3039 7.99137L29.3963 8.06578L29.3783 8.10427H29.3398H29.2834L29.2089 8.08631L29.096 8.0119L29.0575 7.97341L28.8702 7.88103L28.5905 7.75016L28.3673 7.63725L28.2749 7.59876V7.56284H28.2775Z"
        fill="#1A78AB" />
    <path
        d="M26.0376 12.9028L26.2044 12.9413L26.2968 12.9978H26.4097L26.4276 12.9234L26.3891 12.9054L26.5559 12.9439L26.8741 13.0003V13.0183L26.7818 13.0363V13.0927L26.7253 13.1107H26.4815L26.2378 13.0722L26.071 12.9593L26.0376 12.9028Z"
        fill="#1B79AB" />
    <path
        d="M28.6494 10.4753L28.7059 10.5318L28.8188 10.6986L28.9112 10.9603L28.9496 11.1476L28.9881 11.2785L28.9496 11.2965L28.8932 11.2785L28.7264 10.8859L28.7084 10.7191L28.6905 10.6267V10.5882L28.6494 10.4753Z"
        fill="#1779AC" />
    <path
        d="M22.191 15.8897H22.4887L22.6196 15.9462L22.676 16.0026V16.0411L22.7684 16.0232L22.7864 15.9847H22.8249V16.3773L22.7864 16.3953L22.7299 16.3568L22.6914 16.2259L22.599 16.0386L22.5067 15.9821L22.1885 15.9077V15.8897H22.191Z"
        fill="#074F7F" />
    <path
        d="M26.7662 7.17029H27.1023L27.4949 7.20878V7.24727L27.3282 7.30372L27.1049 7.32169L26.7867 7.26523L26.6943 7.22674L26.7662 7.17029Z"
        fill="#1F6C99" />
    <path
        d="M24.1696 23.5058L24.208 23.5802L24.226 23.842L24.2825 23.9164L24.3004 24.1217H24.2619V24.2885L24.2055 24.327V24.794L24.167 24.7375V23.5058H24.1696Z"
        fill="#153D6A" />
    <path
        d="M18.103 9.48486L18.1415 9.50283L18.085 9.52079V9.55928L18.0286 9.57724L17.9901 9.61573L17.9721 9.67219V9.71068L17.7489 9.87747H17.7104L17.6719 9.95189L17.5795 10.0083L17.5615 9.96985L17.4307 10.0622V10.0058L17.6744 9.78253L17.8618 9.6337L18.103 9.48486Z"
        fill="#247EAB" />
    <path
        d="M25.719 7.84256L25.7755 7.86052H25.737V7.89901L25.7755 7.91698L25.7934 8.02988H25.7549V8.06837L25.3803 8.23517L25.2494 8.30958L25.2109 8.29162L25.3418 8.19924L25.3598 8.14279L25.4906 8.1043L25.5291 8.06581L25.6035 8.04784L25.5471 8.00935V7.97086L25.5086 7.9529L25.719 7.84256Z"
        fill="#1779AC" />
    <path
        d="M33.7277 23.5802H33.7456L33.7636 23.9549L33.7456 24.1781L33.6712 24.327L33.6148 24.4014L33.5763 24.4193L33.5198 24.5682L33.353 24.5861V24.5117L33.4274 24.3988L33.6148 24.3064L33.6712 24.232L33.7097 24.0832V23.7291L33.7277 23.6546L33.6892 23.6367L33.7277 23.5802Z"
        fill="#153D6A" />
    <path
        d="M34.5513 9.27957H34.7566L35.0747 9.33603L35.3929 9.4284L35.7676 9.5952L35.7855 9.63369L35.7111 9.61573L35.5443 9.54131L35.2646 9.48486L35.0978 9.4284L34.949 9.37195L34.5564 9.29753V9.27957H34.5513Z"
        fill="#1779AC" />
    <path
        d="M23.7974 8.86899L23.8358 8.92544L23.7974 9.01782L23.7589 9.07427L23.8153 9.18718L23.8897 9.16922L24.0026 9.0948L24.0591 9.03835L24.0771 9.0948L24.0206 9.18718L24.0026 9.2616L23.9282 9.30009L23.7614 9.28212L23.705 9.26416L23.7435 9.2462L23.687 9.15382L23.705 9.02295L23.7974 8.86899Z"
        fill="#1779AC" />
    <path
        d="M18.0108 32.877L18.1032 32.895L18.4008 33.0438V33.0823L18.4752 33.1208H18.4367L18.4188 33.1773L18.3264 33.1593L18.0647 33.0284L18.0082 32.99L17.9697 32.8976L18.0108 32.877Z"
        fill="#1E6895" />
    <path
        d="M22.6581 19.4925L22.7146 19.5489L22.753 19.6054L22.771 19.7542V20.7062L22.753 20.7627L22.7351 21.0809L22.6966 21.0244V20.8576L22.7351 20.5035L22.7171 19.7568L22.6786 19.59L22.6401 19.5156L22.6581 19.4925Z"
        fill="#153D6A" />
    <path
        d="M29.8635 8.68167L29.9558 8.75609V8.79458L30.0303 8.83307L30.0867 8.79458L30.1611 8.88696L30.1432 8.99986L30.1252 8.94341H30.0867L30.0123 8.86899V8.92545L30.1252 9.11277L30.1072 9.15126L30.0508 9.1333L29.9764 9.02039L29.884 8.90748V8.81254L29.8096 8.69963L29.8635 8.68167Z"
        fill="#1B79AB" />
    <path
        d="M36.4352 29.9646H36.4532V31.0295L36.4147 31.2527V31.5145L36.3762 31.5324L36.3197 31.6453L36.3018 31.5889L36.3582 31.3271L36.3967 30.8601L36.4147 30.8216L36.4352 29.9646Z"
        fill="#1F6C99" />
    <path
        d="M32.9628 9.22311H33.8763L34.3433 9.24108V9.25904L33.5042 9.277H32.814L32.6831 9.25904V9.24108L32.9628 9.22311Z"
        fill="#1779AC" />
    <path
        d="M26.8022 10.1212H27.0639L27.2512 10.1597V10.1777H26.7277L26.4301 10.27L26.3377 10.288L26.2812 10.2495L26.3557 10.1751L26.4686 10.1366H26.561L26.5789 10.1546L26.8022 10.1212Z"
        fill="#207DAB" />
    <path
        d="M36.7916 10.5318L36.8481 10.6062L36.8866 10.7191V10.832L36.9045 10.8885L36.866 10.9629L36.7916 10.8705L36.7352 10.7781L36.7172 10.6652H36.6787L36.6967 10.5908L36.7711 10.6088L36.7916 10.5318Z"
        fill="#1B79AB" />
    <path
        d="M36.2505 9.96985L36.2685 10.0083L36.3429 10.0468L36.4353 10.1033V10.1418L36.5097 10.1803L36.5276 10.2547L36.5841 10.2726L36.697 10.4035L36.7714 10.4779L36.7894 10.5344H36.7329L36.6405 10.4215L36.5482 10.383V10.3445H36.5097L36.4532 10.2316L36.23 10.0083L36.2505 9.96985Z"
        fill="#1B79AB" />
    <path
        d="M24.9727 12.1176H25.0111L25.0496 12.3229L25.1985 12.6026L25.3473 12.8464L25.4576 12.9952L25.3832 12.9567L25.2164 12.7514L25.0496 12.4538L24.9752 12.2664V12.1176H24.9727Z"
        fill="#0F5C8B" />
    <path
        d="M24.1694 27.0726L24.2079 27.147L24.2259 27.3138L24.2079 27.9682V28.2659H24.19L24.172 28.1529V27.0726H24.1694Z"
        fill="#143E6B" />
    <path
        d="M24.1694 23.2082H24.7109L24.6544 23.2466L24.4106 23.2646L24.4491 23.3031H24.2438L24.1874 23.4904H24.1694V23.2082Z"
        fill="#094372" />
    <path
        d="M20.8102 26.9777H20.8487L20.8307 27.0701L20.8692 27.088L20.8307 27.3113V27.591L20.8692 27.7578L20.9077 27.9066L20.9257 27.9451L20.8872 27.9836L20.8307 27.8912L20.8128 27.7039L20.7948 27.6654L20.7769 27.4781V27.2908L20.7948 27.029L20.8102 26.9777Z"
        fill="#153D6A" />
    <path
        d="M29.322 8.36603L29.4144 8.40452L29.5632 8.55335V8.59184L29.6197 8.6098L29.7121 8.74067L29.6736 8.77916L29.5607 8.70475L29.4863 8.61237L29.3733 8.51999V8.46354L29.3169 8.44558V8.36603H29.322Z"
        fill="#075080" />
    <path
        d="M28.8936 10.9038H28.932L29.0065 11.1835L29.045 11.5017V11.725L29.027 11.9482L28.9885 11.9867V11.4273L28.95 11.2041L28.9115 11.0373L28.8936 10.9038Z"
        fill="#247EAB" />
    <path
        d="M22.1909 15.8897L22.3577 15.9077L22.545 15.9462L22.6579 16.0386L22.7324 16.1515L22.7888 16.1694L22.8068 16.2259V16.3927L22.7324 16.3542L22.6939 16.2233L22.6015 16.036L22.5091 15.9796L22.1909 15.9051V15.8897Z"
        fill="#153D6A" />
    <path
        d="M33.2814 24.3834H33.3198L33.3583 24.4578L33.2454 24.5887L33.189 24.6067V24.5502L33.1146 24.5887V24.6272L33.0581 24.6452V24.5707L33.1325 24.4578L33.2814 24.3834Z"
        fill="#153D6A" />
    <path
        d="M24.3205 15.7024H24.7695L24.7105 15.7409L24.5976 15.7589L24.4103 15.7768V15.7948H24.4667V15.8333L24.3359 15.8897L24.2974 15.7768L24.3205 15.7024Z"
        fill="#153D6A" />
    <path
        d="M20.6973 17.3832L20.7717 17.4576L20.8461 17.5885L20.8641 17.7193L20.7896 17.9067L20.7512 17.9451L20.7332 17.9272V17.8143L20.7717 17.7578L20.8102 17.591L20.7358 17.5525L20.6973 17.3832Z"
        fill="#153D6A" />
    <path
        d="M35.7627 10.2136L35.8371 10.2316L36.0604 10.4548L36.1912 10.6216L36.2477 10.7525L36.1912 10.7345L36.0244 10.4908L35.9321 10.3779L35.7653 10.247V10.2136H35.7627Z"
        fill="#115D8C" />
    <path
        d="M17.8237 9.71063H17.9161L17.8982 9.76708L17.7493 9.87999H17.7108L17.6724 9.95441L17.58 10.0109L17.562 9.93645L17.6749 9.84407L17.7673 9.75169L17.8237 9.71063Z"
        fill="#1B79AB" />
    <path
        d="M16.8716 14.676L16.9101 14.694L16.928 14.8992V15.8333L16.9101 15.9642H16.8921L16.8741 15.8333V14.676H16.8716Z"
        fill="#1779AC" />
    <path
        d="M22.209 22.9284H22.3963L22.6196 22.9669L22.7325 23.0593L22.7504 23.1722L22.7119 23.2466L22.6555 23.1158L22.5657 23.0029L22.2115 22.9464V22.9284H22.209Z"
        fill="#075080" />
    <path
        d="M25.6446 8.02985L25.6626 8.06834L25.7549 8.05037L25.7165 8.08887L25.3803 8.2377L25.2494 8.31211L25.2109 8.29415L25.3418 8.20177L25.3598 8.14532L25.4906 8.10683L25.5291 8.06834H25.6215L25.6446 8.02985Z"
        fill="#227CAA" />
    <path
        d="M24.5439 8.64575V8.70221L24.5055 8.77662L24.5439 8.83307L24.3951 8.92545L24.3772 8.96394H24.3207L24.3027 8.90749L24.508 8.68424L24.5439 8.64575Z"
        fill="#1779AC" />
    <path
        d="M18.0464 33.0285L18.1773 33.067L18.2517 33.1055L18.3646 33.1234L18.421 33.1619L18.439 33.1234L18.5314 33.1619L18.5699 33.2004L18.5314 33.2184H18.3646L18.0669 33.0695L18.0464 33.0285Z"
        fill="#075484" />
    <path
        d="M30.5177 9.30005H31.2824V9.31801L31.1695 9.33597L30.7025 9.35394L30.5151 9.31545V9.30005H30.5177Z"
        fill="#1779AC" />
    <path
        d="M28.9856 11.8379L29.0036 11.9123L28.9292 12.21L28.8368 12.4153L28.8188 12.3408L28.8573 12.1535L28.9497 11.9303L28.9856 11.8379Z"
        fill="#1779AC" />
    <path
        d="M20.9028 27.9862H20.9413L21.0157 28.0991L21.0542 28.1735L21.1851 28.212L21.2031 28.2864L21.1107 28.3044L21.0542 28.2479L20.9978 28.1555L20.9054 28.0811V27.9862H20.9028Z"
        fill="#153D6A" />
    <path
        d="M36.3608 11.0732L36.3993 11.1297L36.4558 11.3735V11.9534H36.4378L36.3993 11.394L36.3608 11.0732Z"
        fill="#227FAB" />
    <path
        d="M23.9458 8.60727V8.66372L23.8534 8.79459L23.779 8.92546L23.7046 9.01784L23.7226 8.88697L23.8149 8.72018L23.8893 8.6278L23.9458 8.60727Z"
        fill="#1F6C99" />
    <path
        d="M28.239 12.0996L28.257 12.1561L28.2749 12.269L28.257 12.3075H28.2185L28.2005 12.3998L28.162 12.4743L28.1235 12.3998V12.2869L28.239 12.0996Z"
        fill="#1D78A9" />
    <path
        d="M22.7503 21.0219H22.7683V21.3016L22.7862 21.3195V21.6172H22.6733L22.7298 21.4863V21.2425L22.7503 21.0219Z"
        fill="#153D6A" />
    <path
        d="M22.7145 17.8117L22.753 17.8297V17.8682H22.7915V18.017L22.7351 17.9785V18.035L22.6042 18.0529L22.5298 18.035V17.999L22.7171 17.9426V17.8117H22.7145Z"
        fill="#153D6A" />
    <path
        d="M24.1154 8.384L24.1539 8.42249L24.0795 8.5354H24.041L24.0231 8.60982L23.9666 8.64831L23.9102 8.63034L23.9486 8.55593L24.0795 8.4071L24.1154 8.384Z"
        fill="#1E79A9" />
    <path
        d="M17.4692 30.9935H17.5077L17.5462 31.3682L17.5847 31.612L17.5283 31.5735L17.4718 31.1449V30.9935H17.4692Z"
        fill="#2276A3" />
    <path
        d="M35.334 9.95184L35.4264 9.96981L35.5752 10.0442L35.7625 10.1751L35.7061 10.1931L35.4084 10.0263L35.334 9.98777V9.95184Z"
        fill="#0F5B8A" />
    <path
        d="M35.6701 32.3921L35.7086 32.4101L35.6342 32.5024L35.4674 32.5948L35.2801 32.6872L35.2236 32.6692L35.5418 32.5024L35.6701 32.3921Z"
        fill="#23729F" />
    <path
        d="M20.9208 15.9641H21.0337L20.9773 16.0206H20.9028L20.8644 16.1335L20.7899 16.172L20.772 16.1155L20.8464 16.0026L20.9208 15.9641Z"
        fill="#153D6A" />
    <path d="M36.4355 30.8242H36.4534V31.0295L36.4149 31.2527H36.397V30.8601L36.4355 30.8242Z"
        fill="#216E9B" />
    <path
        d="M22.6757 26.9238H22.6936L22.7321 27.1855V27.4472H22.7142L22.6962 27.2804L22.6577 27.224L22.6757 27.1111L22.6577 27.0187L22.6757 26.9238Z"
        fill="#153D6A" />
    <path
        d="M24.3388 23.2082H24.7134L24.657 23.2466L24.4132 23.2646L24.3003 23.2466L24.3388 23.2082Z"
        fill="#153D6A" />
    <path
        d="M28.8936 10.9038H28.932L29.0065 11.1835V11.2759L28.968 11.258L28.9115 11.0527L28.8936 10.9038Z"
        fill="#257CA8" />
    <path
        d="M21.1257 26.5492H21.1821V26.5877L21.0898 26.6441H21.0513L21.0128 26.7185L20.9204 26.757V26.7006L21.1257 26.5492Z"
        fill="#153D6A" />
    <path d="M25.2905 13.8908H25.5882L25.5702 13.9293L25.4958 13.9473H25.2905V13.8908Z"
        fill="#227FAB" />
    <path
        d="M24.916 8.4584L24.9545 8.47637L24.916 8.55078L24.8031 8.6252H24.7646V8.55078L24.8031 8.53282V8.49433L24.8776 8.47637L24.916 8.49433V8.4584Z"
        fill="#216E9B" />
    <path
        d="M22.2656 26.4927H22.4709L22.6018 26.5851L22.5453 26.603L22.4889 26.5646L22.2656 26.5261V26.4927Z"
        fill="#153D6A" />
    <path
        d="M35.7627 10.2136L35.8371 10.2316L35.968 10.3625L36.0424 10.4189V10.4754H36.0039L35.9295 10.383L35.7627 10.2521V10.2136Z"
        fill="#0B507F" />
    <path
        d="M16.8149 31.2912L16.8329 31.3297H16.8714L16.9099 31.4606L16.8919 31.6094L16.8534 31.5529L16.8149 31.3861V31.2912Z"
        fill="#21709C" />
    <path
        d="M25.6446 10.0263L25.6626 10.0648L25.5702 10.1392H25.5317L25.5138 10.1957L25.4214 10.2136L25.4599 10.1392H25.4984L25.5163 10.0828L25.6446 10.0263Z"
        fill="#1779AC" />
    <path
        d="M24.3565 8.29166H24.395L24.3771 8.36607L24.1718 8.53287L24.1333 8.49438L24.2462 8.402L24.3386 8.30962L24.3565 8.29166Z"
        fill="#1779AC" />
    <path
        d="M35.6701 32.4485L35.7086 32.523L35.5777 32.5974L35.5033 32.6153L35.4648 32.5769L35.6316 32.4845L35.6701 32.4485Z"
        fill="#075080" />
    <path
        d="M24.2642 26.7724H24.431L24.4695 26.8289L24.3207 26.8468L24.2283 26.8648L24.2103 26.9033L24.1924 26.8468L24.2642 26.7724Z"
        fill="#153D6A" />
    <path
        d="M22.5835 26.6236L22.6579 26.6621L22.6759 26.7005L22.6938 26.9058L22.6553 26.9238L22.5989 26.7005L22.5835 26.6236Z"
        fill="#153D6A" />
    <path
        d="M33.6738 26.7365H33.7303V26.775L33.8227 26.8135V27.0572H33.7662V26.852L33.7098 26.8135V26.757L33.6738 26.7365Z"
        fill="#075080" />
    <path
        d="M17.2437 32.2817L17.3181 32.3202V32.3587H17.3566V32.4152H17.3951L17.413 32.4896L17.3386 32.4511L17.2462 32.3382V32.2817H17.2437Z"
        fill="#0B4B79" />
    <path
        d="M20.8463 23.1337L20.9027 23.1517L20.8283 23.2825H20.7539L20.7924 23.1902L20.8463 23.1337Z"
        fill="#153D6A" />
    <path
        d="M24.9727 12.1176H25.0111L25.0496 12.3229V12.3794L24.9932 12.3229L24.9752 12.2664V12.1176H24.9727Z"
        fill="#0C5989" />
    <path
        d="M20.7539 24.3834L20.7924 24.4399L20.8489 24.5528L20.8104 24.6272V24.5887H20.7719L20.7334 24.4758L20.7539 24.3834Z"
        fill="#153D6A" />
    <path
        d="M36.3608 11.0732L36.3993 11.1297L36.4558 11.3735L36.4378 11.4479L36.3993 11.3914L36.3608 11.0732Z"
        fill="#237DAB" />
    <path
        d="M20.7923 20.6883L20.8307 20.7268L20.8872 20.9141L20.8692 20.9705L20.7948 20.8576L20.7769 20.7268L20.7923 20.6883Z"
        fill="#153D6A" />
    <path
        d="M18.0464 33.0285L18.1773 33.067L18.2902 33.1234V33.1619L18.1978 33.1439L18.049 33.0516V33.0285H18.0464Z"
        fill="#125E8C" />
    <path d="M17.5054 31.3297L17.5439 31.3682L17.5824 31.612L17.5259 31.5735L17.5054 31.3297Z"
        fill="#21709C" />
</svg>